<svg clip-rule="evenodd" fill-rule="evenodd" stroke-linejoin="round" stroke-miterlimit="2" viewBox="0 0 306 282" xmlns="http://www.w3.org/2000/svg"><path d="m306 27.682c-15.278 0-27.682-7.154-27.682-22.432h-250.636c0 15.278-12.404 22.432-27.682 22.432v226.636c14.737 0 26.799 5.104 27.635 19.336.031.523.047 1.055.047 1.596h250.636c0-15.278 12.404-20.932 27.682-20.932v-226.636zm-3.5 3.381v219.853c-14.564.833-25.872 7.04-27.484 20.834h-244.037c-1.631-13.893-12.922-20.015-27.479-20.835 0-26.076 0-193.859 0-219.852 14.533-1.005 25.873-8.377 27.485-22.313h244.03c1.612 13.936 12.952 21.308 27.485 22.313z"/><path d="m299.183 32.998c0-.808-.652-1.464-1.46-1.468-2.43-.014-6.442-.766-9.896-1.972-2.18-.761-4.143-1.683-5.25-2.763-4.377-4.27-8.077-7.132-8.077-13.997 0-.811-.657-1.468-1.468-1.468h-239.314c-.811 0-1.468.657-1.468 1.468 0 6.853-3.011 8.072-7.576 12.493-4.434 4.295-9.736 6.239-16.388 6.239-.812 0-1.469.657-1.469 1.468v215.254c0 .811.657 1.468 1.469 1.468 4.14 0 10.94.767 15.958 5.596 4.754 4.574 8.006 6.632 8.006 12.386 0 .811.657 1.468 1.468 1.468h239.314c.708 0 1.315-.505 1.444-1.201 2.576-13.924 15.916-17.844 23.319-18.251.779-.043 1.388-.686 1.388-1.466zm-1.469 0c-4.243-.024-13.098-2.162-16.163-5.152-4.683-4.569-8.519-7.702-8.519-15.048h-239.314c0 7.386-3.103 8.784-8.023 13.548-4.712 4.564-10.339 6.652-17.409 6.652v215.254c4.408 0 11.633.863 16.977 6.005 5.119 4.926 8.455 7.248 8.455 13.445h239.314c2.734-14.777 16.826-19.018 24.682-19.45z"/><path d="m156.634 8.298c.357-.618.544-1.319.544-2.032 0-2.243-1.821-4.064-4.064-4.064s-4.064 1.821-4.064 4.064c0 .713.188 1.414.545 2.032z"/><path d="m162.637 8.137c.268-.463.409-.989.409-1.524 0-1.682-1.366-3.048-3.048-3.048-1.683 0-3.048 1.366-3.048 3.048 0 .535.14 1.061.408 1.524z"/><path d="m148.642 8.137c.268-.463.408-.989.408-1.524 0-1.682-1.365-3.048-3.048-3.048-1.682 0-3.048 1.366-3.048 3.048 0 .535.141 1.061.409 1.524z"/><path d="m156.634 272.904c.357.618.544 1.319.544 2.032 0 2.243-1.821 4.064-4.064 4.064s-4.064-1.821-4.064-4.064c0-.713.188-1.414.545-2.032z"/><path d="m162.637 273.065c.268.463.409.989.409 1.524 0 1.682-1.366 3.048-3.048 3.048-1.683 0-3.048-1.366-3.048-3.048 0-.535.14-1.061.408-1.524z"/><path d="m148.642 273.065c.268.463.408.989.408 1.524 0 1.682-1.365 3.048-3.048 3.048-1.682 0-3.048-1.366-3.048-3.048 0-.535.141-1.061.409-1.524z"/></svg>