<?xml version="1.0" encoding="UTF-8" standalone="no"?><!DOCTYPE svg PUBLIC "-//W3C//DTD SVG 1.1//EN" "http://www.w3.org/Graphics/SVG/1.1/DTD/svg11.dtd"><svg width="100%" height="100%" viewBox="0 0 306 282" version="1.1" xmlns="http://www.w3.org/2000/svg" xmlns:xlink="http://www.w3.org/1999/xlink" xml:space="preserve" xmlns:serif="http://www.serif.com/" style="fill-rule:evenodd;clip-rule:evenodd;stroke-linejoin:round;stroke-miterlimit:2;"><path d="M306,27.682c-15.278,-0 -27.682,-7.154 -27.682,-22.432l-250.636,-0c-0,15.278 -12.404,22.432 -27.682,22.432l-0,226.636c14.737,0 26.799,5.104 27.635,19.336c0.031,0.523 0.047,1.055 0.047,1.596l250.636,-0c0,-15.278 12.404,-20.932 27.682,-20.932l-0,-226.636Zm-3.5,3.381l-0,219.853c-14.564,0.833 -25.872,7.04 -27.484,20.834l-244.037,0c-1.631,-13.893 -12.922,-20.015 -27.479,-20.835c-0,-26.076 -0,-193.859 -0,-219.852c14.533,-1.005 25.873,-8.377 27.485,-22.313c0,-0 244.03,-0 244.03,-0c1.612,13.936 12.952,21.308 27.485,22.313Z"/><path d="M299.183,32.998c0,-0.808 -0.652,-1.464 -1.46,-1.468c-2.43,-0.014 -6.442,-0.766 -9.896,-1.972c-2.18,-0.761 -4.143,-1.683 -5.25,-2.763c-4.377,-4.27 -8.077,-7.132 -8.077,-13.997c0,-0.811 -0.657,-1.468 -1.468,-1.468l-239.314,-0c-0.811,-0 -1.468,0.657 -1.468,1.468c-0,6.853 -3.011,8.072 -7.576,12.493c-4.434,4.295 -9.736,6.239 -16.388,6.239c-0.812,-0 -1.469,0.657 -1.469,1.468l-0,215.254c-0,0.811 0.657,1.468 1.469,1.468c4.14,0 10.94,0.767 15.958,5.596c4.754,4.574 8.006,6.632 8.006,12.386c-0,0.811 0.657,1.468 1.468,1.468l239.314,0c0.708,0 1.315,-0.505 1.444,-1.201c2.576,-13.924 15.916,-17.844 23.319,-18.251c0.779,-0.043 1.388,-0.686 1.388,-1.466l0,-215.254Zm-1.469,0c-4.243,-0.024 -13.098,-2.162 -16.163,-5.152c-4.683,-4.569 -8.519,-7.702 -8.519,-15.048l-239.314,0c0,7.386 -3.103,8.784 -8.023,13.548c-4.712,4.564 -10.339,6.652 -17.409,6.652l-0,215.254c4.408,-0 11.633,0.863 16.977,6.005c5.119,4.926 8.455,7.248 8.455,13.445l239.314,-0c2.734,-14.777 16.826,-19.018 24.682,-19.45l0,-215.254Z"/><g><path d="M156.634,8.298c0.357,-0.618 0.544,-1.319 0.544,-2.032c0,-2.243 -1.821,-4.064 -4.064,-4.064c-2.243,0 -4.064,1.821 -4.064,4.064c0,0.713 0.188,1.414 0.545,2.032l7.039,-0Z"/><path d="M162.637,8.137c0.268,-0.463 0.409,-0.989 0.409,-1.524c-0,-1.682 -1.366,-3.048 -3.048,-3.048c-1.683,0 -3.048,1.366 -3.048,3.048c-0,0.535 0.14,1.061 0.408,1.524l5.279,0Z"/><path d="M148.642,8.137c0.268,-0.463 0.408,-0.989 0.408,-1.524c0,-1.682 -1.365,-3.048 -3.048,-3.048c-1.682,0 -3.048,1.366 -3.048,3.048c0,0.535 0.141,1.061 0.409,1.524l5.279,0Z"/></g><g><path d="M156.634,272.904c0.357,0.618 0.544,1.319 0.544,2.032c0,2.243 -1.821,4.064 -4.064,4.064c-2.243,0 -4.064,-1.821 -4.064,-4.064c0,-0.713 0.188,-1.414 0.545,-2.032l7.039,0Z"/><path d="M162.637,273.065c0.268,0.463 0.409,0.989 0.409,1.524c-0,1.682 -1.366,3.048 -3.048,3.048c-1.683,-0 -3.048,-1.366 -3.048,-3.048c-0,-0.535 0.14,-1.061 0.408,-1.524l5.279,-0Z"/><path d="M148.642,273.065c0.268,0.463 0.408,0.989 0.408,1.524c0,1.682 -1.365,3.048 -3.048,3.048c-1.682,-0 -3.048,-1.366 -3.048,-3.048c0,-0.535 0.141,-1.061 0.409,-1.524l5.279,-0Z"/></g></svg>