<?xml version="1.0" encoding="UTF-8" standalone="no"?><!DOCTYPE svg PUBLIC "-//W3C//DTD SVG 1.1//EN" "http://www.w3.org/Graphics/SVG/1.1/DTD/svg11.dtd"><svg width="100%" height="100%" viewBox="0 0 306 282" version="1.1" xmlns="http://www.w3.org/2000/svg" xmlns:xlink="http://www.w3.org/1999/xlink" xml:space="preserve" xmlns:serif="http://www.serif.com/" style="fill-rule:evenodd;clip-rule:evenodd;stroke-linejoin:round;stroke-miterlimit:2;"><path d="M306,27.682c-15.278,-0 -27.682,-12.404 -27.682,-27.682l-250.636,0c-0,15.278 -12.404,27.682 -27.682,27.682l-0,226.636c15.278,0 27.682,12.404 27.682,27.682l250.636,0c0,-15.278 12.404,-27.682 27.682,-27.682l0,-226.636Z" style="fill:#f0ec93;"/><path d="M306,27.682c-15.278,-0 -27.682,-12.404 -27.682,-27.682l-250.636,0c-0,15.278 -12.404,27.682 -27.682,27.682l-0,226.636c15.278,0 27.682,12.404 27.682,27.682l250.636,0c0,-15.278 12.404,-27.682 27.682,-27.682l0,-226.636Zm-2.02,1.952l-0,222.732c-14.785,0.995 -26.619,12.829 -27.614,27.614c-0,-0 -246.732,-0 -246.732,-0c-0.995,-14.785 -12.829,-26.619 -27.614,-27.614c0,-0 0,-222.732 0,-222.732c14.785,-0.995 26.619,-12.829 27.614,-27.614c0,0 246.732,0 246.732,0c0.995,14.785 12.829,26.619 27.614,27.614Z"/></svg>