<svg clip-rule="evenodd" fill-rule="evenodd" stroke-linejoin="round" stroke-miterlimit="2" viewBox="0 0 306 282" xmlns="http://www.w3.org/2000/svg"><path d="m306 27.682c-15.278 0-27.682-12.404-27.682-27.682h-250.636c0 15.278-12.404 27.682-27.682 27.682v226.636c15.278 0 27.682 12.404 27.682 27.682h250.636c0-15.278 12.404-27.682 27.682-27.682v-226.636z" fill="#f0ec93"/><path d="m306 27.682c-15.278 0-27.682-12.404-27.682-27.682h-250.636c0 15.278-12.404 27.682-27.682 27.682v226.636c15.278 0 27.682 12.404 27.682 27.682h250.636c0-15.278 12.404-27.682 27.682-27.682v-226.636zm-2.02 1.952v222.732c-14.785.995-26.619 12.829-27.614 27.614h-246.732c-.995-14.785-12.829-26.619-27.614-27.614v-222.732c14.785-.995 26.619-12.829 27.614-27.614h246.732c.995 14.785 12.829 26.619 27.614 27.614z"/></svg>