<svg clip-rule="evenodd" fill-rule="evenodd" stroke-linejoin="round" stroke-miterlimit="2" viewBox="0 0 306 282" xmlns="http://www.w3.org/2000/svg"><path d="m306 27.682c-15.278 0-27.682-12.404-27.682-27.682h-250.636c0 15.278-12.404 27.682-27.682 27.682v226.636c15.278 0 27.682 12.404 27.682 27.682h250.636c0-15.278 12.404-27.682 27.682-27.682v-226.636z" fill="#ebebeb"/><path d="m27.549 279.279c.088.895.133 1.803.133 2.721h1.275v-1h-.293c-.008-.263-.021-.524-.037-.785l-.061-.998zm7.408 2.721v-1h-4v1zm6 0v-1h-4v1zm6 0v-1h-4v1zm2 0h4v-1h-4zm10 0v-1h-4v1zm6 0v-1h-4v1zm6 0v-1h-4v1zm6 0v-1h-4v1zm6 0v-1h-4v1zm6 0v-1h-4v1zm6 0v-1h-4v1zm6 0v-1h-4v1zm6 0v-1h-4v1zm2 0h4v-1h-4zm6 0h3.999v-1h-3.999zm10 0v-1h-4v1zm6 0v-1h-4v1zm6 0v-1h-4v1zm6 0v-1h-4v1zm6 0v-1h-4v1zm6 0v-1h-4v1zm6 0v-1h-4v1zm2 0h4v-1h-4zm10 0v-1h-4v1zm6 0v-1h-4v1zm6 0v-1h-4v1zm6 0v-1h-4.001v1zm6 0v-1h-4.001v1zm5.999 0v-1h-4v1zm2 0h4v-1h-4zm10 0v-1h-4v1zm6 0v-1h-4v1zm6 0v-1h-4v1zm6 0v-1h-4v1zm6 0v-1h-4v1zm6 0v-1h-4v1zm6 0v-1h-4v1zm6 0v-1h-4v1zm2 0h4v-1h-4zm10 0v-1h-4v1zm6 0v-1h-4v1zm3.487-2.635-1.017-.059-.058.998c-.014.232-.025.463-.032.696h-.38v1h1.362c0-.889.042-1.769.125-2.635zm1.207-5.865-.98-.277-.272.962c-.187.662-.352 1.333-.492 2.014l-.201.979.998.205c.223-1.328.541-2.625.947-3.883zm-253.327-.082c.41 1.257.732 2.552.96 3.88l.997-.208-.205-.979c-.142-.68-.308-1.351-.497-2.012l-.276-.961zm255.776-5.382-.897-.483-.474.881c-.327.606-.632 1.226-.916 1.858l-.409.913.93.417c.503-1.243 1.094-2.441 1.766-3.586zm-258.241-.075c.674 1.143 1.269 2.339 1.777 3.58l.928-.419-.412-.911c-.286-.631-.593-1.25-.922-1.856l-.476-.879zm261.807-4.735-.772-.664-.652.758c-.449.524-.881 1.064-1.292 1.619l-.596.803.818.607c.756-1.101 1.591-2.145 2.494-3.123zm-265.389-.064c.907.975 1.744 2.017 2.504 3.115l.816-.609-.598-.801c-.414-.554-.846-1.093-1.298-1.615l-.654-.756zm269.902-3.873-.613-.813-.799.601c-.552.416-1.088.851-1.608 1.305l-.754.658.67.767c.972-.912 2.009-1.753 3.104-2.518zm-274.427-.05c1.097.761 2.138 1.6 3.112 2.509l.667-.77-.755-.655c-.522-.452-1.06-.885-1.613-1.3l-.801-.599zm279.679-2.827-.424-.927-.91.416c-.629.288-1.247.598-1.851.93l-.877.48.489.893c1.14-.679 2.333-1.279 3.573-1.792zm-284.939-.034c1.24.509 2.435 1.106 3.578 1.782l.486-.895-.878-.477c-.606-.33-1.224-.638-1.855-.924l-.911-.413zm290.688-1.64-.213-.996-.978.209c-.679.145-1.349.314-2.01.506l-.96.28.285.978c1.255-.416 2.549-.744 3.876-.977zm-296.443-.015c1.327.229 2.622.553 3.879.965l.281-.979-.961-.277c-.661-.19-1.331-.357-2.011-.5l-.978-.206zm301.264-1.559h-1v.172c-.305.01-.608.025-.91.045l-.998.066.067 1.016c.933-.096 1.882-.145 2.841-.145zm-306-.087v1.241c.93 0 1.85.046 2.755.136l.064-1.016-.998-.063c-.273-.017-.546-.03-.821-.039v-.259zm306-5.913h-1v4h1zm-306-.087v4h1v-4zm306-5.913h-1v4h1zm-306-.087v4h1v-4zm306-5.913h-1v4h1zm-306-.087v4h1v-4zm306-5.913h-1v4h1zm-306-.087v4h1v-4zm306-5.913h-1v4h1zm-306-.087v4h1v-4zm306-5.913h-1v4h1zm-306-.087v4h1v-4zm306-5.913h-1v4h1zm-306-.087v4h1v-4zm306-5.913h-1v4h1zm-306-.087v4h1v-4zm306-5.913h-1v4h1zm-306-.087v4h1v-4zm306-5.913h-1v4h1zm-306-.087v4h1v-4zm306-5.913h-1v4h1zm-306-.087v4h1v-4zm306-5.913h-1v4h1zm-306-.087v4h1v-4zm306-5.913h-1v4h1zm-306-.087v4h1v-4zm306-5.913h-1v4h1zm-306-.087v4h1v-4zm306-5.913h-1v4h1zm-306-.087v4h1v-4zm306-5.913h-1v4h1zm-306-.087v4h1v-4zm306-5.913h-1v4h1zm-306-.087v4h1v-4zm306-5.913h-1v4h1zm-306-.087v4h1v-4zm306-5.913h-1v4h1zm-306-.087v4h1v-4zm306-5.913h-1v4h1zm-306-.087v4h1v-4zm306-5.913h-1v4h1zm-306-.087v4h1v-4zm306-5.913h-1v4h1zm-306-.087v4h1v-4zm306-5.913h-1v4h1zm-306-.087v4h1v-4zm306-5.913h-1v4h1zm-306-.087v4h1v-4zm306-5.913h-1v4h1zm-306-.087v4h1v-4zm306-5.913h-1v4h1zm-306-.087v4h1v-4zm306-5.913h-1v4h1zm-306-.087v4h1v-4zm306-5.913h-1v4h1zm-306-.087v4h1v-4zm306-5.913h-1v4h1zm-306-.087v4h1v-4zm306-5.913h-1v4h1zm-306-.087v4h1v-4zm306-5.913h-1v4h1zm-306-.087v4.001h1v-4.001zm306-5.913h-1v4h1zm-306-.086v4h1v-4zm306-5.914h-1v4h1zm-306-.086v4h1v-4zm306-5.914h-1v4h1zm-306-.086v4h1v-4zm306-5.914h-1v4h1zm-306-.086v4h1v-4zm306-5.914h-1v4h1zm-306-.086v4h1v-4zm306-5.914h-1v4h1zm-306-.086v4h1v-4zm303.006-3.557-.073 1.016.997.071c.355.025.712.044 1.07.056v.5h1v-1.482c-1.011 0-2.01-.055-2.994-.161zm-303.006.161v1.396h1v-.414c.221-.007.441-.017.66-.03l.999-.057-.059-1.017c-.856.081-1.723.122-2.6.122zm8.467-1.322c-1.259.405-2.556.722-3.884.943l.204.998.98-.2c.68-.139 1.352-.303 2.014-.489l.962-.271zm288.69-.123-.29.976.958.285c.66.196 1.329.369 2.007.518l.977.214.218-.995c-1.326-.24-2.618-.576-3.87-.998zm-283.222-2.318c-1.146.669-2.345 1.259-3.588 1.761l.415.93.913-.408c.632-.282 1.253-.587 1.86-.913l.881-.473zm277.79-.203-.495.891.875.485c.602.335 1.218.648 1.846.94l.907.421.429-.924c-1.236-.52-2.425-1.126-3.562-1.813zm-272.976-3.358c-.979.902-2.024 1.735-3.126 2.49l.606.819.804-.594c.555-.411 1.096-.842 1.62-1.291l.759-.651zm268.213-.271-.674.764.75.662c.517.456 1.051.894 1.601 1.313l.796.606.617-.81c-1.091-.77-2.124-1.618-3.09-2.535zm-264.271-4.237c-.766 1.094-1.609 2.131-2.521 3.101l.766.671.659-.753c.454-.52.89-1.056 1.306-1.607l.603-.798zm260.393-.326-.822.602.592.807c.408.557.837 1.099 1.284 1.625l.647.762.776-.659c-.898-.983-1.726-2.031-2.477-3.137zm-257.509-4.922c-.514 1.238-1.116 2.431-1.797 3.57l.893.491.481-.876c.332-.605.643-1.222.932-1.851l.417-.909zm254.7-.367-.931.412.404.914c.279.634.581 1.256.905 1.864l.469.884.899-.478c-.665-1.149-1.249-2.35-1.746-3.596zm-253.019-5.38c-.235 1.326-.564 2.62-.982 3.874l.978.286.281-.959c.193-.661.363-1.33.509-2.009l.21-.978zm251.421-.391-.998.2.196.981c.136.681.296 1.353.48 2.016l.267.964.981-.272c-.398-1.259-.709-2.558-.926-3.889zm-249.875-4.464h-1.12c0 .325-.006.65-.017.97l.017.03h-.018c-.022.63-.066 1.255-.13 1.875l1.016.068.067-.997c.021-.314.037-.629.048-.946h.137v-1zm248 0v1h.534c.006.179.013.358.023.536l.053.999 1.016-.054c-.044-.497-.075-.996-.092-1.499l-.018.018.017-.027c-.011-.323-.017-.648-.017-.973h-1.516zm-194 0h-4v1h4zm6 0h-4v1h4zm6 0h-4v1h4zm6 0h-4v1h4zm6 0h-4v1h4zm12 0h-4v1h4zm6 0h-4v1h4zm6 0h-4v1h4zm6 0h-4v1h4zm6 0h-4v1h4zm6 0h-4v1h4zm-72 0h-4v1h4zm84 0h-4v1h4zm6.001 0h-4v1h4zm6 0h-4v1h4zm5.999 0h-4v1h4zm6 0h-4v1h4zm6 0h-4v1h4zm6 0h-4v1h4zm6 0h-4v1h4zm6 0h-4v1h4zm6 0h-4v1h4zm6 0h-4v1h4zm6 0h-4v1h4zm6 0h-4v1h4zm6 0h-4v1h4zm6 0h-4v1h4zm6.001 0h-4v1h4zm6 0h-4.001v1h4.001zm6 0h-4.001v1h4.001zm5.999 0h-4v1h4zm6 0h-4v1h4zm-204 0h-4v1h4zm-6 0h-4v1h4zm-6 0h-4v1h4zm-6 0h-4v1h4zm-6 0h-4v1h4zm-6 0h-4v1h4zm-6 0h-4v1h4zm120 0h-4v1h4zm-42 0h-4v1h4z"/><path d="m281.852 20.201c.527 1.38 2.005 2.017 3.289 1.387l6.6-3.237 1.747 2.023c-1.071 1.312-1.095 3.286-.012 4.54 1.144 1.324 3.089 1.342 4.344.04 1.256-1.301 1.346-3.43.202-4.754-.785-.909-1.947-1.202-3.005-.876l-2.141-2.477 2.94-1.442c.845.714 2.03.899 3.108.371 1.571-.771 2.321-2.765 1.676-4.454-.646-1.69-2.443-2.435-4.014-1.664-1.487.729-2.238 2.556-1.766 4.182l-2.4 1.178-4.806-5.563c-.934-1.082-2.544-1.074-3.569-.011l5.875 6.8zm14.241.633c.859.176 1.399 1.085 1.206 2.031-.192.947-1.045 1.572-1.904 1.397-.86-.175-1.4-1.084-1.207-2.031.193-.946 1.046-1.572 1.905-1.397zm2.004-9.826c.859.175 1.399 1.085 1.206 2.031-.193.947-1.046 1.572-1.905 1.397s-1.399-1.084-1.206-2.031c.193-.946 1.045-1.572 1.905-1.397z" fill-rule="nonzero"/><path d="m281.521 19.528c-.348.17-.509.578-.37.941.691 1.808 2.638 2.618 4.32 1.793l6.081-2.983s.989 1.146.989 1.146c-.921 1.558-.808 3.619.367 4.98h.001c1.435 1.661 3.876 1.704 5.451.07 1.522-1.579 1.617-4.16.23-5.766-.87-1.007-2.109-1.412-3.301-1.218 0 0-1.209-1.399-1.209-1.399s1.66-.815 1.66-.815c1.021.646 2.319.758 3.514.172 1.905-.934 2.829-3.347 2.046-5.395-.81-2.121-3.073-3.037-5.044-2.07-1.615.792-2.525 2.645-2.287 4.439 0 0-1.359.666-1.359.666s-4.428-5.124-4.428-5.124c-1.225-1.418-3.334-1.435-4.677-.041-.27.279-.282.717-.028 1.011l5.24 6.064s-7.196 3.529-7.196 3.529zm.331.673c.527 1.38 2.005 2.017 3.289 1.387l6.6-3.237 1.747 2.023c-1.071 1.312-1.095 3.286-.012 4.54 1.144 1.324 3.089 1.342 4.344.04 1.256-1.301 1.346-3.43.202-4.754-.785-.909-1.947-1.202-3.005-.876l-2.141-2.477 2.94-1.442c.845.714 2.03.899 3.108.371 1.571-.771 2.321-2.765 1.676-4.454-.646-1.69-2.443-2.435-4.014-1.664-1.487.729-2.238 2.556-1.766 4.182l-2.4 1.178-4.806-5.563c-.934-1.082-2.544-1.074-3.569-.011l5.875 6.8zm14.241.633c.859.176 1.399 1.085 1.206 2.031-.192.947-1.045 1.572-1.904 1.397-.86-.175-1.4-1.084-1.207-2.031.193-.946 1.046-1.572 1.905-1.397zm-.149.735c.474.097.727.624.621 1.147-.107.522-.546.908-1.021.811-.474-.096-.727-.624-.621-1.146.107-.522.546-.908 1.021-.812zm2.153-10.561c.859.175 1.399 1.085 1.206 2.031-.193.947-1.046 1.572-1.905 1.397s-1.399-1.084-1.206-2.031c.193-.946 1.045-1.572 1.905-1.397zm-.15.735c.474.097.727.624.621 1.147-.107.522-.546.908-1.02.811-.475-.096-.728-.624-.621-1.146.106-.522.546-.908 1.02-.812z" fill="#fff"/></svg>