<?xml version="1.0" encoding="UTF-8" standalone="no"?><!DOCTYPE svg PUBLIC "-//W3C//DTD SVG 1.1//EN" "http://www.w3.org/Graphics/SVG/1.1/DTD/svg11.dtd"><svg width="100%" height="100%" viewBox="0 0 306 282" version="1.1" xmlns="http://www.w3.org/2000/svg" xmlns:xlink="http://www.w3.org/1999/xlink" xml:space="preserve" xmlns:serif="http://www.serif.com/" style="fill-rule:evenodd;clip-rule:evenodd;stroke-linejoin:round;stroke-miterlimit:2;"><path d="M306,33.177c-14.948,0 -27.084,-12.136 -27.084,-27.083l-251.832,-0c-0,14.947 -12.136,27.083 -27.084,27.083l-0,221.739c14.948,0 27.084,12.136 27.084,27.084l251.832,-0c0,-14.948 12.136,-27.084 27.084,-27.084l0,-221.739Z" style="fill:#ebebeb;"/><path d="M26.988,279.715c0.063,0.753 0.096,1.515 0.096,2.285l1.672,-0l0,-0.99l-0.7,0c-0.004,-0.118 -0.009,-0.236 -0.014,-0.354l-0.047,-0.988l-1.007,0.047Zm7.708,2.285l-0,-0.99l-3.96,0l-0,0.99l3.96,-0Zm5.94,-0l-0,-0.99l-3.96,0l-0,0.99l3.96,-0Zm5.939,-0l0,-0.99l-3.96,0l0,0.99l3.96,-0Zm5.94,-0l0,-0.99l-3.96,0l0,0.99l3.96,-0Zm5.94,-0l-0,-0.99l-3.96,0l0,0.99l3.96,-0Zm5.939,-0l0,-0.99l-3.959,0l-0,0.99l3.959,-0Zm1.98,-0l3.96,-0l0,-0.99l-3.96,0l0,0.99Zm9.9,-0l-0,-0.99l-3.96,0l0,0.99l3.96,-0Zm5.939,-0l0,-0.99l-3.959,0l-0,0.99l3.959,-0Zm5.94,-0l-0,-0.99l-3.96,0l0,0.99l3.96,-0Zm5.94,-0l-0,-0.99l-3.96,0l-0,0.99l3.96,-0Zm5.939,-0l0,-0.99l-3.959,0l-0,0.99l3.959,-0Zm5.94,-0l-0,-0.99l-3.96,0l0,0.99l3.96,-0Zm5.94,-0l-0,-0.99l-3.96,0l-0,0.99l3.96,-0Zm5.939,-0l0,-0.99l-3.959,0l-0,0.99l3.959,-0Zm5.94,-0l0,-0.99l-3.96,0l0,0.99l3.96,-0Zm5.94,-0l-0,-0.99l-3.96,0l0,0.99l3.96,-0Zm5.94,-0l-0,-0.99l-3.96,0l-0,0.99l3.96,-0Zm5.939,-0l0,-0.99l-3.959,0l-0,0.99l3.959,-0Zm1.98,-0l3.96,-0l-0,-0.99l-3.96,0l0,0.99Zm9.9,-0l-0,-0.99l-3.96,0l-0,0.99l3.96,-0Zm5.939,-0l0,-0.99l-3.959,0l-0,0.99l3.959,-0Zm5.94,-0l-0,-0.99l-3.96,0l0,0.99l3.96,-0Zm5.94,-0l-0,-0.99l-3.96,0l-0,0.99l3.96,-0Zm5.939,-0l0,-0.99l-3.96,0l0,0.99l3.96,-0Zm5.94,-0l-0,-0.99l-3.96,0l-0,0.99l3.96,-0Zm5.939,-0l0,-0.99l-3.96,0l0,0.99l3.96,-0Zm5.94,-0l-0,-0.99l-3.96,0l0,0.99l3.96,-0Zm5.939,-0l0,-0.99l-3.959,0l-0,0.99l3.959,-0Zm5.94,-0l0,-0.99l-3.96,0l0,0.99l3.96,-0Zm5.94,-0l-0,-0.99l-3.96,0l0,0.99l3.96,-0Zm5.94,-0l-0,-0.99l-3.96,0l-0,0.99l3.96,-0Zm5.939,-0l0,-0.99l-3.96,0l0,0.99l3.96,-0Zm5.94,-0l-0,-0.99l-3.96,0l0,0.99l3.96,-0Zm5.94,-0l-0,-0.99l-3.96,0l-0,0.99l3.96,-0Zm5.939,-0l0,-0.99l-3.96,0l0,0.99l3.96,-0Zm5.94,-0l-0,-0.99l-3.96,0l0,0.99l3.96,-0Zm5.939,-0l0,-0.99l-3.959,0l-0,0.99l3.959,-0Zm5.94,-0l0,-0.99l-3.96,0l0,0.99l3.96,-0Zm5.94,-0l-0,-0.99l-3.96,0l-0,0.99l3.96,-0Zm1.98,-0l3.959,-0l0,-0.99l-3.959,0l-0,0.99Zm9.899,-0l0,-0.99l-3.96,0l0,0.99l3.96,-0Zm1.197,-5.213l-0.996,-0.157l-0.154,0.978c-0.106,0.671 -0.188,1.351 -0.245,2.037l-0.082,0.986l1.005,0.084c0.062,-1.337 0.222,-2.649 0.472,-3.928Zm-253.57,-2.889c0.391,1.248 0.694,2.535 0.902,3.852l0.99,-0.193l-0.19,-0.972c-0.132,-0.675 -0.289,-1.341 -0.468,-1.998l-0.262,-0.955l-0.972,0.266Zm255.341,-2.768l-0.938,-0.371l-0.364,0.92c-0.251,0.634 -0.48,1.279 -0.685,1.935l-0.296,0.944l0.962,0.302c0.351,-1.284 0.793,-2.53 1.321,-3.73Zm-257.727,-2.658c0.658,1.138 1.235,2.327 1.725,3.561l0.923,-0.406l-0.399,-0.906c-0.276,-0.628 -0.574,-1.244 -0.894,-1.847l-0.464,-0.875l-0.891,0.473Zm260.691,-2.475l-0.834,-0.567l-0.556,0.819c-0.384,0.565 -0.748,1.144 -1.091,1.738l-0.495,0.857l0.873,0.504c0.621,-1.171 1.324,-2.29 2.103,-3.351Zm-264.201,-2.302c0.892,0.971 1.714,2.007 2.458,3.101l0.812,-0.597l-0.586,-0.798c-0.405,-0.551 -0.83,-1.088 -1.274,-1.608l-0.643,-0.753l-0.767,0.655Zm268.208,-2.067l-0.692,-0.734l-0.72,0.68c-0.497,0.469 -0.978,0.956 -1.44,1.46l-0.669,0.73l0.743,0.681c0.856,-1.005 1.785,-1.946 2.778,-2.817Zm-272.667,-1.839c1.083,0.758 2.109,1.593 3.069,2.497l0.664,-0.758l-0.744,-0.652c-0.515,-0.451 -1.045,-0.883 -1.592,-1.295l-0.79,-0.596l-0.607,0.804Zm277.524,-1.559l-0.516,-0.867l-0.851,0.507c-0.588,0.351 -1.163,0.723 -1.722,1.115l-0.811,0.567l0.578,0.827c1.05,-0.794 2.16,-1.513 3.322,-2.149Zm-282.725,-1.286c1.228,0.505 2.41,1.098 3.539,1.771l0.484,-0.884l-0.869,-0.476c-0.598,-0.327 -1.21,-0.634 -1.835,-0.918l-0.901,-0.41l-0.418,0.917Zm288.205,-0.973l-0.314,-0.958l-0.941,0.309c-0.652,0.214 -1.294,0.452 -1.925,0.711l-0.915,0.378l0.384,0.932c1.193,-0.544 2.433,-1.004 3.711,-1.372Zm-293.901,-0.665c1.314,0.225 2.597,0.545 3.84,0.953l0.279,-0.969l-0.952,-0.274c-0.654,-0.188 -1.318,-0.353 -1.992,-0.494l-0.968,-0.203l-0.207,0.987Zm299.743,-0.339l-0.097,-1.004l-0.986,0.096c-0.685,0.067 -1.363,0.158 -2.033,0.273l-0.976,0.168l0.171,0.994c1.276,-0.268 2.586,-0.446 3.921,-0.527Zm-304.34,-1.371l0,1.32c0.889,0 1.769,0.043 2.635,0.128l0.061,-1.007l-0.988,-0.059c-0.239,-0.015 -0.478,-0.026 -0.718,-0.034l-0,-0.348l-0.99,-0Zm306,-2.958l-0.99,-0l0,3.959l0.99,0l0,-3.959Zm-306,-2.982l0,3.96l0.99,-0l-0,-3.96l-0.99,0Zm306,-2.958l-0.99,-0l0,3.96l0.99,-0l0,-3.96Zm-306,-2.982l0,3.96l0.99,0l-0,-3.96l-0.99,0Zm306,-2.958l-0.99,0l0,3.96l0.99,-0l0,-3.96Zm-306,-2.981l0,3.96l0.99,-0l-0,-3.96l-0.99,-0Zm306,-2.958l-0.99,-0l0,3.959l0.99,0l0,-3.959Zm-306,-2.982l0,3.96l0.99,-0l-0,-3.96l-0.99,0Zm306,-2.958l-0.99,-0l0,3.96l0.99,-0l0,-3.96Zm-306,-2.982l0,3.96l0.99,0l-0,-3.96l-0.99,0Zm306,-2.958l-0.99,0l0,3.96l0.99,0l0,-3.96Zm-306,-2.981l0,3.959l0.99,0l-0,-3.959l-0.99,-0Zm306,-2.958l-0.99,-0l0,3.959l0.99,0l0,-3.959Zm-306,-2.982l0,3.96l0.99,-0l-0,-3.96l-0.99,0Zm306,-2.958l-0.99,-0l0,3.96l0.99,-0l0,-3.96Zm-306,-2.982l0,3.96l0.99,0l-0,-3.96l-0.99,0Zm306,-2.958l-0.99,0l0,3.96l0.99,0l0,-3.96Zm-306,-2.981l0,3.959l0.99,0l-0,-3.959l-0.99,-0Zm306,-2.958l-0.99,-0l0,3.959l0.99,0l0,-3.959Zm-306,-2.982l0,3.96l0.99,-0l-0,-3.96l-0.99,-0Zm306,-2.958l-0.99,-0l0,3.96l0.99,-0l0,-3.96Zm-306,-2.982l0,3.96l0.99,0l-0,-3.96l-0.99,0Zm306,-2.958l-0.99,0l0,3.96l0.99,-0l0,-3.96Zm-306,-2.981l0,3.959l0.99,0l-0,-3.959l-0.99,-0Zm306,-2.958l-0.99,-0l0,3.959l0.99,0l0,-3.959Zm-306,-2.982l0,3.96l0.99,-0l-0,-3.96l-0.99,-0Zm306,-2.958l-0.99,-0l0,3.96l0.99,-0l0,-3.96Zm-306,-2.982l0,3.96l0.99,0l-0,-3.96l-0.99,0Zm306,-2.958l-0.99,0l0,3.96l0.99,0l0,-3.96Zm-306,-2.982l0,3.96l0.99,0l-0,-3.96l-0.99,0Zm306,-2.957l-0.99,-0l0,3.959l0.99,0l0,-3.959Zm-306,-2.982l0,3.959l0.99,0l-0,-3.959l-0.99,-0Zm306,-2.958l-0.99,-0l0,3.96l0.99,-0l0,-3.96Zm-306,-2.982l0,3.96l0.99,-0l-0,-3.96l-0.99,-0Zm306,-2.958l-0.99,0l0,3.96l0.99,-0l0,-3.96Zm-306,-2.982l0,3.96l0.99,0l-0,-3.96l-0.99,0Zm306,-2.958l-0.99,0l0,3.96l0.99,0l0,-3.96Zm-306,-2.981l0,3.959l0.99,0l-0,-3.959l-0.99,-0Zm306,-2.959l-0.99,0l0,3.96l0.99,0l0,-3.96Zm-306,-2.981l0,3.96l0.99,-0l-0,-3.96l-0.99,-0Zm306,-2.958l-0.99,-0l0,3.96l0.99,-0l0,-3.96Zm-306,-2.982l0,3.96l0.99,0l-0,-3.96l-0.99,0Zm306,-2.958l-0.99,0l0,3.96l0.99,-0l0,-3.96Zm-306,-2.982l0,3.96l0.99,0l-0,-3.96l-0.99,0Zm306,-2.958l-0.99,0l0,3.96l0.99,0l0,-3.96Zm-306,-2.981l0,3.959l0.99,0l-0,-3.959l-0.99,-0Zm306,-2.958l-0.99,-0l0,3.959l0.99,0l0,-3.959Zm-306,-2.982l0,3.96l0.99,-0l-0,-3.96l-0.99,-0Zm306,-2.958l-0.99,-0l0,3.96l0.99,-0l0,-3.96Zm-306,-2.982l0,3.96l0.99,0l-0,-3.96l-0.99,0Zm306,-2.958l-0.99,0l0,3.96l0.99,0l0,-3.96Zm-306,-2.982l0,3.96l0.99,0l-0,-3.96l-0.99,0Zm306,-2.957l-0.99,-0l0,3.959l0.99,0l0,-3.959Zm-306,-2.982l0,3.959l0.99,0l-0,-3.959l-0.99,-0Zm306,-2.958l-0.99,0l0,3.96l0.99,-0l0,-3.96Zm-306,-2.982l0,3.96l0.99,-0l-0,-3.96l-0.99,-0Zm306,-2.958l-0.99,0l0,3.96l0.99,0l0,-3.96Zm-306,-2.982l0,3.96l0.99,0l-0,-3.96l-0.99,0Zm306,-2.957l-0.99,-0l0,3.96l0.99,-0l0,-3.96Zm-306,-2.982l0,3.959l0.99,0l-0,-3.959l-0.99,-0Zm306,-2.958l-0.99,0l0,3.96l0.99,-0l0,-3.96Zm-306,-2.982l0,3.96l0.99,-0l-0,-3.96l-0.99,0Zm306,-2.958l-0.99,0l0,3.96l0.99,0l0,-3.96Zm-306,-2.981l0,3.959l0.99,0l-0,-3.959l-0.99,-0Zm306,-2.958l-0.99,-0l0,3.959l0.99,0l0,-3.959Zm-306,-2.982l0,3.959l0.99,0l-0,-3.959l-0.99,-0Zm306,-2.958l-0.99,0l0,3.96l0.99,-0l0,-3.96Zm-306,-2.982l0,3.96l0.99,-0l-0,-3.96l-0.99,-0Zm306,-2.958l-0.99,0l0,3.96l0.99,0l0,-3.96Zm-306,-2.982l0,3.96l0.99,-0l-0,-3.96l-0.99,0Zm306,-2.957l-0.99,-0l0,3.959l0.99,0l0,-3.959Zm-306,-2.982l0,3.959l0.99,0l-0,-3.959l-0.99,-0Zm306,-2.958l-0.99,-0l0,3.96l0.99,-0l0,-3.96Zm-306,-2.982l0,3.96l0.99,-0l-0,-3.96l-0.99,-0Zm303.036,-0.811l-0.073,1.006l0.987,0.071c0.352,0.026 0.705,0.045 1.06,0.057l0,0.679l0.99,0l0,-1.652c-1.002,0 -1.99,-0.054 -2.964,-0.161Zm-297.779,-0.35c-1.279,0.252 -2.59,0.414 -3.927,0.479l0.085,1.004l0.986,-0.083c0.687,-0.059 1.366,-0.142 2.037,-0.248l0.978,-0.156l-0.159,-0.996Zm291.993,-0.936l-0.291,0.966l0.948,0.285c0.652,0.196 1.314,0.369 1.986,0.519l0.966,0.214l0.219,-0.984c-1.312,-0.241 -2.59,-0.577 -3.828,-1Zm-286.339,-0.844c-1.199,0.529 -2.444,0.974 -3.728,1.326l0.303,0.962l0.945,-0.297c0.655,-0.206 1.3,-0.436 1.933,-0.688l0.92,-0.366l-0.373,-0.937Zm280.974,-1.678l-0.494,0.878l0.862,0.486c0.595,0.335 1.203,0.649 1.824,0.941l0.896,0.421l0.429,-0.913c-1.221,-0.52 -2.396,-1.127 -3.517,-1.813Zm-275.846,-1.295c-1.059,0.78 -2.178,1.486 -3.348,2.108l0.506,0.872l0.856,-0.496c0.593,-0.344 1.172,-0.709 1.737,-1.093l0.817,-0.558l-0.568,-0.833Zm271.159,-2.334l-0.674,0.751l0.737,0.661c0.509,0.456 1.034,0.895 1.575,1.314l0.783,0.606l0.618,-0.798c-1.074,-0.77 -2.09,-1.618 -3.039,-2.534Zm-266.797,-1.68c-0.869,0.994 -1.809,1.925 -2.812,2.783l0.683,0.742l0.728,-0.671c0.503,-0.463 0.99,-0.944 1.458,-1.442l0.678,-0.722l-0.735,-0.69Zm263.004,-2.876l-0.819,0.587l0.576,0.805c0.399,0.557 0.817,1.098 1.254,1.623l0.634,0.761l0.775,-0.645c-0.88,-0.982 -1.689,-2.028 -2.42,-3.131Zm-259.613,-1.987c-0.635,1.163 -1.352,2.274 -2.144,3.326l0.827,0.577l0.567,-0.812c0.391,-0.56 0.761,-1.135 1.111,-1.725l0.506,-0.851l-0.867,-0.515Zm256.901,-3.283l-0.928,0.394l0.387,0.911c0.268,0.632 0.559,1.251 0.872,1.858l0.453,0.88l0.896,-0.461c-0.643,-1.145 -1.206,-2.342 -1.68,-3.582Zm-254.651,-2.201c-0.366,1.279 -0.824,2.519 -1.366,3.714l0.932,0.382l0.376,-0.915c0.259,-0.631 0.496,-1.274 0.709,-1.927l0.307,-0.941l-0.958,-0.313Zm253.157,-3.536l-0.992,0.182l0.179,0.974c0.123,0.676 0.272,1.345 0.443,2.004l0.249,0.958l0.976,-0.254c-0.375,-1.253 -0.663,-2.543 -0.855,-3.864Zm-252.163,-2.307c-0.079,1.335 -0.254,2.644 -0.52,3.922l0.994,0.169l0.166,-0.976c0.114,-0.67 0.204,-1.349 0.269,-2.034l0.095,-0.985l-1.004,-0.096Zm249.877,-1.615l0,0.99l1.031,-0l0.035,1l1.008,-0.035c-0.024,-0.326 -0.041,-0.654 -0.053,-0.983l-0.018,0.018l0.018,-0.028c-0.012,-0.318 -0.018,-0.64 -0.018,-0.962l-2.003,-0Zm-156.411,-0l-3.959,-0l-0,0.99l3.959,-0l0,-0.99Zm-23.758,-0l-3.96,-0l-0,0.99l3.96,-0l-0,-0.99Zm11.879,-0l-3.96,-0l0,0.99l3.96,-0l-0,-0.99Zm-35.638,-0l-3.96,-0l0,0.99l3.96,-0l-0,-0.99Zm166.311,-0l-3.96,-0l-0,0.99l3.96,-0l-0,-0.99Zm-65.336,-0l-3.96,-0l-0,0.99l3.96,-0l-0,-0.99Zm-35.638,-0l-3.96,-0l-0,0.99l3.96,-0l-0,-0.99Zm41.577,-0l-3.96,-0l0,0.99l3.96,-0l-0,-0.99Zm-89.095,-0l-3.96,-0l0,0.99l3.96,-0l0,-0.99Zm-41.578,-0l-3.96,-0l0,0.99l3.96,-0l0,-0.99Zm5.94,-0l-3.96,-0l-0,0.99l3.96,-0l-0,-0.99Zm5.939,-0l-3.959,-0l-0,0.99l3.959,-0l0,-0.99Zm100.975,-0l-3.959,-0l-0,0.99l3.959,-0l0,-0.99Zm-47.517,-0l-3.96,-0l-0,0.99l3.96,-0l-0,-0.99Zm-35.638,-0l-3.96,-0l-0,0.99l3.96,-0l-0,-0.99Zm5.939,-0l-3.96,-0l0,0.99l3.96,-0l0,-0.99Zm83.156,-0l-3.96,-0l0,0.99l3.96,-0l-0,-0.99Zm65.336,-0l-3.96,-0l0,0.99l3.96,-0l-0,-0.99Zm-5.94,-0l-3.96,-0l0,0.99l3.96,-0l0,-0.99Zm-23.758,-0l-3.96,-0l-0,0.99l3.96,-0l-0,-0.99Zm5.939,-0l-3.96,-0l0,0.99l3.96,-0l0,-0.99Zm5.94,-0l-3.96,-0l0,0.99l3.96,-0l-0,-0.99Zm5.94,-0l-3.96,-0l-0,0.99l3.96,-0l-0,-0.99Zm-23.759,-0l-3.96,-0l-0,0.99l3.96,-0l-0,-0.99Zm-5.94,-0l-3.96,-0l0,0.99l3.96,-0l0,-0.99Zm-5.94,-0l-3.959,-0l-0,0.99l3.959,-0l0,-0.99Zm59.397,-0l-3.959,-0l-0,0.99l3.959,-0l0,-0.99Zm5.94,-0l-3.96,-0l0,0.99l3.96,-0l0,-0.99Zm-148.492,-0l-3.959,-0l-0,0.99l3.959,-0l0,-0.99Zm-35.638,-0l-3.96,-0l0,0.99l3.96,-0l0,-0.99Zm89.096,-0l-3.96,-0l-0,0.99l3.96,-0l-0,-0.99Zm-5.94,-0l-3.96,-0l0,0.99l3.96,-0l-0,-0.99Zm-106.915,-0l-3.959,-0l-0,0.99l3.959,-0l0,-0.99Zm83.156,-0l-3.96,-0l0,0.99l3.96,-0l0,-0.99Zm130.673,-0l-3.96,-0l0,0.99l3.96,-0l-0,-0.99Zm5.939,-0l-3.959,-0l-0,0.99l3.959,-0l0,-0.99Zm5.94,-0l-3.96,-0l0,0.99l3.96,-0l-0,-0.99Zm5.94,-0l-3.96,-0l-0,0.99l3.96,-0l-0,-0.99Zm-142.552,-0l-3.96,-0l0,0.99l3.96,-0l-0,-0.99Zm11.879,-0l-3.96,-0l0,0.99l3.96,-0l0,-0.99Zm-106.914,-0l-3.96,-0l-0,0.99l3.96,-0l-0,-0.99Zm-5.94,-0l-3.96,-0l0,0.99l3.96,-0l0,-0.99Z"/><g><g><path d="M240.135,13.022c0.758,1.035 2.265,1.307 3.348,0.583l5.568,-3.726l2.025,1.355c-0.754,1.244 -0.399,2.854 0.856,3.694c1.325,0.886 3.152,0.579 4.08,-0.688c0.928,-1.267 0.606,-3.013 -0.72,-3.9c-0.909,-0.608 -2.055,-0.654 -2.984,-0.214l-2.48,-1.659l2.48,-1.659c0.929,0.44 2.074,0.394 2.984,-0.214c1.326,-0.887 1.647,-2.633 0.72,-3.9c-0.929,-1.267 -2.755,-1.574 -4.08,-0.688c-1.255,0.84 -1.61,2.45 -0.856,3.694l-2.025,1.355l-5.568,-3.726c-1.083,-0.724 -2.59,-0.452 -3.348,0.583l6.807,4.555l-6.807,4.555Zm13.471,-1.846c0.838,0 1.518,0.65 1.518,1.452c0,0.801 -0.68,1.451 -1.518,1.451c-0.839,0 -1.519,-0.65 -1.519,-1.451c-0,-0.802 0.68,-1.452 1.519,-1.452Zm-0,-8.322c0.838,0 1.518,0.65 1.518,1.452c0,0.802 -0.68,1.451 -1.518,1.451c-0.839,0 -1.519,-0.649 -1.519,-1.451c-0,-0.802 0.68,-1.452 1.519,-1.452Z" style="fill-rule:nonzero;"/><path d="M239.718,12.399c-0.17,0.113 -0.286,0.292 -0.322,0.493c-0.035,0.201 0.013,0.408 0.134,0.573c0.989,1.351 2.957,1.709 4.37,0.763l5.151,-3.447c0,0 1.074,0.719 1.074,0.719c-0.512,1.458 0.004,3.124 1.39,4.051c-0,-0 -0,-0 -0,-0c1.658,1.109 3.941,0.717 5.102,-0.868c-0,0 -0,0 -0,0c1.181,-1.612 0.78,-3.837 -0.908,-4.966c0,-0 0,-0 0,-0c-1.004,-0.672 -2.239,-0.795 -3.313,-0.434c0.001,0 -1.219,-0.816 -1.219,-0.816c-0,-0 1.22,-0.816 1.22,-0.816c1.073,0.361 2.308,0.238 3.312,-0.434c0,0 0,0 0,0c1.688,-1.129 2.089,-3.353 0.908,-4.966c-0,0 -0,0 -0,0c-1.162,-1.585 -3.445,-1.977 -5.102,-0.868c-0.001,0 -0.001,0 -0.001,0c-1.385,0.927 -1.901,2.593 -1.389,4.051c-0,0 -1.074,0.719 -1.074,0.719c-0,-0 -5.151,-3.447 -5.151,-3.447c-1.413,-0.946 -3.38,-0.588 -4.37,0.763c-0.121,0.165 -0.169,0.372 -0.134,0.573c0.036,0.202 0.152,0.38 0.322,0.494l5.875,3.931c-0,-0 -5.875,3.932 -5.875,3.932Zm0.417,0.623c0.758,1.035 2.265,1.307 3.348,0.583l5.568,-3.726l2.025,1.355c-0.754,1.244 -0.399,2.854 0.856,3.694c1.325,0.886 3.152,0.579 4.08,-0.688c0.928,-1.267 0.606,-3.013 -0.72,-3.9c-0.909,-0.608 -2.055,-0.654 -2.984,-0.214l-2.48,-1.659l2.48,-1.659c0.929,0.44 2.074,0.394 2.984,-0.214c1.326,-0.887 1.647,-2.633 0.72,-3.9c-0.929,-1.267 -2.755,-1.574 -4.08,-0.688c-1.255,0.84 -1.61,2.45 -0.856,3.694l-2.025,1.355l-5.568,-3.726c-1.083,-0.724 -2.59,-0.452 -3.348,0.583l6.807,4.555l-6.807,4.555Zm13.471,-1.846c0.838,0 1.518,0.65 1.518,1.452c0,0.801 -0.68,1.451 -1.518,1.451c-0.839,0 -1.519,-0.65 -1.519,-1.451c-0,-0.802 0.68,-1.452 1.519,-1.452Zm-0,0.75c0.415,0 0.768,0.305 0.768,0.702c0,0.397 -0.353,0.701 -0.768,0.701c-0.416,0 -0.769,-0.304 -0.769,-0.701c-0,-0.397 0.353,-0.702 0.769,-0.702Zm-0,-9.072c0.838,0 1.518,0.65 1.518,1.452c0,0.802 -0.68,1.451 -1.518,1.451c-0.839,0 -1.519,-0.649 -1.519,-1.451c-0,-0.802 0.68,-1.452 1.519,-1.452Zm-0,0.75c0.415,0 0.768,0.305 0.768,0.702c0,0.397 -0.353,0.701 -0.768,0.701c-0.416,0 -0.769,-0.304 -0.769,-0.701c-0,-0.397 0.353,-0.702 0.769,-0.702Z" style="fill:#fff;"/></g></g></svg>