<?xml version="1.0" encoding="UTF-8" standalone="no"?><!DOCTYPE svg PUBLIC "-//W3C//DTD SVG 1.1//EN" "http://www.w3.org/Graphics/SVG/1.1/DTD/svg11.dtd"><svg width="100%" height="100%" viewBox="0 0 306 282" version="1.1" xmlns="http://www.w3.org/2000/svg" xmlns:xlink="http://www.w3.org/1999/xlink" xml:space="preserve" xmlns:serif="http://www.serif.com/" style="fill-rule:evenodd;clip-rule:evenodd;stroke-linejoin:round;stroke-miterlimit:2;"><path d="M306,27.682c-15.278,-0 -27.682,-12.404 -27.682,-27.682l-250.636,0c-0,15.278 -12.404,27.682 -27.682,27.682l-0,226.636c15.278,0 27.682,12.404 27.682,27.682l250.636,0c0,-15.278 12.404,-27.682 27.682,-27.682l0,-226.636Z" style="fill:#f0ec93;"/><path d="M306,27.682c-15.278,-0 -27.682,-12.404 -27.682,-27.682l-250.636,0c-0,15.278 -12.404,27.682 -27.682,27.682l-0,226.636c15.278,0 27.682,12.404 27.682,27.682l250.636,0c0,-15.278 12.404,-27.682 27.682,-27.682l0,-226.636Zm-4,3.749l0,219.138c-14.29,1.803 -25.628,13.141 -27.431,27.431c-28.785,0 -214.353,0 -243.138,-0c-1.803,-14.29 -13.141,-25.628 -27.431,-27.431c-0,-0 -0,-189.934 -0,-219.138c14.29,-1.803 25.628,-13.141 27.431,-27.431c28.785,0 214.353,0 243.138,0c1.803,14.29 13.141,25.628 27.431,27.431Z"/><path d="M306,27.682c-15.278,-0 -27.682,-12.404 -27.682,-27.682l-250.636,0c-0,15.278 -12.404,27.682 -27.682,27.682l-0,226.636c15.278,0 27.682,12.404 27.682,27.682l250.636,0c0,-15.278 12.404,-27.682 27.682,-27.682l0,-226.636Z" style="fill:none;"/><clipPath id="_clip1"><path d="M306,27.682c-15.278,-0 -27.682,-12.404 -27.682,-27.682l-250.636,0c-0,15.278 -12.404,27.682 -27.682,27.682l-0,226.636c15.278,0 27.682,12.404 27.682,27.682l250.636,0c0,-15.278 12.404,-27.682 27.682,-27.682l0,-226.636Z"/></clipPath><g clip-path="url(#_clip1)"><g><path d="M39.453,3.919l-11.841,0l-5.844,5.538l11.904,0l5.781,-5.538Z"/><g><path d="M256.674,272.608l11.84,-0l5.845,5.538l-11.904,-0l-5.781,-5.538Z"/><path d="M239.895,272.608l11.84,-0l5.845,5.538l-11.904,-0l-5.781,-5.538Z"/><path d="M223.116,272.608l11.84,-0l5.845,5.538l-11.904,-0l-5.781,-5.538Z"/><path d="M206.337,272.608l11.84,-0l5.845,5.538l-11.904,-0l-5.781,-5.538Z"/><path d="M189.558,272.608l11.84,-0l5.845,5.538l-11.904,-0l-5.781,-5.538Z"/><path d="M172.779,272.608l11.84,-0l5.845,5.538l-11.904,-0l-5.781,-5.538Z"/><path d="M156,272.608l11.84,-0l5.845,5.538l-11.904,-0l-5.781,-5.538Z"/><path d="M139.221,272.608l11.84,-0l5.845,5.538l-11.904,-0l-5.781,-5.538Z"/><path d="M122.442,272.608l11.84,-0l5.845,5.538l-11.904,-0l-5.781,-5.538Z"/><path d="M105.663,272.608l11.84,-0l5.845,5.538l-11.904,-0l-5.781,-5.538Z"/><path d="M88.884,272.608l11.84,-0l5.845,5.538l-11.904,-0l-5.781,-5.538Z"/><path d="M72.105,272.608l11.84,-0l5.845,5.538l-11.904,-0l-5.781,-5.538Z"/><path d="M55.326,272.608l11.84,-0l5.845,5.538l-11.904,-0l-5.781,-5.538Z"/><path d="M38.547,272.608l11.84,-0l5.845,5.538l-11.904,-0l-5.781,-5.538Z"/><path d="M21.768,272.608l11.84,-0l5.845,5.538l-11.904,-0l-5.781,-5.538Z"/></g><path d="M56.232,3.919l-11.841,0l-5.844,5.538l11.904,0l5.781,-5.538Z"/><path d="M73.011,3.919l-11.841,0l-5.844,5.538l11.904,0l5.781,-5.538Z"/><path d="M89.79,3.919l-11.841,0l-5.844,5.538l11.904,0l5.781,-5.538Z"/><path d="M106.569,3.919l-11.841,0l-5.844,5.538l11.904,0l5.781,-5.538Z"/><path d="M123.348,3.919l-11.841,0l-5.844,5.538l11.904,0l5.781,-5.538Z"/><path d="M140.127,3.919l-11.841,0l-5.844,5.538l11.904,0l5.781,-5.538Z"/><path d="M156.906,3.919l-11.841,0l-5.844,5.538l11.904,0l5.781,-5.538Z"/><path d="M173.685,3.919l-11.841,0l-5.844,5.538l11.904,0l5.781,-5.538Z"/><path d="M190.464,3.919l-11.841,0l-5.844,5.538l11.904,0l5.781,-5.538Z"/><path d="M207.243,3.919l-11.841,0l-5.844,5.538l11.904,0l5.781,-5.538Z"/><path d="M224.022,3.919l-11.841,0l-5.844,5.538l11.904,0l5.781,-5.538Z"/><path d="M240.801,3.919l-11.841,0l-5.844,5.538l11.904,0l5.781,-5.538Z"/><path d="M257.58,3.919l-11.841,0l-5.844,5.538l11.904,0l5.781,-5.538Z"/><path d="M274.359,3.919l-11.841,0l-5.844,5.538l11.904,0l5.781,-5.538Z"/><path d="M291.138,3.919l-11.841,0l-5.844,5.538l11.904,0l5.781,-5.538Z"/><path d="M291.138,272.608l-11.841,-0l-5.844,5.538l11.904,-0l5.781,-5.538Z"/><path d="M307.917,3.919l-11.84,0l-5.845,5.538l11.904,0l5.781,-5.538Z"/><path d="M307.917,272.608l-11.84,-0l-5.845,5.538l11.904,-0l5.781,-5.538Z"/></g></g><path d="M306,27.682c-15.278,-0 -27.682,-12.404 -27.682,-27.682l-250.636,0c-0,15.278 -12.404,27.682 -27.682,27.682l-0,226.636c15.278,0 27.682,12.404 27.682,27.682l250.636,0c0,-15.278 12.404,-27.682 27.682,-27.682l0,-226.636Zm-2.02,1.952l-0,222.732c-14.785,0.995 -26.619,12.829 -27.614,27.614c-0,-0 -246.732,-0 -246.732,-0c-0.995,-14.785 -12.829,-26.619 -27.614,-27.614c0,-0 0,-222.732 0,-222.732c14.785,-0.995 26.619,-12.829 27.614,-27.614c0,0 246.732,0 246.732,0c0.995,14.785 12.829,26.619 27.614,27.614Z"/></svg>