<?xml version="1.0" encoding="UTF-8" standalone="no"?><!DOCTYPE svg PUBLIC "-//W3C//DTD SVG 1.1//EN" "http://www.w3.org/Graphics/SVG/1.1/DTD/svg11.dtd"><svg width="100%" height="100%" viewBox="0 0 306 282" version="1.1" xmlns="http://www.w3.org/2000/svg" xmlns:xlink="http://www.w3.org/1999/xlink" xml:space="preserve" xmlns:serif="http://www.serif.com/" style="fill-rule:evenodd;clip-rule:evenodd;stroke-linejoin:round;stroke-miterlimit:2;"><path d="M306,27.682c-15.278,-0 -27.682,-12.404 -27.682,-27.682l-250.636,-0c-0,15.278 -12.404,27.682 -27.682,27.682l-0,226.636c15.278,0 27.682,12.404 27.682,27.682l250.636,-0c0,-15.278 12.404,-27.682 27.682,-27.682l0,-226.636Z" style="fill:#ebebeb;"/><path d="M27.549,279.279c0.088,0.895 0.133,1.803 0.133,2.721l1.275,-0l-0,-1l-0.293,0c-0.008,-0.263 -0.021,-0.524 -0.037,-0.785l-0.061,-0.998l-1.017,0.062Zm7.408,2.721l-0,-1l-4,0l-0,1l4,-0Zm6,-0l-0,-1l-4,0l-0,1l4,-0Zm6,-0l-0,-1l-4,-0l-0,1l4,-0Zm2,-0l4,-0l-0,-1l-4,-0l-0,1Zm10,-0l-0,-1l-4,0l-0,1l4,-0Zm6,-0l-0,-1l-4,-0l-0,1l4,-0Zm6,-0l-0,-1l-4,0l-0,1l4,-0Zm6,-0l-0,-1l-4,0l-0,1l4,-0Zm6,-0l-0,-1l-4,0l-0,1l4,-0Zm6,-0l-0,-1l-4,0l-0,1l4,-0Zm6,-0l-0,-1l-4,0l-0,1l4,-0Zm6,-0l-0,-1l-4,0l-0,1l4,-0Zm6,-0l0,-1l-4,0l-0,1l4,-0Zm2,-0l4,-0l-0,-1l-4,0l-0,1Zm6,-0l3.999,-0l0,-1l-3.999,0l-0,1Zm10,-0l-0,-1l-4,0l-0,1l4,-0Zm6,-0l-0,-1l-4,0l-0,1l4,-0Zm6,-0l-0,-1l-4,0l-0,1l4,-0Zm6,-0l-0,-1l-4,0l-0,1l4,-0Zm6,-0l-0,-1l-4,0l-0,1l4,-0Zm6,-0l-0,-1l-4,-0l-0,1l4,-0Zm6,-0l-0,-1l-4,-0l-0,1l4,-0Zm2,-0l4,-0l0,-1l-4,-0l0,1Zm10,-0l-0,-1l-4,0l0,1l4,-0Zm6,-0l-0,-1l-4,0l-0,1l4,-0Zm6,-0l-0,-1l-4,0l-0,1l4,-0Zm6,-0l-0,-1l-4.001,0l0,1l4.001,-0Zm6,-0l-0,-1l-4.001,0l0,1l4.001,-0Zm5.999,-0l0,-1l-4,0l0,1l4,-0Zm2,-0l4,-0l0,-1l-4,0l0,1Zm10,-0l0,-1l-4,0l0,1l4,-0Zm6,-0l0,-1l-4,0l0,1l4,-0Zm6,-0l0,-1l-4,0l0,1l4,-0Zm6,-0l0,-1l-4,0l0,1l4,-0Zm6,-0l0,-1l-4,0l0,1l4,-0Zm6,-0l0,-1l-4,0l0,1l4,-0Zm6,-0l0,-1l-4,0l0,1l4,-0Zm6,-0l0,-1l-4,0l0,1l4,-0Zm2,-0l4,-0l0,-1l-4,0l0,1Zm10,-0l0,-1l-4,0l0,1l4,-0Zm6,-0l0,-1l-4,0l0,1l4,-0Zm3.487,-2.635l-1.017,-0.059l-0.058,0.998c-0.014,0.232 -0.025,0.463 -0.032,0.696l-0.38,-0l0,1l1.362,-0c0,-0.889 0.042,-1.769 0.125,-2.635Zm1.207,-5.865l-0.98,-0.277l-0.272,0.962c-0.187,0.662 -0.352,1.333 -0.492,2.014l-0.201,0.979l0.998,0.205c0.223,-1.328 0.541,-2.625 0.947,-3.883Zm-253.327,-0.082c0.41,1.257 0.732,2.552 0.96,3.88l0.997,-0.208l-0.205,-0.979c-0.142,-0.68 -0.308,-1.351 -0.497,-2.012l-0.276,-0.961l-0.979,0.28Zm255.776,-5.382l-0.897,-0.483l-0.474,0.881c-0.327,0.606 -0.632,1.226 -0.916,1.858l-0.409,0.913l0.93,0.417c0.503,-1.243 1.094,-2.441 1.766,-3.586Zm-258.241,-0.075c0.674,1.143 1.269,2.339 1.777,3.58l0.928,-0.419l-0.412,-0.911c-0.286,-0.631 -0.593,-1.25 -0.922,-1.856l-0.476,-0.879l-0.895,0.485Zm261.807,-4.735l-0.772,-0.664l-0.652,0.758c-0.449,0.524 -0.881,1.064 -1.292,1.619l-0.596,0.803l0.818,0.607c0.756,-1.101 1.591,-2.145 2.494,-3.123Zm-265.389,-0.064c0.907,0.975 1.744,2.017 2.504,3.115l0.816,-0.609l-0.598,-0.801c-0.414,-0.554 -0.846,-1.093 -1.298,-1.615l-0.654,-0.756l-0.77,0.666Zm269.902,-3.873l-0.613,-0.813l-0.799,0.601c-0.552,0.416 -1.088,0.851 -1.608,1.305l-0.754,0.658l0.67,0.767c0.972,-0.912 2.009,-1.753 3.104,-2.518Zm-274.427,-0.05c1.097,0.761 2.138,1.6 3.112,2.509l0.667,-0.77l-0.755,-0.655c-0.522,-0.452 -1.06,-0.885 -1.613,-1.3l-0.801,-0.599l-0.61,0.815Zm279.679,-2.827l-0.424,-0.927l-0.91,0.416c-0.629,0.288 -1.247,0.598 -1.851,0.93l-0.877,0.48l0.489,0.893c1.14,-0.679 2.333,-1.279 3.573,-1.792Zm-284.939,-0.034c1.24,0.509 2.435,1.106 3.578,1.782l0.486,-0.895l-0.878,-0.477c-0.606,-0.33 -1.224,-0.638 -1.855,-0.924l-0.911,-0.413l-0.42,0.927Zm290.688,-1.64l-0.213,-0.996l-0.978,0.209c-0.679,0.145 -1.349,0.314 -2.01,0.506l-0.96,0.28l0.285,0.978c1.255,-0.416 2.549,-0.744 3.876,-0.977Zm-296.443,-0.015c1.327,0.229 2.622,0.553 3.879,0.965l0.281,-0.979l-0.961,-0.277c-0.661,-0.19 -1.331,-0.357 -2.011,-0.5l-0.978,-0.206l-0.21,0.997Zm301.264,-1.559l-1,0l-0,0.172c-0.305,0.01 -0.608,0.025 -0.91,0.045l-0.998,0.066l0.067,1.016c0.933,-0.096 1.882,-0.145 2.841,-0.145l-0,-1.154Zm-306,-0.087l-0,1.241c0.93,0 1.85,0.046 2.755,0.136l0.064,-1.016l-0.998,-0.063c-0.273,-0.017 -0.546,-0.03 -0.821,-0.039l-0,-0.259l-1,0Zm306,-5.913l-1,0l-0,4l1,0l-0,-4Zm-306,-0.087l-0,4l1,0l-0,-4l-1,0Zm306,-5.913l-1,0l-0,4l1,0l-0,-4Zm-306,-0.087l-0,4l1,0l-0,-4l-1,0Zm306,-5.913l-1,0l-0,4l1,0l-0,-4Zm-306,-0.087l-0,4l1,0l-0,-4l-1,0Zm306,-5.913l-1,0l-0,4l1,0l-0,-4Zm-306,-0.087l-0,4l1,0l-0,-4l-1,0Zm306,-5.913l-1,0l-0,4l1,0l-0,-4Zm-306,-0.087l-0,4l1,0l-0,-4l-1,0Zm306,-5.913l-1,0l-0,4l1,0l-0,-4Zm-306,-0.087l-0,4l1,0l-0,-4l-1,0Zm306,-5.913l-1,0l-0,4l1,0l-0,-4Zm-306,-0.087l-0,4l1,0l-0,-4l-1,0Zm306,-5.913l-1,0l-0,4l1,0l-0,-4Zm-306,-0.087l-0,4l1,0l-0,-4l-1,0Zm306,-5.913l-1,-0l-0,4l1,0l-0,-4Zm-306,-0.087l-0,4l1,0l-0,-4l-1,0Zm306,-5.913l-1,0l-0,4l1,0l-0,-4Zm-306,-0.087l-0,4l1,0l-0,-4l-1,0Zm306,-5.913l-1,0l-0,4l1,0l-0,-4Zm-306,-0.087l-0,4l1,0l-0,-4l-1,0Zm306,-5.913l-1,-0l-0,4l1,0l-0,-4Zm-306,-0.087l-0,4l1,0l-0,-4l-1,0Zm306,-5.913l-1,0l-0,4l1,0l-0,-4Zm-306,-0.087l-0,4l1,0l-0,-4l-1,0Zm306,-5.913l-1,0l-0,4l1,-0l-0,-4Zm-306,-0.087l-0,4l1,0l-0,-4l-1,0Zm306,-5.913l-1,0l-0,4l1,0l-0,-4Zm-306,-0.087l-0,4l1,0l-0,-4l-1,0Zm306,-5.913l-1,-0l-0,4l1,0l-0,-4Zm-306,-0.087l-0,4l1,0l-0,-4l-1,0Zm306,-5.913l-1,-0l-0,4l1,-0l-0,-4Zm-306,-0.087l-0,4l1,0l-0,-4l-1,0Zm306,-5.913l-1,-0l-0,4l1,-0l-0,-4Zm-306,-0.087l-0,4l1,0l-0,-4l-1,0Zm306,-5.913l-1,-0l-0,4l1,-0l-0,-4Zm-306,-0.087l-0,4l1,0l-0,-4l-1,0Zm306,-5.913l-1,-0l-0,4l1,-0l-0,-4Zm-306,-0.087l-0,4l1,0l-0,-4l-1,0Zm306,-5.913l-1,-0l-0,4l1,-0l-0,-4Zm-306,-0.087l-0,4l1,0l-0,-4l-1,0Zm306,-5.913l-1,-0l-0,4l1,-0l-0,-4Zm-306,-0.087l-0,4l1,0l-0,-4l-1,0Zm306,-5.913l-1,-0l-0,4l1,-0l-0,-4Zm-306,-0.087l-0,4l1,0l-0,-4l-1,0Zm306,-5.913l-1,-0l-0,4l1,-0l-0,-4Zm-306,-0.087l-0,4l1,0l-0,-4l-1,0Zm306,-5.913l-1,-0l-0,4l1,-0l-0,-4Zm-306,-0.087l-0,4l1,0l-0,-4l-1,0Zm306,-5.913l-1,-0l-0,4l1,-0l-0,-4Zm-306,-0.087l-0,4l1,0l-0,-4l-1,0Zm306,-5.913l-1,-0l-0,4l1,-0l-0,-4Zm-306,-0.087l-0,4l1,0l-0,-4l-1,0Zm306,-5.913l-1,-0l-0,4l1,-0l-0,-4Zm-306,-0.087l-0,4l1,0l-0,-4l-1,0Zm306,-5.913l-1,-0l-0,4l1,-0l-0,-4Zm-306,-0.087l-0,4l1,0l-0,-4l-1,0Zm306,-5.913l-1,-0l-0,4l1,-0l-0,-4Zm-306,-0.087l-0,4l1,0l-0,-4l-1,0Zm306,-5.913l-1,-0l-0,4l1,-0l-0,-4Zm-306,-0.087l-0,4.001l1,-0l-0,-4.001l-1,0Zm306,-5.913l-1,-0l-0,4l1,-0l-0,-4Zm-306,-0.086l-0,4l1,-0l-0,-4l-1,-0Zm306,-5.914l-1,-0l-0,4l1,-0l-0,-4Zm-306,-0.086l-0,4l1,-0l-0,-4l-1,-0Zm306,-5.914l-1,-0l-0,4l1,-0l-0,-4Zm-306,-0.086l-0,4l1,-0l-0,-4l-1,0Zm306,-5.914l-1,-0l-0,4l1,-0l-0,-4Zm-306,-0.086l-0,4l1,0l-0,-4l-1,0Zm306,-5.914l-1,-0l-0,4l1,-0l-0,-4Zm-306,-0.086l-0,4l1,-0l-0,-4l-1,-0Zm306,-5.914l-1,-0l-0,4l1,-0l-0,-4Zm-306,-0.086l-0,4l1,-0l-0,-4l-1,-0Zm303.006,-3.557l-0.073,1.016l0.997,0.071c0.355,0.025 0.712,0.044 1.07,0.056l-0,0.5l1,-0l-0,-1.482c-1.011,-0 -2.01,-0.055 -2.994,-0.161Zm-303.006,0.161l-0,1.396l1,-0l-0,-0.414c0.221,-0.007 0.441,-0.017 0.66,-0.03l0.999,-0.057l-0.059,-1.017c-0.856,0.081 -1.723,0.122 -2.6,0.122Zm8.467,-1.322c-1.259,0.405 -2.556,0.722 -3.884,0.943l0.204,0.998l0.98,-0.2c0.68,-0.139 1.352,-0.303 2.014,-0.489l0.962,-0.271l-0.276,-0.981Zm288.69,-0.123l-0.29,0.976l0.958,0.285c0.66,0.196 1.329,0.369 2.007,0.518l0.977,0.214l0.218,-0.995c-1.326,-0.24 -2.618,-0.576 -3.87,-0.998Zm-283.222,-2.318c-1.146,0.669 -2.345,1.259 -3.588,1.761l0.415,0.93l0.913,-0.408c0.632,-0.282 1.253,-0.587 1.86,-0.913l0.881,-0.473l-0.481,-0.897Zm277.79,-0.203l-0.495,0.891l0.875,0.485c0.602,0.335 1.218,0.648 1.846,0.94l0.907,0.421l0.429,-0.924c-1.236,-0.52 -2.425,-1.126 -3.562,-1.813Zm-272.976,-3.358c-0.979,0.902 -2.024,1.735 -3.126,2.49l0.606,0.819l0.804,-0.594c0.555,-0.411 1.096,-0.842 1.62,-1.291l0.759,-0.651l-0.663,-0.773Zm268.213,-0.271l-0.674,0.764l0.75,0.662c0.517,0.456 1.051,0.894 1.601,1.313l0.796,0.606l0.617,-0.81c-1.091,-0.77 -2.124,-1.618 -3.09,-2.535Zm-264.271,-4.237c-0.766,1.094 -1.609,2.131 -2.521,3.101l0.766,0.671l0.659,-0.753c0.454,-0.52 0.89,-1.056 1.306,-1.607l0.603,-0.798l-0.813,-0.614Zm260.393,-0.326l-0.822,0.602l0.592,0.807c0.408,0.557 0.837,1.099 1.284,1.625l0.647,0.762l0.776,-0.659c-0.898,-0.983 -1.726,-2.031 -2.477,-3.137Zm-257.509,-4.922c-0.514,1.238 -1.116,2.431 -1.797,3.57l0.893,0.491l0.481,-0.876c0.332,-0.605 0.643,-1.222 0.932,-1.851l0.417,-0.909l-0.926,-0.425Zm254.7,-0.367l-0.931,0.412l0.404,0.914c0.279,0.634 0.581,1.256 0.905,1.864l0.469,0.884l0.899,-0.478c-0.665,-1.149 -1.249,-2.35 -1.746,-3.596Zm-253.019,-5.38c-0.235,1.326 -0.564,2.62 -0.982,3.874l0.978,0.286l0.281,-0.959c0.193,-0.661 0.363,-1.33 0.509,-2.009l0.21,-0.978l-0.996,-0.214Zm251.421,-0.391l-0.998,0.2l0.196,0.981c0.136,0.681 0.296,1.353 0.48,2.016l0.267,0.964l0.981,-0.272c-0.398,-1.259 -0.709,-2.558 -0.926,-3.889Zm-249.875,-4.464l-1.12,-0c-0,0.325 -0.006,0.65 -0.017,0.97l0.017,0.03l-0.018,-0c-0.022,0.63 -0.066,1.255 -0.13,1.875l1.016,0.068l0.067,-0.997c0.021,-0.314 0.037,-0.629 0.048,-0.946l0.137,-0l-0,-1Zm248,-0l0,1l0.534,-0c0.006,0.179 0.013,0.358 0.023,0.536l0.053,0.999l1.016,-0.054c-0.044,-0.497 -0.075,-0.996 -0.092,-1.499l-0.018,0.018l0.017,-0.027c-0.011,-0.323 -0.017,-0.648 -0.017,-0.973l-1.516,-0Zm-194,-0l-4,-0l-0,1l4,-0l-0,-1Zm6,-0l-4,-0l-0,1l4,-0l-0,-1Zm6,-0l-4,-0l-0,1l4,-0l-0,-1Zm6,-0l-4,-0l-0,1l4,-0l-0,-1Zm6,-0l-4,-0l-0,1l4,-0l-0,-1Zm12,-0l-4,-0l0,1l4,-0l0,-1Zm6,-0l-4,-0l0,1l4,-0l0,-1Zm6,-0l-4,-0l-0,1l4,-0l-0,-1Zm6,-0l-4,-0l-0,1l4,-0l0,-1Zm6,-0l-4,-0l0,1l4,-0l0,-1Zm6,-0l-4,-0l0,1l4,-0l0,-1Zm-72,-0l-4,-0l-0,1l4,-0l-0,-1Zm84,-0l-4,-0l0,1l4,-0l0,-1Zm6.001,-0l-4,-0l-0,1l4,-0l-0,-1Zm6,-0l-4,-0l-0,1l4,-0l-0,-1Zm5.999,-0l-4,-0l0,1l4,-0l0,-1Zm6,-0l-4,-0l0,1l4,-0l0,-1Zm6,-0l-4,-0l0,1l4,-0l0,-1Zm6,-0l-4,-0l0,1l4,-0l0,-1Zm6,-0l-4,-0l0,1l4,-0l0,-1Zm6,-0l-4,-0l0,1l4,-0l0,-1Zm6,-0l-4,-0l0,1l4,-0l-0,-1Zm6,-0l-4,-0l0,1l4,-0l0,-1Zm6,-0l-4,-0l0,1l4,-0l0,-1Zm6,-0l-4,-0l-0,1l4,-0l-0,-1Zm6,-0l-4,-0l0,1l4,-0l-0,-1Zm6,-0l-4,-0l0,1l4,-0l0,-1Zm6.001,-0l-4,-0l-0,1l4,-0l-0,-1Zm6,-0l-4.001,-0l0,1l4.001,-0l-0,-1Zm6,-0l-4.001,-0l0,1l4.001,-0l-0,-1Zm5.999,-0l-4,-0l0,1l4,-0l0,-1Zm6,-0l-4,-0l0,1l4,-0l0,-1Zm-204,-0l-4,-0l-0,1l4,-0l-0,-1Zm-6,-0l-4,-0l-0,1l4,-0l-0,-1Zm-6,-0l-4,-0l-0,1l4,-0l-0,-1Zm-6,-0l-4,-0l-0,1l4,-0l-0,-1Zm-6,-0l-4,-0l-0,1l4,-0l-0,-1Zm-6,-0l-4,-0l-0,1l4,-0l-0,-1Zm-6,-0l-4,-0l-0,1l4,-0l-0,-1Zm120,-0l-4,-0l0,1l4,-0l0,-1Zm-42,-0l-4,-0l-0,1l4,-0l0,-1Z"/><g><g><path d="M281.852,20.201c0.527,1.38 2.005,2.017 3.289,1.387l6.6,-3.237l1.747,2.023c-1.071,1.312 -1.095,3.286 -0.012,4.54c1.144,1.324 3.089,1.342 4.344,0.04c1.256,-1.301 1.346,-3.43 0.202,-4.754c-0.785,-0.909 -1.947,-1.202 -3.005,-0.876l-2.141,-2.477l2.94,-1.442c0.845,0.714 2.03,0.899 3.108,0.371c1.571,-0.771 2.321,-2.765 1.676,-4.454c-0.646,-1.69 -2.443,-2.435 -4.014,-1.664c-1.487,0.729 -2.238,2.556 -1.766,4.182l-2.4,1.178l-4.806,-5.563c-0.934,-1.082 -2.544,-1.074 -3.569,-0.011l5.875,6.8l-8.068,3.957Zm14.241,0.633c0.859,0.176 1.399,1.085 1.206,2.031c-0.192,0.947 -1.045,1.572 -1.904,1.397c-0.86,-0.175 -1.4,-1.084 -1.207,-2.031c0.193,-0.946 1.046,-1.572 1.905,-1.397Zm2.004,-9.826c0.859,0.175 1.399,1.085 1.206,2.031c-0.193,0.947 -1.046,1.572 -1.905,1.397c-0.859,-0.175 -1.399,-1.084 -1.206,-2.031c0.193,-0.946 1.045,-1.572 1.905,-1.397Z" style="fill-rule:nonzero;"/><path d="M281.521,19.528c-0.348,0.17 -0.509,0.578 -0.37,0.941c0.691,1.808 2.638,2.618 4.32,1.793l6.081,-2.983c-0,0 0.989,1.146 0.989,1.146c-0.921,1.558 -0.808,3.619 0.367,4.98c0,-0 0.001,-0 0.001,-0c1.435,1.661 3.876,1.704 5.451,0.07c0,0 0,0 0,-0c1.522,-1.579 1.617,-4.16 0.23,-5.766c-0,0 -0,0 -0,0c-0.87,-1.007 -2.109,-1.412 -3.301,-1.218c-0,0 -1.209,-1.399 -1.209,-1.399c-0,-0 1.66,-0.815 1.66,-0.815c1.021,0.646 2.319,0.758 3.514,0.172c0,0 0,0 0,0c1.905,-0.934 2.829,-3.347 2.046,-5.395c0,-0 0,-0 0,-0c-0.81,-2.121 -3.073,-3.037 -5.044,-2.07c-0,0 -0,0 -0,0c-1.615,0.792 -2.525,2.645 -2.287,4.439c-0,-0 -1.359,0.666 -1.359,0.666c-0,0 -4.428,-5.124 -4.428,-5.124c-1.225,-1.418 -3.334,-1.435 -4.677,-0.041c-0.27,0.279 -0.282,0.717 -0.028,1.011l5.24,6.064c-0,-0 -7.196,3.529 -7.196,3.529Zm0.331,0.673c0.527,1.38 2.005,2.017 3.289,1.387l6.6,-3.237l1.747,2.023c-1.071,1.312 -1.095,3.286 -0.012,4.54c1.144,1.324 3.089,1.342 4.344,0.04c1.256,-1.301 1.346,-3.43 0.202,-4.754c-0.785,-0.909 -1.947,-1.202 -3.005,-0.876l-2.141,-2.477l2.94,-1.442c0.845,0.714 2.03,0.899 3.108,0.371c1.571,-0.771 2.321,-2.765 1.676,-4.454c-0.646,-1.69 -2.443,-2.435 -4.014,-1.664c-1.487,0.729 -2.238,2.556 -1.766,4.182l-2.4,1.178l-4.806,-5.563c-0.934,-1.082 -2.544,-1.074 -3.569,-0.011l5.875,6.8l-8.068,3.957Zm14.241,0.633c0.859,0.176 1.399,1.085 1.206,2.031c-0.192,0.947 -1.045,1.572 -1.904,1.397c-0.86,-0.175 -1.4,-1.084 -1.207,-2.031c0.193,-0.946 1.046,-1.572 1.905,-1.397Zm-0.149,0.735c0.474,0.097 0.727,0.624 0.621,1.147c-0.107,0.522 -0.546,0.908 -1.021,0.811c-0.474,-0.096 -0.727,-0.624 -0.621,-1.146c0.107,-0.522 0.546,-0.908 1.021,-0.812Zm2.153,-10.561c0.859,0.175 1.399,1.085 1.206,2.031c-0.193,0.947 -1.046,1.572 -1.905,1.397c-0.859,-0.175 -1.399,-1.084 -1.206,-2.031c0.193,-0.946 1.045,-1.572 1.905,-1.397Zm-0.15,0.735c0.474,0.097 0.727,0.624 0.621,1.147c-0.107,0.522 -0.546,0.908 -1.02,0.811c-0.475,-0.096 -0.728,-0.624 -0.621,-1.146c0.106,-0.522 0.546,-0.908 1.02,-0.812Z" style="fill:#fff;"/></g></g></svg>