<svg clip-rule="evenodd" fill-rule="evenodd" stroke-linejoin="round" stroke-miterlimit="2" viewBox="0 0 306 282" xmlns="http://www.w3.org/2000/svg" xmlns:xlink="http://www.w3.org/1999/xlink"><clipPath id="a"><path clip-rule="evenodd" d="m306 27.682c-15.278 0-27.682-12.404-27.682-27.682h-250.636c0 15.278-12.404 27.682-27.682 27.682v226.636c15.278 0 27.682 12.404 27.682 27.682h250.636c0-15.278 12.404-27.682 27.682-27.682v-226.636z"/></clipPath><path d="m306 27.682c-15.278 0-27.682-12.404-27.682-27.682h-250.636c0 15.278-12.404 27.682-27.682 27.682v226.636c15.278 0 27.682 12.404 27.682 27.682h250.636c0-15.278 12.404-27.682 27.682-27.682v-226.636z" fill="#f0ec93"/><path d="m306 27.682c-15.278 0-27.682-12.404-27.682-27.682h-250.636c0 15.278-12.404 27.682-27.682 27.682v226.636c15.278 0 27.682 12.404 27.682 27.682h250.636c0-15.278 12.404-27.682 27.682-27.682v-226.636zm-4 3.749v219.138c-14.29 1.803-25.628 13.141-27.431 27.431-28.785 0-214.353 0-243.138 0-1.803-14.29-13.141-25.628-27.431-27.431 0 0 0-189.934 0-219.138 14.29-1.803 25.628-13.141 27.431-27.431h243.138c1.803 14.29 13.141 25.628 27.431 27.431z"/><path d="m306 27.682c-15.278 0-27.682-12.404-27.682-27.682h-250.636c0 15.278-12.404 27.682-27.682 27.682v226.636c15.278 0 27.682 12.404 27.682 27.682h250.636c0-15.278 12.404-27.682 27.682-27.682v-226.636z" fill="none"/><g clip-path="url(#a)"><path d="m39.453 3.919h-11.841l-5.844 5.538h11.904z"/><path d="m256.674 272.608h11.84l5.845 5.538h-11.904z"/><path d="m239.895 272.608h11.84l5.845 5.538h-11.904z"/><path d="m223.116 272.608h11.84l5.845 5.538h-11.904z"/><path d="m206.337 272.608h11.84l5.845 5.538h-11.904z"/><path d="m189.558 272.608h11.84l5.845 5.538h-11.904z"/><path d="m172.779 272.608h11.84l5.845 5.538h-11.904z"/><path d="m156 272.608h11.84l5.845 5.538h-11.904z"/><path d="m139.221 272.608h11.84l5.845 5.538h-11.904z"/><path d="m122.442 272.608h11.84l5.845 5.538h-11.904z"/><path d="m105.663 272.608h11.84l5.845 5.538h-11.904z"/><path d="m88.884 272.608h11.84l5.845 5.538h-11.904z"/><path d="m72.105 272.608h11.84l5.845 5.538h-11.904z"/><path d="m55.326 272.608h11.84l5.845 5.538h-11.904z"/><path d="m38.547 272.608h11.84l5.845 5.538h-11.904z"/><path d="m21.768 272.608h11.84l5.845 5.538h-11.904z"/><path d="m56.232 3.919h-11.841l-5.844 5.538h11.904z"/><path d="m73.011 3.919h-11.841l-5.844 5.538h11.904z"/><path d="m89.79 3.919h-11.841l-5.844 5.538h11.904z"/><path d="m106.569 3.919h-11.841l-5.844 5.538h11.904z"/><path d="m123.348 3.919h-11.841l-5.844 5.538h11.904z"/><path d="m140.127 3.919h-11.841l-5.844 5.538h11.904z"/><path d="m156.906 3.919h-11.841l-5.844 5.538h11.904z"/><path d="m173.685 3.919h-11.841l-5.844 5.538h11.904z"/><path d="m190.464 3.919h-11.841l-5.844 5.538h11.904z"/><path d="m207.243 3.919h-11.841l-5.844 5.538h11.904z"/><path d="m224.022 3.919h-11.841l-5.844 5.538h11.904z"/><path d="m240.801 3.919h-11.841l-5.844 5.538h11.904z"/><path d="m257.58 3.919h-11.841l-5.844 5.538h11.904z"/><path d="m274.359 3.919h-11.841l-5.844 5.538h11.904z"/><path d="m291.138 3.919h-11.841l-5.844 5.538h11.904z"/><path d="m291.138 272.608h-11.841l-5.844 5.538h11.904z"/><path d="m307.917 3.919h-11.84l-5.845 5.538h11.904z"/><path d="m307.917 272.608h-11.84l-5.845 5.538h11.904z"/></g><path d="m306 27.682c-15.278 0-27.682-12.404-27.682-27.682h-250.636c0 15.278-12.404 27.682-27.682 27.682v226.636c15.278 0 27.682 12.404 27.682 27.682h250.636c0-15.278 12.404-27.682 27.682-27.682v-226.636zm-2.02 1.952v222.732c-14.785.995-26.619 12.829-27.614 27.614h-246.732c-.995-14.785-12.829-26.619-27.614-27.614v-222.732c14.785-.995 26.619-12.829 27.614-27.614h246.732c.995 14.785 12.829 26.619 27.614 27.614z"/></svg>