<svg clip-rule="evenodd" fill-rule="evenodd" stroke-linejoin="round" stroke-miterlimit="2" viewBox="0 0 306 282" xmlns="http://www.w3.org/2000/svg"><path d="m306 33.177c-14.948 0-27.084-12.136-27.084-27.083h-251.832c0 14.947-12.136 27.083-27.084 27.083v221.739c14.948 0 27.084 12.136 27.084 27.084h251.832c0-14.948 12.136-27.084 27.084-27.084z" fill="#ebebeb"/><path d="m26.988 279.715c.063.753.096 1.515.096 2.285h1.672v-.99h-.7c-.004-.118-.009-.236-.014-.354l-.047-.988zm7.708 2.285v-.99h-3.96v.99zm5.94 0v-.99h-3.96v.99zm5.939 0v-.99h-3.96v.99zm5.94 0v-.99h-3.96v.99zm5.94 0v-.99h-3.96v.99zm5.939 0v-.99h-3.959v.99zm1.98 0h3.96v-.99h-3.96zm9.9 0v-.99h-3.96v.99zm5.939 0v-.99h-3.959v.99zm5.94 0v-.99h-3.96v.99zm5.94 0v-.99h-3.96v.99zm5.939 0v-.99h-3.959v.99zm5.94 0v-.99h-3.96v.99zm5.94 0v-.99h-3.96v.99zm5.939 0v-.99h-3.959v.99zm5.94 0v-.99h-3.96v.99zm5.94 0v-.99h-3.96v.99zm5.94 0v-.99h-3.96v.99zm5.939 0v-.99h-3.959v.99zm1.98 0h3.96v-.99h-3.96zm9.9 0v-.99h-3.96v.99zm5.939 0v-.99h-3.959v.99zm5.94 0v-.99h-3.96v.99zm5.94 0v-.99h-3.96v.99zm5.939 0v-.99h-3.96v.99zm5.94 0v-.99h-3.96v.99zm5.939 0v-.99h-3.96v.99zm5.94 0v-.99h-3.96v.99zm5.939 0v-.99h-3.959v.99zm5.94 0v-.99h-3.96v.99zm5.94 0v-.99h-3.96v.99zm5.94 0v-.99h-3.96v.99zm5.939 0v-.99h-3.96v.99zm5.94 0v-.99h-3.96v.99zm5.94 0v-.99h-3.96v.99zm5.939 0v-.99h-3.96v.99zm5.94 0v-.99h-3.96v.99zm5.939 0v-.99h-3.959v.99zm5.94 0v-.99h-3.96v.99zm5.94 0v-.99h-3.96v.99zm1.98 0h3.959v-.99h-3.959zm9.899 0v-.99h-3.96v.99zm1.197-5.213-.996-.157-.154.978c-.106.671-.188 1.351-.245 2.037l-.082.986 1.005.084c.062-1.337.222-2.649.472-3.928zm-253.57-2.889c.391 1.248.694 2.535.902 3.852l.99-.193-.19-.972c-.132-.675-.289-1.341-.468-1.998l-.262-.955zm255.341-2.768-.938-.371-.364.92c-.251.634-.48 1.279-.685 1.935l-.296.944.962.302c.351-1.284.793-2.53 1.321-3.73zm-257.727-2.658c.658 1.138 1.235 2.327 1.725 3.561l.923-.406-.399-.906c-.276-.628-.574-1.244-.894-1.847l-.464-.875zm260.691-2.475-.834-.567-.556.819c-.384.565-.748 1.144-1.091 1.738l-.495.857.873.504c.621-1.171 1.324-2.29 2.103-3.351zm-264.201-2.302c.892.971 1.714 2.007 2.458 3.101l.812-.597-.586-.798c-.405-.551-.83-1.088-1.274-1.608l-.643-.753zm268.208-2.067-.692-.734-.72.68c-.497.469-.978.956-1.44 1.46l-.669.73.743.681c.856-1.005 1.785-1.946 2.778-2.817zm-272.667-1.839c1.083.758 2.109 1.593 3.069 2.497l.664-.758-.744-.652c-.515-.451-1.045-.883-1.592-1.295l-.79-.596zm277.524-1.559-.516-.867-.851.507c-.588.351-1.163.723-1.722 1.115l-.811.567.578.827c1.05-.794 2.16-1.513 3.322-2.149zm-282.725-1.286c1.228.505 2.41 1.098 3.539 1.771l.484-.884-.869-.476c-.598-.327-1.21-.634-1.835-.918l-.901-.41zm288.205-.973-.314-.958-.941.309c-.652.214-1.294.452-1.925.711l-.915.378.384.932c1.193-.544 2.433-1.004 3.711-1.372zm-293.901-.665c1.314.225 2.597.545 3.84.953l.279-.969-.952-.274c-.654-.188-1.318-.353-1.992-.494l-.968-.203zm299.743-.339-.097-1.004-.986.096c-.685.067-1.363.158-2.033.273l-.976.168.171.994c1.276-.268 2.586-.446 3.921-.527zm-304.34-1.371v1.32c.889 0 1.769.043 2.635.128l.061-1.007-.988-.059c-.239-.015-.478-.026-.718-.034v-.348h-.99zm306-2.958h-.99v3.959h.99zm-306-2.982v3.96h.99v-3.96zm306-2.958h-.99v3.96h.99zm-306-2.982v3.96h.99v-3.96zm306-2.958h-.99v3.96h.99zm-306-2.981v3.96h.99v-3.96zm306-2.958h-.99v3.959h.99zm-306-2.982v3.96h.99v-3.96zm306-2.958h-.99v3.96h.99zm-306-2.982v3.96h.99v-3.96zm306-2.958h-.99v3.96h.99zm-306-2.981v3.959h.99v-3.959zm306-2.958h-.99v3.959h.99zm-306-2.982v3.96h.99v-3.96zm306-2.958h-.99v3.96h.99zm-306-2.982v3.96h.99v-3.96zm306-2.958h-.99v3.96h.99zm-306-2.981v3.959h.99v-3.959zm306-2.958h-.99v3.959h.99zm-306-2.982v3.96h.99v-3.96zm306-2.958h-.99v3.96h.99zm-306-2.982v3.96h.99v-3.96zm306-2.958h-.99v3.96h.99zm-306-2.981v3.959h.99v-3.959zm306-2.958h-.99v3.959h.99zm-306-2.982v3.96h.99v-3.96zm306-2.958h-.99v3.96h.99zm-306-2.982v3.96h.99v-3.96zm306-2.958h-.99v3.96h.99zm-306-2.982v3.96h.99v-3.96zm306-2.957h-.99v3.959h.99zm-306-2.982v3.959h.99v-3.959zm306-2.958h-.99v3.96h.99zm-306-2.982v3.96h.99v-3.96zm306-2.958h-.99v3.96h.99zm-306-2.982v3.96h.99v-3.96zm306-2.958h-.99v3.96h.99zm-306-2.981v3.959h.99v-3.959zm306-2.959h-.99v3.96h.99zm-306-2.981v3.96h.99v-3.96zm306-2.958h-.99v3.96h.99zm-306-2.982v3.96h.99v-3.96zm306-2.958h-.99v3.96h.99zm-306-2.982v3.96h.99v-3.96zm306-2.958h-.99v3.96h.99zm-306-2.981v3.959h.99v-3.959zm306-2.958h-.99v3.959h.99zm-306-2.982v3.96h.99v-3.96zm306-2.958h-.99v3.96h.99zm-306-2.982v3.96h.99v-3.96zm306-2.958h-.99v3.96h.99zm-306-2.982v3.96h.99v-3.96zm306-2.957h-.99v3.959h.99zm-306-2.982v3.959h.99v-3.959zm306-2.958h-.99v3.96h.99zm-306-2.982v3.96h.99v-3.96zm306-2.958h-.99v3.96h.99zm-306-2.982v3.96h.99v-3.96zm306-2.957h-.99v3.96h.99zm-306-2.982v3.959h.99v-3.959zm306-2.958h-.99v3.96h.99zm-306-2.982v3.96h.99v-3.96zm306-2.958h-.99v3.96h.99zm-306-2.981v3.959h.99v-3.959zm306-2.958h-.99v3.959h.99zm-306-2.982v3.959h.99v-3.959zm306-2.958h-.99v3.96h.99zm-306-2.982v3.96h.99v-3.96zm306-2.958h-.99v3.96h.99zm-306-2.982v3.96h.99v-3.96zm306-2.957h-.99v3.959h.99zm-306-2.982v3.959h.99v-3.959zm306-2.958h-.99v3.96h.99zm-306-2.982v3.96h.99v-3.96zm303.036-.811-.073 1.006.987.071c.352.026.705.045 1.06.057v.679h.99v-1.652c-1.002 0-1.99-.054-2.964-.161zm-297.779-.35c-1.279.252-2.59.414-3.927.479l.085 1.004.986-.083c.687-.059 1.366-.142 2.037-.248l.978-.156zm291.993-.936-.291.966.948.285c.652.196 1.314.369 1.986.519l.966.214.219-.984c-1.312-.241-2.59-.577-3.828-1zm-286.339-.844c-1.199.529-2.444.974-3.728 1.326l.303.962.945-.297c.655-.206 1.3-.436 1.933-.688l.92-.366zm280.974-1.678-.494.878.862.486c.595.335 1.203.649 1.824.941l.896.421.429-.913c-1.221-.52-2.396-1.127-3.517-1.813zm-275.846-1.295c-1.059.78-2.178 1.486-3.348 2.108l.506.872.856-.496c.593-.344 1.172-.709 1.737-1.093l.817-.558zm271.159-2.334-.674.751.737.661c.509.456 1.034.895 1.575 1.314l.783.606.618-.798c-1.074-.77-2.09-1.618-3.039-2.534zm-266.797-1.68c-.869.994-1.809 1.925-2.812 2.783l.683.742.728-.671c.503-.463.99-.944 1.458-1.442l.678-.722zm263.004-2.876-.819.587.576.805c.399.557.817 1.098 1.254 1.623l.634.761.775-.645c-.88-.982-1.689-2.028-2.42-3.131zm-259.613-1.987c-.635 1.163-1.352 2.274-2.144 3.326l.827.577.567-.812c.391-.56.761-1.135 1.111-1.725l.506-.851zm256.901-3.283-.928.394.387.911c.268.632.559 1.251.872 1.858l.453.88.896-.461c-.643-1.145-1.206-2.342-1.68-3.582zm-254.651-2.201c-.366 1.279-.824 2.519-1.366 3.714l.932.382.376-.915c.259-.631.496-1.274.709-1.927l.307-.941zm253.157-3.536-.992.182.179.974c.123.676.272 1.345.443 2.004l.249.958.976-.254c-.375-1.253-.663-2.543-.855-3.864zm-252.163-2.307c-.079 1.335-.254 2.644-.52 3.922l.994.169.166-.976c.114-.67.204-1.349.269-2.034l.095-.985zm249.877-1.615v.99h1.031l.035 1 1.008-.035c-.024-.326-.041-.654-.053-.983l-.018.018.018-.028c-.012-.318-.018-.64-.018-.962zm-156.411 0h-3.959v.99h3.959zm-23.758 0h-3.96v.99h3.96zm11.879 0h-3.96v.99h3.96zm-35.638 0h-3.96v.99h3.96zm166.311 0h-3.96v.99h3.96zm-65.336 0h-3.96v.99h3.96zm-35.638 0h-3.96v.99h3.96zm41.577 0h-3.96v.99h3.96zm-89.095 0h-3.96v.99h3.96zm-41.578 0h-3.96v.99h3.96zm5.94 0h-3.96v.99h3.96zm5.939 0h-3.959v.99h3.959zm100.975 0h-3.959v.99h3.959zm-47.517 0h-3.96v.99h3.96zm-35.638 0h-3.96v.99h3.96zm5.939 0h-3.96v.99h3.96zm83.156 0h-3.96v.99h3.96zm65.336 0h-3.96v.99h3.96zm-5.94 0h-3.96v.99h3.96zm-23.758 0h-3.96v.99h3.96zm5.939 0h-3.96v.99h3.96zm5.94 0h-3.96v.99h3.96zm5.94 0h-3.96v.99h3.96zm-23.759 0h-3.96v.99h3.96zm-5.94 0h-3.96v.99h3.96zm-5.94 0h-3.959v.99h3.959zm59.397 0h-3.959v.99h3.959zm5.94 0h-3.96v.99h3.96zm-148.492 0h-3.959v.99h3.959zm-35.638 0h-3.96v.99h3.96zm89.096 0h-3.96v.99h3.96zm-5.94 0h-3.96v.99h3.96zm-106.915 0h-3.959v.99h3.959zm83.156 0h-3.96v.99h3.96zm130.673 0h-3.96v.99h3.96zm5.939 0h-3.959v.99h3.959zm5.94 0h-3.96v.99h3.96zm5.94 0h-3.96v.99h3.96zm-142.552 0h-3.96v.99h3.96zm11.879 0h-3.96v.99h3.96zm-106.914 0h-3.96v.99h3.96zm-5.94 0h-3.96v.99h3.96z"/><path d="m240.135 13.022c.758 1.035 2.265 1.307 3.348.583l5.568-3.726 2.025 1.355c-.754 1.244-.399 2.854.856 3.694 1.325.886 3.152.579 4.08-.688s.606-3.013-.72-3.9c-.909-.608-2.055-.654-2.984-.214l-2.48-1.659 2.48-1.659c.929.44 2.074.394 2.984-.214 1.326-.887 1.647-2.633.72-3.9-.929-1.267-2.755-1.574-4.08-.688-1.255.84-1.61 2.45-.856 3.694l-2.025 1.355-5.568-3.726c-1.083-.724-2.59-.452-3.348.583l6.807 4.555zm13.471-1.846c.838 0 1.518.65 1.518 1.452 0 .801-.68 1.451-1.518 1.451-.839 0-1.519-.65-1.519-1.451 0-.802.68-1.452 1.519-1.452zm0-8.322c.838 0 1.518.65 1.518 1.452s-.68 1.451-1.518 1.451c-.839 0-1.519-.649-1.519-1.451s.68-1.452 1.519-1.452z" fill-rule="nonzero"/><path d="m239.718 12.399c-.17.113-.286.292-.322.493-.035.201.013.408.134.573.989 1.351 2.957 1.709 4.37.763l5.151-3.447s1.074.719 1.074.719c-.512 1.458.004 3.124 1.39 4.051 1.658 1.109 3.941.717 5.102-.868 1.181-1.612.78-3.837-.908-4.966-1.004-.672-2.239-.795-3.313-.434.001 0-1.219-.816-1.219-.816s1.22-.816 1.22-.816c1.073.361 2.308.238 3.312-.434 1.688-1.129 2.089-3.353.908-4.966-1.162-1.585-3.445-1.977-5.102-.868-.001 0-.001 0-.001 0-1.385.927-1.901 2.593-1.389 4.051 0 0-1.074.719-1.074.719s-5.151-3.447-5.151-3.447c-1.413-.946-3.38-.588-4.37.763-.121.165-.169.372-.134.573.036.202.152.38.322.494l5.875 3.931s-5.875 3.932-5.875 3.932zm.417.623c.758 1.035 2.265 1.307 3.348.583l5.568-3.726 2.025 1.355c-.754 1.244-.399 2.854.856 3.694 1.325.886 3.152.579 4.08-.688s.606-3.013-.72-3.9c-.909-.608-2.055-.654-2.984-.214l-2.48-1.659 2.48-1.659c.929.44 2.074.394 2.984-.214 1.326-.887 1.647-2.633.72-3.9-.929-1.267-2.755-1.574-4.08-.688-1.255.84-1.61 2.45-.856 3.694l-2.025 1.355-5.568-3.726c-1.083-.724-2.59-.452-3.348.583l6.807 4.555zm13.471-1.846c.838 0 1.518.65 1.518 1.452 0 .801-.68 1.451-1.518 1.451-.839 0-1.519-.65-1.519-1.451 0-.802.68-1.452 1.519-1.452zm0 .75c.415 0 .768.305.768.702s-.353.701-.768.701c-.416 0-.769-.304-.769-.701s.353-.702.769-.702zm0-9.072c.838 0 1.518.65 1.518 1.452s-.68 1.451-1.518 1.451c-.839 0-1.519-.649-1.519-1.451s.68-1.452 1.519-1.452zm0 .75c.415 0 .768.305.768.702s-.353.701-.768.701c-.416 0-.769-.304-.769-.701s.353-.702.769-.702z" fill="#fff"/></svg>