<?xml version="1.0" encoding="UTF-8" standalone="no"?><!DOCTYPE svg PUBLIC "-//W3C//DTD SVG 1.1//EN" "http://www.w3.org/Graphics/SVG/1.1/DTD/svg11.dtd"><svg width="100%" height="100%" viewBox="0 0 46 46" version="1.1" xmlns="http://www.w3.org/2000/svg" xmlns:xlink="http://www.w3.org/1999/xlink" xml:space="preserve" xmlns:serif="http://www.serif.com/" style="fill-rule:evenodd;clip-rule:evenodd;"><rect x="8.047" y="8.341" width="35.471" height="34.899" style="fill:#fff;stroke:#1a1a1a;stroke-width:0.96px;"/><rect x="8.564" y="8.806" width="34.472" height="2.695" style="fill:#1a1a1a;"/><text x="9.116px" y="10.459px" style="font-family:'LucidaGrande-Bold', 'Lucida Grande', sans-serif;font-weight:600;font-size:1.432px;fill:#fff;">NLHF</text><rect x="6.098" y="6.22" width="35.471" height="34.899" style="fill:#fff;stroke:#1a1a1a;stroke-width:0.96px;"/><rect x="6.623" y="6.692" width="34.472" height="2.695" style="fill:#1a1a1a;"/><text x="7.175px" y="8.338px" style="font-family:'LucidaGrande-Bold', 'Lucida Grande', sans-serif;font-weight:600;font-size:1.432px;fill:#fff;">NLHF</text><rect x="3.918" y="4.098" width="35.471" height="34.899" style="fill:#fff;stroke:#1a1a1a;stroke-width:0.96px;"/><rect x="4.442" y="4.57" width="34.472" height="2.695" style="fill:#1a1a1a;"/><text x="4.987px" y="6.216px" style="font-family:'LucidaGrande-Bold', 'Lucida Grande', sans-serif;font-weight:600;font-size:1.432px;fill:#fff;">NLHF</text><rect x="1.977" y="1.977" width="35.471" height="34.899" style="fill:#fff;stroke:#1a1a1a;stroke-width:0.96px;"/><rect x="2.404" y="2.449" width="34.562" height="2.695" style="fill:#1a1a1a;"/><text x="3.046px" y="4.095px" style="font-family:'LucidaGrande-Bold', 'Lucida Grande', sans-serif;font-weight:600;font-size:1.432px;fill:#fff;">GOVUK</text><g transform="matrix(1,0,0,1,-451.721,-96.4793)"><g transform="matrix(1.00236,0,0,1,-1.0949,0)"><text x="464.609px" y="115.211px" style="font-family:'Arial-BoldMT', 'Arial', sans-serif;font-weight:700;font-size:3.471px;fill:#1a1a1a;">Label of</text></g><g transform="matrix(1.00236,0,0,1,-1.08647,0)"><text x="461.033px" y="119.051px" style="font-family:'Arial-BoldMT', 'Arial', sans-serif;font-weight:700;font-size:3.471px;fill:#1a1a1a;">compressed</text></g><g transform="matrix(1.00236,0,0,1,-1.10241,0)"><text x="467.796px" y="122.892px" style="font-family:'Arial-BoldMT', 'Arial', sans-serif;font-weight:700;font-size:3.471px;fill:#1a1a1a;">ﬂow</text></g></g></svg>