<?xml version="1.0" encoding="UTF-8" standalone="no"?><!DOCTYPE svg PUBLIC "-//W3C//DTD SVG 1.1//EN" "http://www.w3.org/Graphics/SVG/1.1/DTD/svg11.dtd"><svg width="100%" height="100%" viewBox="0 0 101 101" version="1.1" xmlns="http://www.w3.org/2000/svg" xmlns:xlink="http://www.w3.org/1999/xlink" xml:space="preserve" xmlns:serif="http://www.serif.com/" style="fill-rule:evenodd;clip-rule:evenodd;stroke-linejoin:round;stroke-miterlimit:2;"><path d="M91.206,24.693c2.717,-1.115 7.871,-1.18 7.871,3.542c0,4.729 -3.193,9.514 -10.668,10.781c-0.884,0.15 -1.419,1.012 -1.237,1.889c0.264,1.271 0.059,3.071 -2.263,4.647c-1.837,1.247 -7.15,1.116 -12.397,-0.459c-4.666,-1.4 -10.42,-1.326 -13.001,-1.203c-0.834,0.04 -1.614,-0.41 -1.987,-1.157c-0.524,-1.047 -0.098,-2.317 0.957,-2.825c6.136,-2.96 25.382,-12.201 32.725,-15.215Z" style="fill:#faebc8;fill-rule:nonzero;"/><path d="M58.481,39.907c6.136,-2.959 25.382,-12.2 32.725,-15.214c2.717,-1.115 7.871,-1.18 7.871,3.542c0,0.017 -0.001,0.034 -0.002,0.05l-41.592,14.298c-0.416,-1.017 -0.008,-2.191 0.998,-2.676Z" style="fill:#d2b991;fill-rule:nonzero;"/><path d="M9.344,24.693c-2.717,-1.115 -7.871,-1.18 -7.871,3.542c-0,4.729 3.194,9.514 10.669,10.781c0.883,0.15 1.419,1.012 1.237,1.889c-0.264,1.271 -0.06,3.071 2.262,4.647c1.837,1.247 7.15,1.116 12.398,-0.459c4.666,-1.4 10.419,-1.326 13,-1.203c0.834,0.04 1.614,-0.41 1.988,-1.157c0.523,-1.047 0.098,-2.317 -0.957,-2.825c-6.136,-2.96 -25.383,-12.201 -32.726,-15.215Z" style="fill:#faebc8;fill-rule:nonzero;"/><path d="M42.07,39.907c-6.136,-2.959 -25.382,-12.2 -32.726,-15.214c-2.717,-1.115 -7.871,-1.18 -7.871,3.542c-0,0.017 0.002,0.034 0.002,0.05l41.592,14.297c0.417,-1.016 0.009,-2.19 -0.997,-2.675Z" style="fill:#d2b991;fill-rule:nonzero;"/><g><ellipse cx="50.275" cy="31.385" rx="6.296" ry="7.871" style="fill:#5d5360;"/><ellipse cx="50.275" cy="62.87" rx="12.594" ry="17.317" style="fill:#5d5360;"/><circle cx="50.275" cy="43.979" r="11.019" style="fill:#5d5360;"/></g><g><circle cx="45.057" cy="30.888" r="2.653" style="fill:#4b3f4e;"/><circle cx="55.493" cy="30.888" r="2.653" style="fill:#4b3f4e;"/></g><path d="M40.56,73.889c2.31,3.846 5.804,6.297 9.715,6.297c3.911,0 7.405,-2.451 9.715,-6.297l-19.43,0Z" style="fill:#e6d2ac;fill-rule:nonzero;"/><path d="M50.275,50.275c-5.275,0 -9.678,-3.708 -10.76,-8.658c-0.166,0.761 -0.26,1.55 -0.26,2.361c0,6.086 4.934,11.02 11.02,11.02c6.086,-0 11.02,-4.934 11.02,-11.02c0,-0.811 -0.094,-1.6 -0.26,-2.361c-1.082,4.95 -5.485,8.658 -10.76,8.658Z" style="fill:#4b3f4e;fill-rule:nonzero;"/><g><path d="M37.681,62.869c0,1.64 0.177,3.22 0.487,4.723l24.215,0c0.31,-1.503 0.487,-3.083 0.487,-4.723c-0,-0.531 -0.024,-1.055 -0.058,-1.574l-25.073,0c-0.034,0.519 -0.058,1.043 -0.058,1.574Z" style="fill:#ffcd5f;fill-rule:nonzero;"/><path d="M50.275,37.681c5.275,0 9.678,3.708 10.76,8.659c0.166,-0.762 0.26,-1.551 0.26,-2.362c0,-6.086 -4.934,-11.02 -11.02,-11.02c-6.086,0 -11.02,4.934 -11.02,11.02c0,0.811 0.094,1.6 0.26,2.362c1.082,-4.951 5.485,-8.659 10.76,-8.659Z" style="fill:#ffcd5f;fill-rule:nonzero;"/></g><path d="M16.097,32.624l-2.496,-0.805c-0.775,-0.25 -1.604,0.175 -1.854,0.95c-0.25,0.774 0.176,1.604 0.95,1.853l2.497,0.805c0.15,0.049 0.302,0.072 0.452,0.072c0.622,-0 1.2,-0.397 1.402,-1.022c0.249,-0.774 -0.176,-1.604 -0.951,-1.853Z" style="fill-rule:nonzero;"/><path d="M98.303,23.635c-2.202,-1.477 -5.432,-1.217 -7.656,-0.304c-7.753,3.182 -24.662,11.847 -29.017,14.093l10.353,-16.269c0.437,-0.687 0.235,-1.597 -0.452,-2.034c-0.686,-0.437 -1.596,-0.234 -2.033,0.452l-10.104,15.878c-0.434,-0.463 -0.903,-0.893 -1.403,-1.287c0.987,-0.755 1.628,-1.94 1.628,-3.276c0,-1.853 -1.227,-3.423 -2.911,-3.943c-0.45,-1.154 -1.102,-2.152 -1.894,-2.941c5.517,-7.21 12.908,-8.466 13.004,-8.482c0.802,-0.124 1.353,-0.875 1.23,-1.677c-0.123,-0.805 -0.875,-1.357 -1.678,-1.234c-0.365,0.056 -8.766,1.426 -15.041,9.793c-0.655,-0.237 -1.345,-0.364 -2.054,-0.364c-0.709,-0 -1.399,0.127 -2.054,0.364c-6.275,-8.367 -14.675,-9.737 -15.041,-9.793c-0.803,-0.123 -1.555,0.43 -1.678,1.234c-0.123,0.804 0.43,1.555 1.234,1.678c0.077,0.012 7.447,1.215 13.001,8.481c-0.793,0.789 -1.445,1.787 -1.895,2.941c-1.684,0.52 -2.911,2.09 -2.911,3.943c-0,1.335 0.641,2.521 1.628,3.276c-0.499,0.394 -0.968,0.824 -1.402,1.287l-10.105,-15.878c-0.436,-0.686 -1.347,-0.888 -2.033,-0.452c-0.686,0.437 -0.889,1.347 -0.452,2.034l10.353,16.269c-4.354,-2.246 -21.264,-10.911 -29.017,-14.093c-2.223,-0.913 -5.453,-1.173 -7.656,0.304c-1.025,0.687 -2.247,2.043 -2.247,4.6c0,2.843 1.032,5.566 2.905,7.669c2.087,2.343 5.197,3.922 8.993,4.565c0.012,0.002 0.014,0.002 0.022,0.014c0.008,0.011 0.031,0.052 0.016,0.123c-0.286,1.379 -0.292,4.014 2.878,6.165c0.97,0.658 2.784,1.1 5.23,1.099c2.305,0 5.171,-0.392 8.418,-1.366c4.019,-1.206 7.444,-1.594 9.24,-1.718l-10.897,6.811c-0.793,0.496 -1.475,1.177 -1.97,1.97l-7.294,11.67c-0.431,0.69 -0.221,1.599 0.468,2.03c0.243,0.152 0.513,0.224 0.78,0.224c0.491,-0 0.971,-0.246 1.25,-0.693l7.294,-11.669c0.26,-0.417 0.617,-0.774 1.033,-1.034l10.027,-6.266c0.227,0.7 0.514,1.375 0.857,2.015l-9.823,11.226c-0.623,0.712 -1.08,1.571 -1.324,2.484l-6.013,22.55c-0.21,0.786 0.257,1.593 1.043,1.802c0.128,0.034 0.255,0.05 0.381,0.05c0.651,0 1.246,-0.435 1.422,-1.093l6.013,-22.55c0.128,-0.479 0.369,-0.93 0.695,-1.303l5.263,-6.014c-0.457,1.872 -0.698,3.848 -0.698,5.873c-0,4.935 1.41,9.591 3.97,13.112c2.663,3.661 6.249,5.678 10.097,5.678c3.847,0 7.433,-2.016 10.096,-5.678c2.561,-3.521 3.971,-8.177 3.971,-13.112c-0,-2.025 -0.242,-4.001 -0.699,-5.873l5.263,6.014c0.327,0.373 0.567,0.824 0.695,1.303l6.013,22.55c0.176,0.659 0.771,1.094 1.422,1.094c0.126,-0 0.254,-0.017 0.381,-0.05c0.786,-0.21 1.253,-1.017 1.043,-1.803l-6.013,-22.55c-0.243,-0.913 -0.701,-1.772 -1.324,-2.483l-9.823,-11.227c0.343,-0.64 0.63,-1.315 0.857,-2.015l10.027,6.266c0.416,0.26 0.773,0.618 1.033,1.034l7.294,11.67c0.28,0.447 0.76,0.692 1.251,0.692c0.266,0 0.536,-0.072 0.779,-0.224c0.69,-0.431 0.899,-1.34 0.468,-2.03l-7.294,-11.67c-0.495,-0.793 -1.177,-1.474 -1.97,-1.97l-10.894,-6.809c1.8,0.125 5.225,0.512 9.237,1.716c3.247,0.974 6.113,1.367 8.418,1.367c2.445,-0 4.261,-0.442 5.23,-1.1c3.171,-2.151 3.164,-4.786 2.878,-6.164c-0.015,-0.071 0.008,-0.113 0.016,-0.124c0.008,-0.011 0.01,-0.012 0.022,-0.014c3.796,-0.643 6.906,-2.222 8.993,-4.565c1.873,-2.103 2.904,-4.826 2.904,-7.669c0,-2.557 -1.222,-3.913 -2.247,-4.6Zm-40.157,39.133l3.249,-0c-0,0.034 0.001,0.067 0.001,0.101c0,1.114 -0.082,2.201 -0.236,3.25l-21.77,0c-0.154,-1.049 -0.236,-2.136 -0.236,-3.25c-0,-0.034 0.002,-0.067 0.002,-0.101l12.693,-0c0.813,-0 1.473,-0.659 1.473,-1.473c-0,-0.813 -0.66,-1.473 -1.473,-1.473l-12.487,0c0.343,-2.506 1.111,-4.845 2.253,-6.853c2.247,2.166 5.3,3.502 8.66,3.502c3.361,0 6.413,-1.336 8.661,-3.502c1.141,2.009 1.909,4.347 2.253,6.853l-3.043,0c-0.813,0 -1.473,0.66 -1.473,1.473c0,0.814 0.66,1.473 1.473,1.473Zm0.998,9.648l-17.737,0c-0.547,-1.027 -1.008,-2.151 -1.367,-3.351l20.47,-0c-0.359,1.2 -0.82,2.324 -1.366,3.351Zm0.114,-31.669l-1.563,0.504c-0.775,0.25 -1.2,1.08 -0.95,1.854c0.201,0.624 0.779,1.021 1.401,1.021c0.15,0 0.302,-0.023 0.452,-0.071l1.216,-0.392c0.004,0.105 0.008,0.209 0.008,0.315c0,5.264 -4.283,9.547 -9.547,9.547c-5.264,0 -9.547,-4.283 -9.547,-9.547c0,-0.106 0.005,-0.21 0.008,-0.315l1.216,0.392c0.15,0.048 0.302,0.071 0.452,0.071c0.622,0 1.2,-0.397 1.402,-1.021c0.249,-0.774 -0.176,-1.604 -0.95,-1.854l-1.564,-0.504c1.328,-3.679 4.853,-6.316 8.983,-6.316c4.131,0 7.656,2.637 8.983,6.316Zm-2.584,-9.859c-0,0.65 -0.529,1.18 -1.18,1.18c-0.65,-0 -1.18,-0.53 -1.18,-1.18c0,-0.65 0.53,-1.179 1.18,-1.179c0.651,-0 1.18,0.528 1.18,1.179Zm-11.618,-1.18c0.651,0 1.18,0.529 1.18,1.18c0,0.65 -0.529,1.18 -1.18,1.18c-0.65,-0 -1.179,-0.53 -1.179,-1.18c-0,-0.651 0.529,-1.18 1.179,-1.18Zm1.902,-2.477c0.778,-1.383 2.003,-2.246 3.317,-2.246c1.315,0 2.54,0.863 3.317,2.246c-1.319,0.689 -2.223,2.068 -2.223,3.657c-0,0.222 0.022,0.439 0.056,0.652c-0.379,-0.035 -0.762,-0.055 -1.15,-0.055c-0.387,0 -0.771,0.02 -1.15,0.055c0.035,-0.213 0.057,-0.43 0.057,-0.652c-0,-1.589 -0.904,-2.968 -2.224,-3.657Zm-19.343,16.451c-5.477,1.644 -9.993,1.434 -11.147,0.651c-1.354,-0.919 -1.893,-1.942 -1.647,-3.128c0.171,-0.828 0.001,-1.697 -0.468,-2.384c-0.461,-0.674 -1.158,-1.12 -1.963,-1.256c-3.129,-0.531 -5.648,-1.782 -7.285,-3.62c-1.413,-1.586 -2.159,-3.56 -2.159,-5.71c-0,-1.024 0.308,-1.728 0.942,-2.154c1.179,-0.79 3.416,-0.633 4.897,-0.025c6.445,2.645 19.767,9.372 26.184,12.652l-12.577,-4.055c-0.774,-0.249 -1.604,0.176 -1.854,0.95c-0.249,0.774 0.176,1.604 0.95,1.854l14.15,4.562c-2.042,0.237 -4.85,0.712 -8.023,1.663Zm22.66,35.031c-2.572,0 -4.942,-1.254 -6.828,-3.351l13.656,-0c-1.886,2.097 -4.255,3.351 -6.828,3.351Zm45.171,-44.768c-1.637,1.838 -4.157,3.089 -7.286,3.62c-0.805,0.136 -1.502,0.582 -1.962,1.256c-0.47,0.687 -0.64,1.556 -0.468,2.384c0.246,1.186 -0.293,2.209 -1.648,3.128c-1.154,0.783 -5.669,0.993 -11.147,-0.651c-3.173,-0.952 -5.981,-1.426 -8.024,-1.663l22.943,-7.396c0.774,-0.25 1.199,-1.08 0.949,-1.854c-0.249,-0.774 -1.079,-1.2 -1.853,-0.95l-21.368,6.889c6.416,-3.28 19.737,-10.006 26.183,-12.652c1.482,-0.608 3.719,-0.765 4.897,0.026c0.634,0.425 0.943,1.129 0.943,2.154c-0,2.149 -0.747,4.123 -2.159,5.709Z" style="fill-rule:nonzero;"/></svg>