<svg clip-rule="evenodd" fill-rule="evenodd" stroke-linejoin="round" stroke-miterlimit="2" viewBox="0 0 101 101" xmlns="http://www.w3.org/2000/svg"><path d="m91.206 24.693c2.717-1.115 7.871-1.18 7.871 3.542 0 4.729-3.193 9.514-10.668 10.781-.884.15-1.419 1.012-1.237 1.889.264 1.271.059 3.071-2.263 4.647-1.837 1.247-7.15 1.116-12.397-.459-4.666-1.4-10.42-1.326-13.001-1.203-.834.04-1.614-.41-1.987-1.157-.524-1.047-.098-2.317.957-2.825 6.136-2.96 25.382-12.201 32.725-15.215z" fill="#faebc8" fill-rule="nonzero"/><path d="m58.481 39.907c6.136-2.959 25.382-12.2 32.725-15.214 2.717-1.115 7.871-1.18 7.871 3.542 0 .017-.001.034-.002.05l-41.592 14.298c-.416-1.017-.008-2.191.998-2.676z" fill="#d2b991" fill-rule="nonzero"/><path d="m9.344 24.693c-2.717-1.115-7.871-1.18-7.871 3.542 0 4.729 3.194 9.514 10.669 10.781.883.15 1.419 1.012 1.237 1.889-.264 1.271-.06 3.071 2.262 4.647 1.837 1.247 7.15 1.116 12.398-.459 4.666-1.4 10.419-1.326 13-1.203.834.04 1.614-.41 1.988-1.157.523-1.047.098-2.317-.957-2.825-6.136-2.96-25.383-12.201-32.726-15.215z" fill="#faebc8" fill-rule="nonzero"/><path d="m42.07 39.907c-6.136-2.959-25.382-12.2-32.726-15.214-2.717-1.115-7.871-1.18-7.871 3.542 0 .017.002.034.002.05l41.592 14.297c.417-1.016.009-2.19-.997-2.675z" fill="#d2b991" fill-rule="nonzero"/><ellipse cx="50.275" cy="31.385" fill="#5d5360" rx="6.296" ry="7.871"/><ellipse cx="50.275" cy="62.87" fill="#5d5360" rx="12.594" ry="17.317"/><circle cx="50.275" cy="43.979" fill="#5d5360" r="11.019"/><circle cx="45.057" cy="30.888" fill="#4b3f4e" r="2.653"/><circle cx="55.493" cy="30.888" fill="#4b3f4e" r="2.653"/><g fill-rule="nonzero"><path d="m40.56 73.889c2.31 3.846 5.804 6.297 9.715 6.297s7.405-2.451 9.715-6.297z" fill="#e6d2ac"/><path d="m50.275 50.275c-5.275 0-9.678-3.708-10.76-8.658-.166.761-.26 1.55-.26 2.361 0 6.086 4.934 11.02 11.02 11.02s11.02-4.934 11.02-11.02c0-.811-.094-1.6-.26-2.361-1.082 4.95-5.485 8.658-10.76 8.658z" fill="#4b3f4e"/><path d="m37.681 62.869c0 1.64.177 3.22.487 4.723h24.215c.31-1.503.487-3.083.487-4.723 0-.531-.024-1.055-.058-1.574h-25.073c-.034.519-.058 1.043-.058 1.574z" fill="#ffcd5f"/><path d="m50.275 37.681c5.275 0 9.678 3.708 10.76 8.659.166-.762.26-1.551.26-2.362 0-6.086-4.934-11.02-11.02-11.02s-11.02 4.934-11.02 11.02c0 .811.094 1.6.26 2.362 1.082-4.951 5.485-8.659 10.76-8.659z" fill="#ffcd5f"/><path d="m16.097 32.624-2.496-.805c-.775-.25-1.604.175-1.854.95-.25.774.176 1.604.95 1.853l2.497.805c.15.049.302.072.452.072.622 0 1.2-.397 1.402-1.022.249-.774-.176-1.604-.951-1.853z"/><path d="m98.303 23.635c-2.202-1.477-5.432-1.217-7.656-.304-7.753 3.182-24.662 11.847-29.017 14.093l10.353-16.269c.437-.687.235-1.597-.452-2.034-.686-.437-1.596-.234-2.033.452l-10.104 15.878c-.434-.463-.903-.893-1.403-1.287.987-.755 1.628-1.94 1.628-3.276 0-1.853-1.227-3.423-2.911-3.943-.45-1.154-1.102-2.152-1.894-2.941 5.517-7.21 12.908-8.466 13.004-8.482.802-.124 1.353-.875 1.23-1.677-.123-.805-.875-1.357-1.678-1.234-.365.056-8.766 1.426-15.041 9.793-.655-.237-1.345-.364-2.054-.364s-1.399.127-2.054.364c-6.275-8.367-14.675-9.737-15.041-9.793-.803-.123-1.555.43-1.678 1.234s.43 1.555 1.234 1.678c.077.012 7.447 1.215 13.001 8.481-.793.789-1.445 1.787-1.895 2.941-1.684.52-2.911 2.09-2.911 3.943 0 1.335.641 2.521 1.628 3.276-.499.394-.968.824-1.402 1.287l-10.105-15.878c-.436-.686-1.347-.888-2.033-.452-.686.437-.889 1.347-.452 2.034l10.353 16.269c-4.354-2.246-21.264-10.911-29.017-14.093-2.223-.913-5.453-1.173-7.656.304-1.025.687-2.247 2.043-2.247 4.6 0 2.843 1.032 5.566 2.905 7.669 2.087 2.343 5.197 3.922 8.993 4.565.012.002.014.002.022.014.008.011.031.052.016.123-.286 1.379-.292 4.014 2.878 6.165.97.658 2.784 1.1 5.23 1.099 2.305 0 5.171-.392 8.418-1.366 4.019-1.206 7.444-1.594 9.24-1.718l-10.897 6.811c-.793.496-1.475 1.177-1.97 1.97l-7.294 11.67c-.431.69-.221 1.599.468 2.03.243.152.513.224.78.224.491 0 .971-.246 1.25-.693l7.294-11.669c.26-.417.617-.774 1.033-1.034l10.027-6.266c.227.7.514 1.375.857 2.015l-9.823 11.226c-.623.712-1.08 1.571-1.324 2.484l-6.013 22.55c-.21.786.257 1.593 1.043 1.802.128.034.255.05.381.05.651 0 1.246-.435 1.422-1.093l6.013-22.55c.128-.479.369-.93.695-1.303l5.263-6.014c-.457 1.872-.698 3.848-.698 5.873 0 4.935 1.41 9.591 3.97 13.112 2.663 3.661 6.249 5.678 10.097 5.678 3.847 0 7.433-2.016 10.096-5.678 2.561-3.521 3.971-8.177 3.971-13.112 0-2.025-.242-4.001-.699-5.873l5.263 6.014c.327.373.567.824.695 1.303l6.013 22.55c.176.659.771 1.094 1.422 1.094.126 0 .254-.017.381-.05.786-.21 1.253-1.017 1.043-1.803l-6.013-22.55c-.243-.913-.701-1.772-1.324-2.483l-9.823-11.227c.343-.64.63-1.315.857-2.015l10.027 6.266c.416.26.773.618 1.033 1.034l7.294 11.67c.28.447.76.692 1.251.692.266 0 .536-.072.779-.224.69-.431.899-1.34.468-2.03l-7.294-11.67c-.495-.793-1.177-1.474-1.97-1.97l-10.894-6.809c1.8.125 5.225.512 9.237 1.716 3.247.974 6.113 1.367 8.418 1.367 2.445 0 4.261-.442 5.23-1.1 3.171-2.151 3.164-4.786 2.878-6.164-.015-.071.008-.113.016-.124s.01-.012.022-.014c3.796-.643 6.906-2.222 8.993-4.565 1.873-2.103 2.904-4.826 2.904-7.669 0-2.557-1.222-3.913-2.247-4.6zm-40.157 39.133h3.249c0 .034.001.067.001.101 0 1.114-.082 2.201-.236 3.25h-21.77c-.154-1.049-.236-2.136-.236-3.25 0-.034.002-.067.002-.101h12.693c.813 0 1.473-.659 1.473-1.473 0-.813-.66-1.473-1.473-1.473h-12.487c.343-2.506 1.111-4.845 2.253-6.853 2.247 2.166 5.3 3.502 8.66 3.502 3.361 0 6.413-1.336 8.661-3.502 1.141 2.009 1.909 4.347 2.253 6.853h-3.043c-.813 0-1.473.66-1.473 1.473 0 .814.66 1.473 1.473 1.473zm.998 9.648h-17.737c-.547-1.027-1.008-2.151-1.367-3.351h20.47c-.359 1.2-.82 2.324-1.366 3.351zm.114-31.669-1.563.504c-.775.25-1.2 1.08-.95 1.854.201.624.779 1.021 1.401 1.021.15 0 .302-.023.452-.071l1.216-.392c.004.105.008.209.008.315 0 5.264-4.283 9.547-9.547 9.547s-9.547-4.283-9.547-9.547c0-.106.005-.21.008-.315l1.216.392c.15.048.302.071.452.071.622 0 1.2-.397 1.402-1.021.249-.774-.176-1.604-.95-1.854l-1.564-.504c1.328-3.679 4.853-6.316 8.983-6.316 4.131 0 7.656 2.637 8.983 6.316zm-2.584-9.859c0 .65-.529 1.18-1.18 1.18-.65 0-1.18-.53-1.18-1.18s.53-1.179 1.18-1.179c.651 0 1.18.528 1.18 1.179zm-11.618-1.18c.651 0 1.18.529 1.18 1.18 0 .65-.529 1.18-1.18 1.18-.65 0-1.179-.53-1.179-1.18 0-.651.529-1.18 1.179-1.18zm1.902-2.477c.778-1.383 2.003-2.246 3.317-2.246 1.315 0 2.54.863 3.317 2.246-1.319.689-2.223 2.068-2.223 3.657 0 .222.022.439.056.652-.379-.035-.762-.055-1.15-.055-.387 0-.771.02-1.15.055.035-.213.057-.43.057-.652 0-1.589-.904-2.968-2.224-3.657zm-19.343 16.451c-5.477 1.644-9.993 1.434-11.147.651-1.354-.919-1.893-1.942-1.647-3.128.171-.828.001-1.697-.468-2.384-.461-.674-1.158-1.12-1.963-1.256-3.129-.531-5.648-1.782-7.285-3.62-1.413-1.586-2.159-3.56-2.159-5.71 0-1.024.308-1.728.942-2.154 1.179-.79 3.416-.633 4.897-.025 6.445 2.645 19.767 9.372 26.184 12.652l-12.577-4.055c-.774-.249-1.604.176-1.854.95-.249.774.176 1.604.95 1.854l14.15 4.562c-2.042.237-4.85.712-8.023 1.663zm22.66 35.031c-2.572 0-4.942-1.254-6.828-3.351h13.656c-1.886 2.097-4.255 3.351-6.828 3.351zm45.171-44.768c-1.637 1.838-4.157 3.089-7.286 3.62-.805.136-1.502.582-1.962 1.256-.47.687-.64 1.556-.468 2.384.246 1.186-.293 2.209-1.648 3.128-1.154.783-5.669.993-11.147-.651-3.173-.952-5.981-1.426-8.024-1.663l22.943-7.396c.774-.25 1.199-1.08.949-1.854-.249-.774-1.079-1.2-1.853-.95l-21.368 6.889c6.416-3.28 19.737-10.006 26.183-12.652 1.482-.608 3.719-.765 4.897.026.634.425.943 1.129.943 2.154 0 2.149-.747 4.123-2.159 5.709z"/></g></svg>