<?xml version="1.0" encoding="UTF-8" standalone="no"?><!DOCTYPE svg PUBLIC "-//W3C//DTD SVG 1.1//EN" "http://www.w3.org/Graphics/SVG/1.1/DTD/svg11.dtd"><svg width="100%" height="100%" viewBox="0 0 686 16" version="1.1" xmlns="http://www.w3.org/2000/svg" xmlns:xlink="http://www.w3.org/1999/xlink" xml:space="preserve" xmlns:serif="http://www.serif.com/" style="fill-rule:evenodd;clip-rule:evenodd;stroke-linejoin:round;stroke-miterlimit:2;"><path d="M672.547,7.096c-0.088,0.811 -0.426,1.468 -1.018,1.969c-0.412,0.353 -0.868,0.575 -1.37,0.664c-0.501,0.088 -0.98,0.059 -1.438,-0.089c-0.456,-0.147 -0.855,-0.404 -1.195,-0.774c-0.338,-0.369 -0.566,-0.817 -0.686,-1.35c-0.059,-0.295 -0.088,-0.619 -0.088,-0.973c-0,-0.353 0.053,-0.691 0.155,-1.018c0.104,-0.324 0.265,-0.603 0.487,-0.839c0.221,-0.236 0.509,-0.383 0.861,-0.442c0.592,-0.118 1.048,0 1.374,0.354c0.324,0.354 0.53,0.78 0.619,1.281c-0.03,0.12 -0.045,0.297 -0.045,0.533c-0,0.206 0.096,0.33 0.287,0.375c0.192,0.043 0.347,-0.008 0.465,-0.155c0.089,-0.03 0.132,-0.132 0.132,-0.311c0,-0.175 -0.014,-0.308 -0.043,-0.397c0.118,-0.707 0.546,-1.106 1.283,-1.195c0.236,0.767 0.309,1.557 0.22,2.367Zm-6.436,-1.879c-0.191,0.53 -0.257,1.077 -0.198,1.637l-2.832,-0c0.029,-0.533 -0.036,-1.055 -0.199,-1.57c-0.163,-0.517 -0.45,-0.967 -0.862,-1.35c-0.472,-0.443 -1.048,-0.708 -1.726,-0.796c0.885,-0.501 1.83,-0.959 2.832,-1.372c0.59,-0.206 1.222,-0.399 1.9,-0.576c0.68,-0.177 1.366,-0.287 2.058,-0.33c0.694,-0.045 1.364,0.022 2.012,0.198c0.649,0.177 1.225,0.517 1.726,1.018c0.236,0.236 0.465,0.517 0.686,0.84c0.222,0.324 0.406,0.68 0.552,1.063c-0.619,0.088 -1.089,0.338 -1.415,0.75c-0.354,-0.619 -0.855,-1.039 -1.504,-1.261c-0.648,-0.22 -1.342,-0.065 -2.079,0.466c-0.442,0.324 -0.758,0.752 -0.951,1.283Zm-0.774,4.799c-0.236,0.782 -0.603,1.482 -1.107,2.101c-0.884,1.033 -1.937,1.741 -3.162,2.124c-1.224,0.383 -2.484,0.546 -3.783,0.485c-1.297,-0.059 -2.588,-0.308 -3.869,-0.75c-1.283,-0.442 -2.441,-0.973 -3.472,-1.594c-0.236,-0.146 -0.466,-0.293 -0.686,-0.442c-0.222,-0.148 -0.45,-0.309 -0.686,-0.486c1.002,-0.501 1.953,-1.084 2.853,-1.747c0.9,-0.664 1.777,-1.334 2.632,-2.014l8.094,-0c-0.027,0.029 -0.043,0.075 -0.043,0.134c-0.147,0.383 -0.369,0.685 -0.664,0.906c-0.295,0.222 -0.604,0.361 -0.93,0.42c-0.322,0.059 -0.654,0.024 -0.994,-0.11c-0.338,-0.134 -0.627,-0.375 -0.863,-0.731c-0.059,-0.116 -0.139,-0.183 -0.244,-0.198c-0.102,-0.014 -0.198,0.007 -0.286,0.066c-0.089,0.059 -0.156,0.132 -0.199,0.222c-0.045,0.089 -0.037,0.191 0.022,0.309c0.324,0.472 0.729,0.812 1.216,1.018c0.488,0.206 0.973,0.281 1.46,0.22c0.486,-0.059 0.936,-0.25 1.348,-0.574c0.415,-0.324 0.71,-0.766 0.887,-1.326c0.029,-0.059 0.051,-0.118 0.065,-0.179c0.015,-0.057 0.037,-0.116 0.066,-0.177l2.787,-0c-0.059,0.768 -0.206,1.543 -0.442,2.323Zm-19.42,-0.686c-0.619,-0.56 -1.238,-1.104 -1.857,-1.637l8.537,-0c-0.767,0.591 -1.541,1.165 -2.323,1.725c-0.781,0.562 -1.6,1.062 -2.455,1.506c-0.648,-0.501 -1.283,-1.034 -1.902,-1.594Zm-1.726,2.897c-1.002,0.222 -2.063,0.289 -3.183,0.2c-1.034,-0.088 -2.042,-0.295 -3.031,-0.619c-0.988,-0.324 -1.961,-0.707 -2.92,-1.15c-0.957,-0.444 -1.908,-0.929 -2.853,-1.46c-0.944,-0.53 -1.887,-1.033 -2.83,-1.505l13.491,-0c0.206,0.177 0.414,0.356 0.619,0.533c0.206,0.176 0.428,0.353 0.664,0.53c0.973,0.884 1.946,1.724 2.918,2.521c-0.911,0.413 -1.87,0.73 -2.875,0.95Zm-20.725,-6.59c-1.399,-0.222 -2.867,-0.096 -4.4,0.376l0.266,-0.399c0.972,-1.327 2.218,-2.329 3.737,-3.007c1.52,-0.678 3.076,-1.047 4.668,-1.106c1.297,-0.03 2.564,0.088 3.802,0.353c1.24,0.266 2.449,0.641 3.628,1.128c1.181,0.486 2.331,1.062 3.451,1.726c1.122,0.664 2.183,1.377 3.186,2.146l-14.156,-0c-1.385,-0.59 -2.778,-0.997 -4.182,-1.217Zm-4.4,1.217c1.062,-0.324 2.093,-0.472 3.097,-0.442c1.003,0.029 1.989,0.177 2.964,0.442l-6.061,-0Zm37.534,-1.152c0.487,-0.383 0.98,-0.75 1.483,-1.104c0.03,-0 0.044,-0.008 0.044,-0.024c-0,-0.014 0.015,-0.021 0.043,-0.021c0.591,-0.413 1.24,-0.619 1.947,-0.619c0.708,-0 1.268,0.34 1.681,1.018c0.326,0.53 0.487,1.165 0.487,1.902l-7.167,-0c0.503,-0.383 0.996,-0.769 1.482,-1.152Zm-596.534,1.152c0.973,-0.265 1.962,-0.413 2.964,-0.442c1.002,-0.03 2.036,0.118 3.097,0.442l-6.061,-0Zm-2.521,-0l-14.155,-0c1.002,-0.769 2.063,-1.482 3.185,-2.146c1.12,-0.664 2.27,-1.24 3.449,-1.726c1.179,-0.487 2.39,-0.862 3.628,-1.128c1.238,-0.265 2.506,-0.383 3.805,-0.353c1.591,0.059 3.146,0.428 4.667,1.106c1.517,0.678 2.763,1.68 3.738,3.007l0.265,0.399c-1.535,-0.472 -3.001,-0.598 -4.402,-0.376c-1.401,0.22 -2.795,0.627 -4.18,1.217Zm-4.557,2.344c-0.944,0.531 -1.895,1.016 -2.854,1.46c-0.957,0.443 -1.932,0.826 -2.918,1.15c-0.989,0.324 -1.999,0.531 -3.03,0.619c-1.123,0.089 -2.184,0.022 -3.186,-0.2c-1.002,-0.22 -1.961,-0.537 -2.875,-0.95c0.973,-0.797 1.947,-1.637 2.92,-2.521c0.236,-0.177 0.456,-0.354 0.663,-0.53c0.206,-0.177 0.412,-0.356 0.62,-0.533l13.492,-0c-0.944,0.472 -1.889,0.975 -2.832,1.505Zm-18.07,0.22c-0.782,-0.56 -1.557,-1.134 -2.323,-1.725l8.539,-0c-0.619,0.533 -1.238,1.077 -1.859,1.637c-0.619,0.56 -1.254,1.093 -1.903,1.594c-0.855,-0.444 -1.672,-0.944 -2.454,-1.506Zm1.018,2.522c-0.222,0.149 -0.45,0.296 -0.686,0.442c-1.034,0.621 -2.189,1.152 -3.473,1.594c-1.283,0.442 -2.574,0.691 -3.871,0.75c-1.297,0.061 -2.559,-0.102 -3.781,-0.485c-1.224,-0.383 -2.278,-1.091 -3.164,-2.124c-0.501,-0.619 -0.869,-1.319 -1.106,-2.101c-0.236,-0.78 -0.384,-1.555 -0.443,-2.323l2.789,-0c0.027,0.061 0.051,0.12 0.065,0.177c0.016,0.061 0.037,0.12 0.067,0.179c0.177,0.56 0.471,1.002 0.884,1.326c0.413,0.324 0.863,0.515 1.35,0.574c0.485,0.061 0.973,-0.014 1.458,-0.22c0.488,-0.206 0.892,-0.546 1.219,-1.018c0.059,-0.118 0.065,-0.22 0.021,-0.309c-0.045,-0.09 -0.11,-0.163 -0.198,-0.222c-0.089,-0.059 -0.185,-0.08 -0.289,-0.066c-0.102,0.015 -0.185,0.082 -0.244,0.198c-0.236,0.356 -0.523,0.597 -0.861,0.731c-0.34,0.134 -0.672,0.169 -0.996,0.11c-0.324,-0.059 -0.635,-0.198 -0.927,-0.42c-0.297,-0.221 -0.517,-0.523 -0.665,-0.906c0,-0.059 -0.015,-0.105 -0.045,-0.134l8.095,-0c0.857,0.68 1.733,1.35 2.633,2.014c0.898,0.663 1.849,1.246 2.854,1.747c-0.238,0.177 -0.466,0.338 -0.686,0.486Zm-16.854,-6.723c-0.192,-0.531 -0.509,-0.959 -0.951,-1.283c-0.737,-0.531 -1.431,-0.686 -2.079,-0.466c-0.651,0.222 -1.15,0.642 -1.505,1.261c-0.325,-0.412 -0.796,-0.662 -1.415,-0.75c0.147,-0.383 0.332,-0.739 0.552,-1.063c0.222,-0.323 0.45,-0.604 0.686,-0.84c0.501,-0.501 1.077,-0.841 1.725,-1.018c0.649,-0.176 1.321,-0.243 2.012,-0.198c0.694,0.043 1.38,0.153 2.058,0.33c0.678,0.177 1.313,0.37 1.902,0.576c1.003,0.413 1.948,0.871 2.832,1.372c-0.68,0.088 -1.254,0.353 -1.725,0.796c-0.413,0.383 -0.702,0.833 -0.863,1.35c-0.163,0.515 -0.23,1.037 -0.2,1.57l-2.83,-0c0.059,-0.56 -0.008,-1.107 -0.199,-1.637Zm-0.731,2.299c-0.118,0.533 -0.346,0.981 -0.686,1.35c-0.338,0.37 -0.737,0.627 -1.193,0.774c-0.457,0.148 -0.937,0.177 -1.438,0.089c-0.501,-0.089 -0.959,-0.311 -1.372,-0.664c-0.589,-0.501 -0.927,-1.158 -1.016,-1.969c-0.09,-0.81 -0.016,-1.6 0.22,-2.367c0.737,0.089 1.166,0.488 1.284,1.195c-0.03,0.089 -0.046,0.222 -0.046,0.397c0,0.179 0.046,0.281 0.134,0.311c0.118,0.147 0.273,0.198 0.464,0.155c0.192,-0.045 0.287,-0.169 0.287,-0.375c-0,-0.236 -0.014,-0.413 -0.044,-0.533c0.089,-0.501 0.295,-0.927 0.62,-1.281c0.324,-0.354 0.782,-0.472 1.371,-0.354c0.354,0.059 0.641,0.206 0.863,0.442c0.22,0.236 0.383,0.515 0.485,0.839c0.105,0.327 0.156,0.665 0.156,1.018c-0,0.354 -0.03,0.678 -0.089,0.973Zm8.671,-2.963c0.029,-0 0.045,0.007 0.045,0.021c-0,0.016 0.014,0.024 0.043,0.024c0.501,0.354 0.996,0.721 1.482,1.104c0.487,0.383 0.98,0.769 1.482,1.152l-7.166,-0c0,-0.737 0.162,-1.372 0.486,-1.902c0.413,-0.678 0.975,-1.018 1.682,-1.018c0.708,-0 1.356,0.206 1.946,0.619Zm658,0.045c-0.147,-0.413 -0.383,-0.753 -0.707,-1.018c-0.295,-0.236 -0.635,-0.413 -1.018,-0.531c-0.383,-0.118 -0.753,-0.155 -1.107,-0.112c-0.353,0.045 -0.685,0.171 -0.994,0.377c-0.311,0.207 -0.554,0.502 -0.731,0.885c-0.089,0.236 -0.014,0.428 0.222,0.576c0.236,0.147 0.399,0.102 0.487,-0.134c0.118,-0.265 0.295,-0.48 0.531,-0.641c0.236,-0.161 0.485,-0.257 0.751,-0.289c0.265,-0.027 0.53,0.008 0.798,0.112c0.263,0.103 0.485,0.274 0.662,0.509c0.238,0.266 0.375,0.568 0.42,0.906c0.046,0.34 0.016,0.657 -0.088,0.952c-0.104,0.294 -0.279,0.53 -0.531,0.707c-0.249,0.177 -0.581,0.252 -0.996,0.222c-0.531,-0.029 -1.053,-0.139 -1.57,-0.332c-0.515,-0.193 -1.032,-0.399 -1.549,-0.619c-0.515,-0.222 -1.024,-0.458 -1.525,-0.708c-0.501,-0.251 -1.002,-0.465 -1.503,-0.642c-0.503,-0.177 -1.077,-0.362 -1.726,-0.552c-0.648,-0.193 -1.267,-0.303 -1.859,-0.332c-0.177,-0.443 -0.375,-0.855 -0.597,-1.239c-0.22,-0.383 -0.493,-0.723 -0.818,-1.018c-1.002,-0.972 -2.146,-1.519 -3.429,-1.637c-1.281,-0.117 -2.586,0.022 -3.915,0.421c-1.326,0.399 -2.609,0.951 -3.847,1.659c-1.238,0.707 -2.3,1.371 -3.186,1.99c-0.59,0.413 -1.187,0.857 -1.79,1.327c-0.606,0.472 -1.203,0.945 -1.793,1.417l-10.527,-0c-0.236,-0.177 -0.48,-0.362 -0.731,-0.554c-0.25,-0.191 -0.493,-0.376 -0.729,-0.553c-1.238,-0.854 -2.522,-1.658 -3.85,-2.411c-1.327,-0.753 -2.726,-1.348 -4.202,-1.792c-1.857,-0.59 -3.775,-0.877 -5.75,-0.863c-1.975,0.016 -3.834,0.495 -5.573,1.439c-0.975,0.53 -1.918,1.238 -2.832,2.124c-0.914,0.884 -1.503,1.887 -1.771,3.007l0,-0.397l-550.217,-0c-0.303,-0.963 -0.855,-1.832 -1.659,-2.61c-0.915,-0.886 -1.859,-1.594 -2.832,-2.124c-1.739,-0.944 -3.598,-1.423 -5.573,-1.439c-1.977,-0.014 -3.893,0.273 -5.75,0.863c-1.476,0.444 -2.877,1.039 -4.204,1.792c-1.326,0.753 -2.609,1.557 -3.847,2.411c-0.236,0.177 -0.48,0.362 -0.731,0.553c-0.25,0.192 -0.494,0.377 -0.73,0.554l-10.527,-0c-0.592,-0.472 -1.189,-0.945 -1.792,-1.417c-0.606,-0.47 -1.203,-0.914 -1.793,-1.327c-0.884,-0.619 -1.945,-1.283 -3.183,-1.99c-1.24,-0.708 -2.522,-1.26 -3.85,-1.659c-1.327,-0.399 -2.631,-0.538 -3.915,-0.421c-1.283,0.118 -2.425,0.665 -3.427,1.637c-0.326,0.295 -0.597,0.635 -0.82,1.018c-0.22,0.384 -0.42,0.796 -0.597,1.239c-0.589,0.029 -1.209,0.139 -1.857,0.332c-0.649,0.19 -1.224,0.375 -1.726,0.552c-0.501,0.177 -1.002,0.391 -1.503,0.642c-0.501,0.25 -1.01,0.486 -1.527,0.708c-0.517,0.22 -1.032,0.426 -1.548,0.619c-0.515,0.193 -1.04,0.303 -1.571,0.332c-0.412,0.03 -0.744,-0.045 -0.994,-0.222c-0.252,-0.177 -0.428,-0.413 -0.531,-0.707c-0.104,-0.295 -0.133,-0.612 -0.088,-0.952c0.043,-0.338 0.183,-0.64 0.421,-0.906c0.176,-0.235 0.397,-0.406 0.662,-0.509c0.265,-0.104 0.53,-0.139 0.796,-0.112c0.265,0.032 0.517,0.128 0.752,0.289c0.236,0.161 0.413,0.376 0.531,0.641c0.088,0.236 0.25,0.281 0.487,0.134c0.236,-0.148 0.309,-0.34 0.22,-0.576c-0.176,-0.383 -0.42,-0.678 -0.729,-0.885c-0.31,-0.206 -0.642,-0.332 -0.996,-0.377c-0.354,-0.043 -0.721,-0.006 -1.104,0.112c-0.386,0.118 -0.724,0.295 -1.018,0.531c-0.325,0.265 -0.56,0.605 -0.708,1.018c-0.149,0.412 -0.2,0.833 -0.155,1.259c0.043,0.429 0.183,0.828 0.42,1.195c0.236,0.37 0.574,0.613 1.018,0.729c0.56,0.177 1.15,0.201 1.769,0.067c0.619,-0.131 1.238,-0.324 1.857,-0.574c0.619,-0.251 1.225,-0.524 1.814,-0.819c0.59,-0.295 1.136,-0.546 1.637,-0.753c0.413,-0.147 0.936,-0.338 1.57,-0.574c0.635,-0.235 1.262,-0.383 1.881,-0.442c-0.177,0.767 -0.222,1.541 -0.134,2.321c0.089,0.782 0.34,1.484 0.753,2.103c0.295,0.413 0.656,0.745 1.083,0.994c0.428,0.252 0.886,0.405 1.372,0.466c0.487,0.059 0.966,0.029 1.438,-0.09c0.472,-0.116 0.914,-0.323 1.327,-0.619c0.353,-0.266 0.648,-0.633 0.884,-1.105c0.383,1.946 1.246,3.516 2.588,4.711c1.342,1.195 3.06,1.88 5.155,2.055c1.208,0.091 2.417,0.008 3.626,-0.241c1.208,-0.252 2.36,-0.627 3.45,-1.128c0.737,-0.325 1.415,-0.678 2.034,-1.064c0.621,-0.381 1.225,-0.796 1.814,-1.238c0.325,0.148 0.672,0.295 1.04,0.442c0.369,0.15 0.745,0.281 1.128,0.399c1.032,0.325 2.057,0.502 3.075,0.531c1.018,0.029 2.028,-0.045 3.031,-0.22c1.002,-0.177 1.99,-0.444 2.963,-0.798c0.973,-0.354 1.932,-0.766 2.875,-1.238c1.032,-0.531 2.072,-1.091 3.119,-1.68c1.048,-0.59 2.115,-1.122 3.207,-1.594l559.839,-0l0,-0.157c0.02,0.033 0.048,0.059 0.091,0.069c0.118,0.029 0.295,0.06 0.53,0.088l9.113,-0c1.091,0.472 2.16,1.004 3.207,1.594c1.046,0.589 2.085,1.149 3.119,1.68c0.943,0.472 1.902,0.884 2.875,1.238c0.973,0.354 1.961,0.621 2.964,0.798c1.002,0.175 2.012,0.249 3.03,0.22c1.016,-0.029 2.042,-0.206 3.073,-0.531c0.384,-0.118 0.761,-0.249 1.129,-0.399c0.369,-0.147 0.715,-0.294 1.039,-0.442c0.592,0.442 1.195,0.857 1.814,1.238c0.619,0.386 1.297,0.739 2.034,1.064c1.093,0.501 2.242,0.876 3.451,1.128c1.21,0.249 2.419,0.332 3.628,0.241c2.094,-0.175 3.812,-0.86 5.152,-2.055c1.343,-1.195 2.207,-2.765 2.589,-4.711c0.237,0.472 0.53,0.839 0.884,1.105c0.414,0.296 0.857,0.503 1.328,0.619c0.472,0.119 0.951,0.149 1.437,0.09c0.487,-0.061 0.945,-0.214 1.372,-0.466c0.428,-0.249 0.79,-0.581 1.084,-0.994c0.413,-0.619 0.663,-1.321 0.751,-2.103c0.088,-0.78 0.045,-1.554 -0.132,-2.321c0.619,0.059 1.246,0.207 1.879,0.442c0.635,0.236 1.158,0.427 1.572,0.574c0.501,0.207 1.046,0.458 1.635,0.753c0.592,0.295 1.195,0.568 1.814,0.819c0.621,0.25 1.24,0.443 1.859,0.574c0.619,0.134 1.209,0.11 1.769,-0.067c0.442,-0.116 0.782,-0.359 1.018,-0.729c0.236,-0.367 0.375,-0.766 0.42,-1.195c0.044,-0.426 -0.007,-0.847 -0.155,-1.259Z" style="fill-rule:nonzero;"/></svg>