<svg clip-rule="evenodd" fill-rule="evenodd" stroke-linejoin="round" stroke-miterlimit="2" viewBox="0 0 686 16" xmlns="http://www.w3.org/2000/svg"><path d="m672.547 7.096c-.088.811-.426 1.468-1.018 1.969-.412.353-.868.575-1.37.664-.501.088-.98.059-1.438-.089-.456-.147-.855-.404-1.195-.774-.338-.369-.566-.817-.686-1.35-.059-.295-.088-.619-.088-.973 0-.353.053-.691.155-1.018.104-.324.265-.603.487-.839.221-.236.509-.383.861-.442.592-.118 1.048 0 1.374.354.324.354.53.78.619 1.281-.03.12-.045.297-.045.533 0 .206.096.33.287.375.192.043.347-.008.465-.155.089-.03.132-.132.132-.311 0-.175-.014-.308-.043-.397.118-.707.546-1.106 1.283-1.195.236.767.309 1.557.22 2.367zm-6.436-1.879c-.191.53-.257 1.077-.198 1.637h-2.832c.029-.533-.036-1.055-.199-1.57-.163-.517-.45-.967-.862-1.35-.472-.443-1.048-.708-1.726-.796.885-.501 1.83-.959 2.832-1.372.59-.206 1.222-.399 1.9-.576.68-.177 1.366-.287 2.058-.33.694-.045 1.364.022 2.012.198.649.177 1.225.517 1.726 1.018.236.236.465.517.686.84.222.324.406.68.552 1.063-.619.088-1.089.338-1.415.75-.354-.619-.855-1.039-1.504-1.261-.648-.22-1.342-.065-2.079.466-.442.324-.758.752-.951 1.283zm-.774 4.799c-.236.782-.603 1.482-1.107 2.101-.884 1.033-1.937 1.741-3.162 2.124-1.224.383-2.484.546-3.783.485-1.297-.059-2.588-.308-3.869-.75-1.283-.442-2.441-.973-3.472-1.594-.236-.146-.466-.293-.686-.442-.222-.148-.45-.309-.686-.486 1.002-.501 1.953-1.084 2.853-1.747.9-.664 1.777-1.334 2.632-2.014h8.094c-.027.029-.043.075-.043.134-.147.383-.369.685-.664.906-.295.222-.604.361-.93.42-.322.059-.654.024-.994-.11-.338-.134-.627-.375-.863-.731-.059-.116-.139-.183-.244-.198-.102-.014-.198.007-.286.066-.089.059-.156.132-.199.222-.045.089-.037.191.022.309.324.472.729.812 1.216 1.018.488.206.973.281 1.46.22.486-.059.936-.25 1.348-.574.415-.324.71-.766.887-1.326.029-.059.051-.118.065-.179.015-.057.037-.116.066-.177h2.787c-.059.768-.206 1.543-.442 2.323zm-19.42-.686c-.619-.56-1.238-1.104-1.857-1.637h8.537c-.767.591-1.541 1.165-2.323 1.725-.781.562-1.6 1.062-2.455 1.506-.648-.501-1.283-1.034-1.902-1.594zm-1.726 2.897c-1.002.222-2.063.289-3.183.2-1.034-.088-2.042-.295-3.031-.619-.988-.324-1.961-.707-2.92-1.15-.957-.444-1.908-.929-2.853-1.46-.944-.53-1.887-1.033-2.83-1.505h13.491c.206.177.414.356.619.533.206.176.428.353.664.53.973.884 1.946 1.724 2.918 2.521-.911.413-1.87.73-2.875.95zm-20.725-6.59c-1.399-.222-2.867-.096-4.4.376l.266-.399c.972-1.327 2.218-2.329 3.737-3.007 1.52-.678 3.076-1.047 4.668-1.106 1.297-.03 2.564.088 3.802.353 1.24.266 2.449.641 3.628 1.128 1.181.486 2.331 1.062 3.451 1.726 1.122.664 2.183 1.377 3.186 2.146h-14.156c-1.385-.59-2.778-.997-4.182-1.217zm-4.4 1.217c1.062-.324 2.093-.472 3.097-.442 1.003.029 1.989.177 2.964.442zm37.534-1.152c.487-.383.98-.75 1.483-1.104.03 0 .044-.008.044-.024 0-.014.015-.021.043-.021.591-.413 1.24-.619 1.947-.619.708 0 1.268.34 1.681 1.018.326.53.487 1.165.487 1.902h-7.167c.503-.383.996-.769 1.482-1.152zm-596.534 1.152c.973-.265 1.962-.413 2.964-.442 1.002-.03 2.036.118 3.097.442zm-2.521 0h-14.155c1.002-.769 2.063-1.482 3.185-2.146 1.12-.664 2.27-1.24 3.449-1.726 1.179-.487 2.39-.862 3.628-1.128 1.238-.265 2.506-.383 3.805-.353 1.591.059 3.146.428 4.667 1.106 1.517.678 2.763 1.68 3.738 3.007l.265.399c-1.535-.472-3.001-.598-4.402-.376-1.401.22-2.795.627-4.18 1.217zm-4.557 2.344c-.944.531-1.895 1.016-2.854 1.46-.957.443-1.932.826-2.918 1.15-.989.324-1.999.531-3.03.619-1.123.089-2.184.022-3.186-.2-1.002-.22-1.961-.537-2.875-.95.973-.797 1.947-1.637 2.92-2.521.236-.177.456-.354.663-.53.206-.177.412-.356.62-.533h13.492c-.944.472-1.889.975-2.832 1.505zm-18.07.22c-.782-.56-1.557-1.134-2.323-1.725h8.539c-.619.533-1.238 1.077-1.859 1.637-.619.56-1.254 1.093-1.903 1.594-.855-.444-1.672-.944-2.454-1.506zm1.018 2.522c-.222.149-.45.296-.686.442-1.034.621-2.189 1.152-3.473 1.594-1.283.442-2.574.691-3.871.75-1.297.061-2.559-.102-3.781-.485-1.224-.383-2.278-1.091-3.164-2.124-.501-.619-.869-1.319-1.106-2.101-.236-.78-.384-1.555-.443-2.323h2.789c.027.061.051.12.065.177.016.061.037.12.067.179.177.56.471 1.002.884 1.326s.863.515 1.35.574c.485.061.973-.014 1.458-.22.488-.206.892-.546 1.219-1.018.059-.118.065-.22.021-.309-.045-.09-.11-.163-.198-.222-.089-.059-.185-.08-.289-.066-.102.015-.185.082-.244.198-.236.356-.523.597-.861.731-.34.134-.672.169-.996.11s-.635-.198-.927-.42c-.297-.221-.517-.523-.665-.906 0-.059-.015-.105-.045-.134h8.095c.857.68 1.733 1.35 2.633 2.014.898.663 1.849 1.246 2.854 1.747-.238.177-.466.338-.686.486zm-16.854-6.723c-.192-.531-.509-.959-.951-1.283-.737-.531-1.431-.686-2.079-.466-.651.222-1.15.642-1.505 1.261-.325-.412-.796-.662-1.415-.75.147-.383.332-.739.552-1.063.222-.323.45-.604.686-.84.501-.501 1.077-.841 1.725-1.018.649-.176 1.321-.243 2.012-.198.694.043 1.38.153 2.058.33s1.313.37 1.902.576c1.003.413 1.948.871 2.832 1.372-.68.088-1.254.353-1.725.796-.413.383-.702.833-.863 1.35-.163.515-.23 1.037-.2 1.57h-2.83c.059-.56-.008-1.107-.199-1.637zm-.731 2.299c-.118.533-.346.981-.686 1.35-.338.37-.737.627-1.193.774-.457.148-.937.177-1.438.089-.501-.089-.959-.311-1.372-.664-.589-.501-.927-1.158-1.016-1.969-.09-.81-.016-1.6.22-2.367.737.089 1.166.488 1.284 1.195-.03.089-.046.222-.046.397 0 .179.046.281.134.311.118.147.273.198.464.155.192-.045.287-.169.287-.375 0-.236-.014-.413-.044-.533.089-.501.295-.927.62-1.281.324-.354.782-.472 1.371-.354.354.059.641.206.863.442.22.236.383.515.485.839.105.327.156.665.156 1.018 0 .354-.03.678-.089.973zm8.671-2.963c.029 0 .045.007.045.021 0 .016.014.024.043.024.501.354.996.721 1.482 1.104.487.383.98.769 1.482 1.152h-7.166c0-.737.162-1.372.486-1.902.413-.678.975-1.018 1.682-1.018.708 0 1.356.206 1.946.619zm658 .045c-.147-.413-.383-.753-.707-1.018-.295-.236-.635-.413-1.018-.531s-.753-.155-1.107-.112c-.353.045-.685.171-.994.377-.311.207-.554.502-.731.885-.089.236-.014.428.222.576.236.147.399.102.487-.134.118-.265.295-.48.531-.641s.485-.257.751-.289c.265-.027.53.008.798.112.263.103.485.274.662.509.238.266.375.568.42.906.046.34.016.657-.088.952-.104.294-.279.53-.531.707-.249.177-.581.252-.996.222-.531-.029-1.053-.139-1.57-.332-.515-.193-1.032-.399-1.549-.619-.515-.222-1.024-.458-1.525-.708-.501-.251-1.002-.465-1.503-.642-.503-.177-1.077-.362-1.726-.552-.648-.193-1.267-.303-1.859-.332-.177-.443-.375-.855-.597-1.239-.22-.383-.493-.723-.818-1.018-1.002-.972-2.146-1.519-3.429-1.637-1.281-.117-2.586.022-3.915.421-1.326.399-2.609.951-3.847 1.659-1.238.707-2.3 1.371-3.186 1.99-.59.413-1.187.857-1.79 1.327-.606.472-1.203.945-1.793 1.417h-10.527c-.236-.177-.48-.362-.731-.554-.25-.191-.493-.376-.729-.553-1.238-.854-2.522-1.658-3.85-2.411-1.327-.753-2.726-1.348-4.202-1.792-1.857-.59-3.775-.877-5.75-.863-1.975.016-3.834.495-5.573 1.439-.975.53-1.918 1.238-2.832 2.124-.914.884-1.503 1.887-1.771 3.007v-.397h-550.217c-.303-.963-.855-1.832-1.659-2.61-.915-.886-1.859-1.594-2.832-2.124-1.739-.944-3.598-1.423-5.573-1.439-1.977-.014-3.893.273-5.75.863-1.476.444-2.877 1.039-4.204 1.792-1.326.753-2.609 1.557-3.847 2.411-.236.177-.48.362-.731.553-.25.192-.494.377-.73.554h-10.527c-.592-.472-1.189-.945-1.792-1.417-.606-.47-1.203-.914-1.793-1.327-.884-.619-1.945-1.283-3.183-1.99-1.24-.708-2.522-1.26-3.85-1.659-1.327-.399-2.631-.538-3.915-.421-1.283.118-2.425.665-3.427 1.637-.326.295-.597.635-.82 1.018-.22.384-.42.796-.597 1.239-.589.029-1.209.139-1.857.332-.649.19-1.224.375-1.726.552-.501.177-1.002.391-1.503.642-.501.25-1.01.486-1.527.708-.517.22-1.032.426-1.548.619-.515.193-1.04.303-1.571.332-.412.03-.744-.045-.994-.222-.252-.177-.428-.413-.531-.707-.104-.295-.133-.612-.088-.952.043-.338.183-.64.421-.906.176-.235.397-.406.662-.509.265-.104.53-.139.796-.112.265.032.517.128.752.289.236.161.413.376.531.641.088.236.25.281.487.134.236-.148.309-.34.22-.576-.176-.383-.42-.678-.729-.885-.31-.206-.642-.332-.996-.377-.354-.043-.721-.006-1.104.112-.386.118-.724.295-1.018.531-.325.265-.56.605-.708 1.018-.149.412-.2.833-.155 1.259.043.429.183.828.42 1.195.236.37.574.613 1.018.729.56.177 1.15.201 1.769.067.619-.131 1.238-.324 1.857-.574.619-.251 1.225-.524 1.814-.819.59-.295 1.136-.546 1.637-.753.413-.147.936-.338 1.57-.574.635-.235 1.262-.383 1.881-.442-.177.767-.222 1.541-.134 2.321.089.782.34 1.484.753 2.103.295.413.656.745 1.083.994.428.252.886.405 1.372.466.487.059.966.029 1.438-.09.472-.116.914-.323 1.327-.619.353-.266.648-.633.884-1.105.383 1.946 1.246 3.516 2.588 4.711s3.06 1.88 5.155 2.055c1.208.091 2.417.008 3.626-.241 1.208-.252 2.36-.627 3.45-1.128.737-.325 1.415-.678 2.034-1.064.621-.381 1.225-.796 1.814-1.238.325.148.672.295 1.04.442.369.15.745.281 1.128.399 1.032.325 2.057.502 3.075.531s2.028-.045 3.031-.22c1.002-.177 1.99-.444 2.963-.798s1.932-.766 2.875-1.238c1.032-.531 2.072-1.091 3.119-1.68 1.048-.59 2.115-1.122 3.207-1.594h559.839v-.157c.02.033.048.059.091.069.118.029.295.06.53.088h9.113c1.091.472 2.16 1.004 3.207 1.594 1.046.589 2.085 1.149 3.119 1.68.943.472 1.902.884 2.875 1.238s1.961.621 2.964.798c1.002.175 2.012.249 3.03.22 1.016-.029 2.042-.206 3.073-.531.384-.118.761-.249 1.129-.399.369-.147.715-.294 1.039-.442.592.442 1.195.857 1.814 1.238.619.386 1.297.739 2.034 1.064 1.093.501 2.242.876 3.451 1.128 1.21.249 2.419.332 3.628.241 2.094-.175 3.812-.86 5.152-2.055 1.343-1.195 2.207-2.765 2.589-4.711.237.472.53.839.884 1.105.414.296.857.503 1.328.619.472.119.951.149 1.437.09.487-.061.945-.214 1.372-.466.428-.249.79-.581 1.084-.994.413-.619.663-1.321.751-2.103.088-.78.045-1.554-.132-2.321.619.059 1.246.207 1.879.442.635.236 1.158.427 1.572.574.501.207 1.046.458 1.635.753.592.295 1.195.568 1.814.819.621.25 1.24.443 1.859.574.619.134 1.209.11 1.769-.067.442-.116.782-.359 1.018-.729.236-.367.375-.766.42-1.195.044-.426-.007-.847-.155-1.259z" fill-rule="nonzero"/></svg>