<?xml version="1.0" standalone="no"?>
<!DOCTYPE svg PUBLIC "-//W3C//DTD SVG 20010904//EN"
 "http://www.w3.org/TR/2001/REC-SVG-20010904/DTD/svg10.dtd">
<svg version="1.0" xmlns="http://www.w3.org/2000/svg"
 width="400.000000pt" height="400.000000pt" viewBox="0 0 400.000000 400.000000"
 preserveAspectRatio="xMidYMid meet">
<metadata>
Created by potrace 1.11, written by Peter Selinger 2001-2013
</metadata>
<g transform="translate(0.000000,400.000000) scale(0.100000,-0.100000)"
fill="#000000" stroke="none">
<path d="M1828 3672 c-18 -9 -35 -16 -38 -17 -3 -1 -18 -8 -35 -15 -16 -7 -34
-12 -39 -11 -4 1 -19 -5 -32 -14 -14 -9 -29 -13 -34 -10 -6 3 -10 -2 -10 -12
0 -13 -12 -23 -35 -32 -24 -8 -35 -19 -35 -32 0 -10 -4 -19 -10 -19 -5 0 -9 3
-9 8 4 22 -6 16 -60 -38 -32 -33 -63 -60 -69 -60 -5 0 -23 -16 -38 -37 -16
-20 -42 -50 -57 -67 -35 -38 -82 -134 -98 -202 -6 -27 -16 -58 -21 -70 -5 -12
-8 -32 -6 -45 3 -22 5 -21 22 14 10 20 22 37 26 37 4 0 11 11 14 24 3 14 21
35 39 48 17 12 46 37 63 55 17 18 38 33 45 33 8 1 40 2 72 3 36 1 63 -3 69
-10 5 -6 16 -9 23 -6 8 2 29 -2 46 -11 18 -9 38 -16 44 -16 7 0 19 -10 28 -23
9 -14 48 -35 100 -56 79 -30 91 -32 163 -27 44 4 108 6 143 6 52 -1 77 6 140
34 42 19 104 39 138 46 61 11 63 10 104 -20 47 -33 114 -126 99 -135 -14 -9 0
-35 19 -35 10 0 21 -3 25 -7 4 -5 11 -8 14 -8 12 -1 52 -29 52 -37 0 -4 -7 -5
-15 -2 -20 8 -19 -6 3 -22 23 -18 32 -17 32 1 0 8 5 15 10 15 6 0 10 7 10 15
0 8 -5 15 -11 15 -9 0 -8 4 0 14 13 15 8 51 -22 150 -17 59 -57 126 -57 96 0
-20 -18 -10 -24 13 -3 13 -24 43 -46 67 -22 24 -40 49 -40 55 0 6 -11 22 -25
35 -14 13 -25 31 -24 40 2 27 -13 60 -28 60 -8 0 -12 4 -8 9 5 8 -34 38 -42
33 -2 -1 -2 1 0 4 4 9 -94 55 -104 48 -5 -3 -12 1 -15 9 -3 9 -20 21 -37 28
-18 7 -41 21 -51 31 -11 10 -32 18 -48 18 -15 0 -47 10 -70 22 -53 28 -198 33
-250 10z m692 -362 c0 -5 -2 -10 -4 -10 -3 0 -8 5 -11 10 -3 6 -1 10 4 10 6 0
11 -4 11 -10z m30 -95 c0 -20 -12 -25 -26 -10 -15 15 -18 37 -7 49 8 8 33 -22
33 -39z m-1214 -10 c-11 -8 -27 -15 -35 -15 -11 0 -10 4 5 15 10 8 26 14 34
14 11 0 10 -3 -4 -14z"/>
<path d="M2506 3404 c-7 -18 2 -37 14 -29 4 3 13 -2 20 -10 11 -13 10 -14 -6
-9 -14 4 -13 1 6 -15 32 -26 44 -27 30 0 -7 11 -9 23 -6 27 7 6 -33 52 -45 52
-4 0 -10 -7 -13 -16z"/>
<path d="M1180 2865 c-7 -9 -8 -15 -2 -15 5 0 12 7 16 15 3 8 4 15 2 15 -2 0
-9 -7 -16 -15z"/>
<path d="M2670 2851 c0 -11 4 -21 9 -23 6 -2 7 -22 4 -46 -4 -29 -10 -41 -18
-38 -7 2 -12 -2 -11 -9 3 -18 16 -32 16 -18 0 6 11 8 24 6 19 -4 24 0 29 23 3
15 1 38 -4 51 -5 14 -5 23 1 23 20 0 9 27 -15 38 -34 16 -35 15 -35 -7z"/>
<path d="M2667 2605 c-4 -8 -13 -15 -22 -15 -8 0 -15 -5 -15 -11 0 -6 -7 -17
-15 -25 -18 -18 -20 -34 -4 -34 8 0 8 -5 -1 -15 -10 -12 -9 -15 8 -15 11 0 25
7 32 15 7 8 18 15 25 15 8 0 12 15 10 45 -2 49 -9 65 -18 40z"/>
<path d="M1578 2605 c-3 -3 -38 -7 -79 -8 -85 -4 -129 -25 -129 -62 0 -27 -17
-35 -71 -35 -27 0 -39 -4 -39 -14 0 -17 107 -27 114 -11 3 6 5 4 5 -2 1 -15
31 -18 31 -3 0 6 5 10 10 10 6 0 -1 -21 -15 -46 -14 -26 -23 -49 -20 -52 3 -4
22 -5 41 -3 22 1 42 -3 52 -12 10 -9 31 -21 47 -28 23 -9 26 -13 13 -16 -32
-8 -19 -25 13 -21 25 4 33 1 37 -14 2 -10 12 -18 21 -18 32 0 93 22 110 39 24
24 54 23 48 -1 -3 -10 -1 -21 4 -24 8 -5 43 62 63 119 4 14 14 17 38 15 31 -3
34 -6 50 -65 9 -35 26 -74 37 -89 l20 -25 -6 35 c-5 34 7 50 22 26 3 -5 38
-19 77 -30 62 -19 80 -20 145 -12 74 10 98 21 98 45 0 7 5 12 12 12 7 0 18 6
25 13 6 6 20 12 29 12 24 0 33 18 19 35 -15 18 -3 38 17 31 12 -5 14 -1 10 14
-4 17 0 20 28 20 37 0 137 40 118 47 -7 2 -21 0 -32 -6 -43 -23 -181 -1 -181
29 0 11 -68 42 -79 36 -4 -3 -35 -1 -67 4 -143 23 -237 16 -265 -21 -9 -12
-21 -19 -28 -15 -6 4 -11 2 -11 -3 0 -14 -37 -14 -45 0 -4 6 -13 8 -20 5 -7
-2 -22 4 -34 15 -12 11 -21 16 -21 12 0 -4 -4 -3 -8 4 -13 21 -95 53 -108 42
-7 -6 -24 -4 -47 6 -41 17 -42 17 -49 10z"/>
<path d="M1220 2578 c1 -15 24 -48 34 -48 4 0 0 14 -9 30 -16 32 -25 38 -25
18z"/>
<path d="M1123 2453 c2 -49 14 -115 25 -148 l20 -60 -5 52 c-6 56 14 176 28
168 4 -3 11 0 14 6 10 15 -44 69 -68 69 -18 0 -19 -6 -14 -87z"/>
<path d="M2690 2468 c-40 -62 -57 -132 -54 -217 2 -46 6 -86 9 -89 3 -3 5 2 5
11 0 13 9 17 34 17 32 0 35 -3 33 -27 -1 -18 3 -28 14 -31 27 -5 76 130 93
254 9 65 -10 90 -74 99 -40 6 -47 4 -60 -17z m70 -175 c0 -68 -5 -67 -13 5 -4
30 -2 52 3 52 6 0 10 -25 10 -57z"/>
<path d="M1189 2386 c-12 -26 -5 -100 11 -126 7 -10 10 11 10 68 0 45 -2 82
-5 82 -3 0 -10 -11 -16 -24z"/>
<path d="M1170 2233 c0 -5 7 -18 15 -29 12 -16 14 -16 15 -3 0 9 -7 22 -15 29
-8 7 -15 8 -15 3z"/>
<path d="M1620 2089 c-39 -25 -119 -54 -155 -56 -105 -6 -120 -9 -121 -18 0
-5 -4 -19 -9 -29 -6 -13 -3 -22 7 -30 8 -6 20 -21 27 -33 6 -13 16 -23 22 -23
6 0 24 -14 40 -31 l30 -32 22 22 c27 25 37 27 37 6 0 -8 4 -15 8 -15 4 0 14
-15 20 -34 9 -24 21 -36 40 -41 15 -3 47 -19 72 -35 99 -61 302 -71 417 -19
23 10 49 16 57 13 9 -3 16 -1 16 5 0 6 11 17 25 23 17 8 24 17 20 27 -3 8 -3
12 1 8 4 -4 16 0 26 10 17 15 18 15 18 -7 0 -19 2 -20 15 -10 8 7 15 18 15 24
0 21 48 59 64 53 9 -4 16 -2 16 4 0 7 12 8 31 4 25 -6 34 -2 55 22 29 33 29
38 7 62 -14 15 -32 19 -88 18 -77 0 -111 7 -137 31 -10 8 -18 12 -18 9 0 -4
-21 6 -47 23 l-48 30 -23 -26 c-32 -37 -105 -52 -242 -49 -119 2 -170 10 -182
29 -4 6 -8 26 -8 44 0 33 -5 37 -30 21z m70 -141 c0 -11 21 -41 46 -67 l46
-45 -29 -9 c-15 -4 -52 -8 -82 -8 -45 0 -59 5 -79 25 l-24 24 23 31 c12 17 26
31 31 31 4 0 8 8 8 18 0 14 8 19 30 20 24 0 30 -4 30 -20z m456 -45 c4 -13 10
-23 15 -23 6 0 5 -9 -1 -20 -6 -12 -9 -29 -5 -39 6 -20 2 -21 -69 -25 -56 -3
-146 12 -146 25 0 5 9 14 21 21 11 7 29 29 39 49 11 20 33 43 52 52 30 14 35
14 61 -1 15 -9 30 -27 33 -39z m-246 -83 c0 -5 -7 -10 -16 -10 -8 0 -12 5 -9
10 3 6 10 10 16 10 5 0 9 -4 9 -10z m-71 -49 c27 -17 22 -41 -10 -41 -24 0
-29 4 -29 25 0 26 14 31 39 16z m115 -18 c9 -22 -6 -35 -35 -31 -16 2 -25 11
-27 26 -3 18 1 22 26 22 19 0 32 -6 36 -17z"/>
<path d="M1196 2045 c9 -23 -25 -46 -49 -33 -10 5 -37 6 -60 2 -23 -4 -55 -6
-70 -6 -31 1 -112 -37 -112 -53 -1 -6 -4 -26 -8 -46 -6 -31 -11 -37 -32 -35
-15 0 -28 10 -35 25 -6 13 -9 24 -8 25 2 1 17 6 33 12 31 10 46 47 28 65 -15
15 -538 28 -551 14 -3 -2 -13 0 -22 5 -12 7 -21 6 -29 -3 -12 -15 -101 -13
-131 3 -24 13 -110 13 -110 0 0 -5 -9 -10 -20 -10 -20 0 -20 -7 -20 -685 l0
-684 143 72 c78 40 156 78 172 84 17 7 63 26 104 43 41 16 131 48 202 70 71
22 131 45 134 50 3 6 2 10 -3 10 -19 0 -82 64 -108 108 -15 26 -42 65 -60 87
-32 40 -57 100 -68 165 -3 19 4 6 15 -30 25 -79 39 -98 51 -75 5 8 14 12 20 9
6 -4 14 -1 18 7 7 11 34 14 80 10 6 -1 10 -5 10 -10 0 -4 -12 -6 -26 -3 -30 6
-74 -15 -74 -36 0 -9 -6 -12 -15 -8 -13 4 -14 2 -5 -14 6 -11 13 -20 16 -20 3
0 2 5 -1 10 -6 9 0 11 45 14 8 1 20 4 26 8 6 4 26 3 45 -2 28 -9 36 -7 44 6 6
10 23 32 38 50 28 32 28 33 7 44 -14 8 -26 8 -40 0 -31 -16 -26 14 5 34 20 13
24 22 19 41 -7 28 12 59 29 48 5 -3 7 -1 3 5 -3 6 -2 13 4 17 5 3 10 1 10 -4
0 -6 6 -11 14 -11 8 0 19 -14 25 -31 14 -40 14 -40 -5 -32 -12 5 -15 2 -11
-13 8 -26 9 -92 1 -131 -5 -24 -3 -33 7 -33 19 -1 -20 -30 -39 -30 -11 0 -12
3 -3 14 7 8 11 27 8 43 -4 27 -4 27 -6 -4 -1 -25 -5 -31 -20 -30 -15 1 -17 5
-10 24 5 14 5 23 -1 23 -16 0 -25 -24 -25 -70 0 -40 -3 -45 -25 -49 -14 -1
-28 -8 -32 -15 -6 -8 -8 -8 -8 2 0 22 -18 13 -22 -13 -4 -16 -1 -22 6 -18 20
13 104 10 99 -3 -2 -7 0 -15 6 -19 6 -3 11 1 11 9 0 15 29 36 49 36 5 0 11
-15 13 -32 2 -21 8 -33 18 -33 9 0 30 -10 47 -23 22 -16 30 -28 26 -42 -4 -14
0 -20 12 -20 9 0 23 -6 31 -14 7 -8 19 -16 26 -19 10 -3 8 -10 -6 -26 -15 -16
-16 -21 -5 -21 8 0 20 5 25 10 8 8 24 0 53 -25 48 -39 71 -44 71 -15 0 11 5
20 10 20 14 0 13 127 -1 136 -6 3 -8 17 -5 30 7 26 -10 105 -24 114 -4 3 -11
20 -15 38 l-7 32 45 0 c31 0 51 -6 70 -22 l26 -23 -29 -47 c-17 -27 -27 -48
-24 -48 4 0 1 -7 -6 -15 -9 -11 -11 -36 -6 -88 6 -73 28 -162 37 -153 3 3 2
40 -2 83 -9 88 1 110 26 61 63 -120 68 -135 52 -155 -20 -26 5 -12 41 22 l37
35 9 -73 c5 -39 10 -74 12 -76 1 -1 13 4 25 12 21 15 24 14 64 -31 29 -31 39
-49 31 -54 -8 -6 -7 -8 2 -8 14 0 121 -80 192 -144 25 -23 73 -62 106 -87 77
-59 264 -263 301 -329 20 -36 34 -50 49 -50 25 0 41 30 22 42 -10 5 -8 8 5 8
10 0 15 4 12 10 -3 5 3 20 14 32 12 12 21 27 21 34 0 10 85 100 154 163 14 12
24 27 21 32 -12 19 58 124 76 114 4 -3 11 0 15 6 4 8 3 9 -4 5 -26 -16 -10 12
29 49 22 22 57 64 77 94 87 126 112 166 112 176 0 6 8 20 18 31 10 10 24 28
30 39 11 20 12 20 18 -2 8 -28 24 -31 17 -4 -11 42 16 27 52 -30 21 -33 43
-58 49 -56 7 2 11 45 11 125 -1 112 1 121 17 116 15 -4 18 1 18 34 0 31 -4 41
-20 45 -16 4 -20 14 -22 54 -1 26 -1 63 1 81 1 19 -3 48 -9 66 -9 28 -7 41 15
90 30 68 31 86 6 86 -22 0 -41 45 -41 97 0 21 -7 40 -20 50 -11 10 -20 21 -20
26 0 5 7 4 15 -3 12 -10 21 -10 40 -2 17 8 42 8 82 2 32 -6 59 -10 61 -10 1 0
2 -7 2 -15 0 -8 16 -21 36 -30 19 -8 48 -24 64 -35 15 -11 39 -20 52 -20 33
-1 60 -24 52 -45 -6 -16 -9 -15 -26 6 -13 16 -21 20 -25 12 -2 -7 -10 -13 -17
-13 -7 0 -25 -14 -42 -32 -17 -18 -22 -29 -13 -25 72 25 99 29 128 19 27 -10
37 -8 74 16 48 31 122 37 153 12 24 -20 50 -85 59 -145 8 -59 19 -75 45 -68
23 6 25 14 8 31 -18 18 3 15 23 -4 11 -10 31 -14 56 -12 l38 3 -52 52 c-29 29
-58 51 -65 48 -18 -7 -34 6 -42 33 -6 18 -4 22 16 22 13 0 29 -5 35 -11 16
-16 30 -4 37 33 9 45 45 68 130 85 123 25 164 27 191 9 l25 -16 0 111 0 111
-30 -7 c-17 -4 -36 -2 -43 3 -7 5 -29 7 -50 4 -36 -4 -37 -5 -18 -18 11 -8 26
-13 32 -12 7 2 15 -5 17 -15 3 -16 0 -18 -20 -12 -12 4 -26 12 -30 18 -4 7
-11 7 -21 -1 -15 -13 -76 -10 -86 5 -3 5 -23 8 -43 7 -21 -1 -38 2 -38 8 0 15
-43 47 -62 48 -10 0 -18 5 -18 11 0 6 9 8 23 4 21 -6 35 -11 90 -35 45 -19 87
-14 87 11 0 16 -18 10 -22 -8 -3 -13 -8 -9 -18 15 -8 18 -20 30 -26 28 -5 -2
-28 7 -50 20 -21 13 -45 24 -53 24 -21 0 -91 33 -91 43 0 4 -5 5 -10 2 -6 -4
-21 0 -34 8 -48 32 -123 43 -207 32 -25 -3 -56 -2 -70 3 -14 6 -34 6 -48 1
-14 -6 -28 -6 -35 0 -15 12 -104 -2 -143 -22 -46 -24 -57 -21 -36 11 26 37 44
82 35 82 -5 0 -19 -11 -32 -25 -15 -16 -27 -22 -34 -15 -20 15 -96 -27 -150
-84 -49 -52 -112 -93 -123 -82 -4 3 6 15 21 27 14 11 24 25 21 30 -9 13 -17
11 -43 -11 -23 -19 -25 -26 -43 -108 -5 -24 -11 -47 -14 -51 -6 -10 13 -175
26 -223 5 -20 25 -55 44 -78 19 -23 35 -48 35 -55 0 -7 -16 -45 -36 -85 -103
-206 -389 -356 -642 -336 -186 14 -362 54 -362 83 0 9 -6 13 -15 9 -8 -3 -15
-1 -15 4 0 21 -2 26 -23 60 -12 19 -34 46 -49 58 -16 13 -26 28 -22 33 3 5 1
9 -4 9 -14 0 -24 28 -27 80 -2 24 -9 46 -15 48 -8 3 -8 8 0 17 8 10 7 13 -6
11 -12 -1 -20 10 -26 32 -14 53 -5 58 25 15 15 -22 25 -47 22 -55 -3 -8 2 -21
11 -29 15 -12 16 -12 10 9 -6 17 -4 21 8 16 8 -3 14 -9 13 -12 -2 -8 138 -150
198 -200 24 -20 45 -30 56 -27 9 3 20 2 23 -3 3 -6 22 -13 41 -16 20 -4 33
-11 30 -16 -3 -5 9 -7 27 -5 18 2 65 6 103 9 39 2 84 12 100 20 17 9 40 16 53
16 13 0 22 6 22 15 0 8 4 15 9 15 5 0 16 6 23 13 7 6 28 24 46 40 19 15 28 27
22 27 -6 0 7 17 29 38 38 36 106 150 95 161 -3 3 -9 -1 -14 -9 -8 -12 -10 -12
-15 3 -4 9 0 23 9 32 9 9 16 27 16 41 0 13 4 24 10 24 5 0 7 7 4 15 -8 20 -24
19 -24 -2 0 -15 -2 -14 -15 3 -8 11 -15 14 -15 7 0 -7 -6 -13 -14 -13 -16 0
-103 -48 -112 -61 -3 -5 -10 -7 -15 -4 -5 4 -9 -1 -9 -9 0 -9 -9 -16 -20 -16
-10 0 -23 -6 -27 -14 -5 -8 -22 -17 -38 -20 -29 -5 -276 -20 -305 -18 -153 7
-250 24 -250 43 0 5 -9 9 -20 9 -11 0 -20 6 -20 14 0 18 -22 36 -50 41 -13 2
-31 12 -40 20 -14 13 -19 13 -23 3 -8 -21 -32 15 -85 125 -42 87 -72 122 -72
83 0 -16 -60 -66 -78 -66 -17 0 -15 15 3 30 8 7 15 17 15 23 0 6 7 19 17 29
10 11 12 18 4 18 -6 0 -25 -16 -42 -35 -17 -19 -35 -35 -41 -35 -5 0 -19 -12
-31 -26 -21 -24 -23 -25 -52 -10 -26 14 -31 14 -47 -1 -17 -15 -20 -15 -38 2
-19 17 -21 17 -40 0 -10 -9 -26 -15 -35 -11 -9 3 -18 -1 -22 -9 -3 -9 -13 -20
-23 -25 -14 -8 -16 -5 -12 15 3 17 -4 31 -24 51 l-29 26 -3 -31 c-3 -28 -5
-30 -25 -20 -22 12 -22 11 1 -13 19 -21 22 -32 17 -61 -6 -29 -3 -37 14 -46
26 -14 27 -31 3 -31 -11 0 -24 -12 -31 -26 -17 -37 -44 -28 -47 16 -2 48 0 45
-39 75 l-36 26 -58 -58 c-82 -83 -91 -89 -91 -69 0 9 20 38 44 64 25 26 48 61
51 77 4 17 19 54 33 83 22 47 31 56 86 80 34 16 101 41 149 57 65 22 82 31 63
33 -36 5 -35 38 1 45 29 5 63 -7 63 -23 0 -14 68 21 75 38 4 10 0 13 -15 9
-24 -6 -25 1 -5 27 14 18 20 15 15 -9 -1 -5 4 -5 11 2 6 6 17 9 24 7 7 -3 24
10 39 28 18 24 34 34 58 36 18 2 36 6 41 11 13 13 -7 86 -26 89 -12 3 -15 -1
-11 -13z m-176 -99 c0 -2 -7 -7 -16 -10 -8 -3 -12 -2 -9 4 6 10 25 14 25 6z
m-880 -36 c0 -5 -5 -10 -11 -10 -5 0 -7 5 -4 10 3 6 8 10 11 10 2 0 4 -4 4
-10z m2695 -140 c-3 -5 -11 -10 -16 -10 -6 0 -7 5 -4 10 3 6 11 10 16 10 6 0
7 -4 4 -10z m-2312 -35 c9 -22 -10 -28 -34 -12 -15 11 -17 16 -7 20 23 10 36
7 41 -8z m3441 -61 c9 -24 8 -26 -14 -14 -11 6 -18 15 -15 21 9 14 22 11 29
-7z m-3130 -99 c-4 -8 -8 -15 -10 -15 -2 0 -4 7 -4 15 0 8 4 15 10 15 5 0 7
-7 4 -15z m448 -52 c-18 -7 -67 -53 -57 -53 5 0 -5 -11 -23 -23 -19 -15 -47
-24 -73 -25 -23 -1 -60 -7 -81 -13 -22 -6 -42 -8 -45 -6 -14 14 123 92 197
113 44 12 108 18 82 7z m-282 -22 c0 -5 -7 -12 -16 -15 -14 -5 -15 -4 -4 9 14
17 20 19 20 6z m-90 -72 c0 -6 -4 -7 -10 -4 -5 3 -10 11 -10 16 0 6 5 7 10 4
6 -3 10 -11 10 -16z m286 -51 c4 -7 3 -8 -4 -4 -7 4 -35 0 -64 -8 -29 -9 -75
-19 -102 -23 l-49 -8 39 -25 c26 -17 38 -33 37 -45 -1 -11 5 -24 13 -28 20
-12 17 -24 -8 -31 -25 -6 -16 -22 15 -28 10 -1 18 -7 17 -13 0 -12 -60 -14
-60 -3 0 4 -9 8 -20 8 -11 0 -20 4 -20 9 0 5 -6 11 -14 14 -12 5 -14 -5 -13
-50 1 -31 -2 -57 -8 -59 -6 -3 -9 21 -8 61 1 65 -3 75 -25 53 -9 -9 -12 -8
-16 3 -15 42 -5 95 22 116 15 11 15 12 -5 13 -14 0 -23 6 -23 15 0 18 2 18 34
4 14 -7 32 -8 43 -4 32 15 147 43 180 44 17 0 35 -4 39 -11z m-566 -36 c0 -14
-11 -21 -26 -15 -8 3 -11 9 -8 14 7 11 34 12 34 1z m-53 -94 c-3 -8 -6 -5 -6
6 -1 11 2 17 5 13 3 -3 4 -12 1 -19z m319 -133 c-9 -24 -46 -8 -46 20 0 6 4 4
9 -3 6 -10 11 -9 22 4 15 18 25 4 15 -21z m124 16 c0 -5 -7 -11 -15 -15 -15
-5 -20 5 -8 17 9 10 23 9 23 -2z m83 -41 c-4 -14 -14 -20 -34 -20 -35 0 -37
11 -6 26 35 18 46 16 40 -6z m-182 -4 c5 3 9 -2 9 -10 0 -9 -4 -16 -10 -16 -5
0 -10 2 -10 4 0 2 -2 10 -3 18 -2 7 -2 10 0 5 3 -4 9 -5 14 -1z m54 -46 c-20
-21 -31 -26 -36 -18 -10 16 7 36 34 41 12 2 24 5 26 6 3 0 -8 -13 -24 -29z
m105 -22 c-11 -18 -24 -43 -30 -55 -13 -30 -20 -29 -59 11 -32 33 -32 33 -9
39 13 3 41 12 63 21 55 21 57 20 35 -16z m8 -80 c7 -7 12 -25 12 -40 0 -31 7
-34 35 -14 19 13 20 11 23 -32 l2 -45 -52 51 c-29 29 -56 52 -60 52 -5 0 -3 9
4 20 15 23 20 24 36 8z"/>
<path d="M2930 2030 c-18 -4 -21 -8 -10 -12 17 -6 58 6 44 14 -5 3 -20 2 -34
-2z"/>
<path d="M3923 2029 c-6 -6 -43 -12 -82 -14 -40 -1 -77 -8 -86 -15 -14 -11
-19 -10 -37 7 -17 18 -25 19 -44 11 -18 -8 -39 -8 -80 1 -30 7 -58 10 -61 7
-3 -3 43 -29 103 -57 60 -28 121 -58 137 -66 15 -8 31 -11 37 -8 11 7 60 -22
79 -48 16 -22 78 -50 91 -42 4 3 10 -1 13 -7 2 -7 5 39 6 103 2 115 2 115 -24
127 -32 15 -38 15 -52 1z"/>
<path d="M2630 2001 c0 -13 9 -21 28 -26 21 -4 32 -15 41 -40 11 -31 14 -33
32 -22 10 6 17 18 14 24 -2 8 4 13 15 13 28 0 32 15 11 38 -13 16 -21 18 -29
10 -9 -9 -12 -8 -12 5 0 14 -10 17 -50 17 -43 0 -50 -3 -50 -19z m95 -32 c11
-17 -1 -21 -15 -4 -8 9 -8 15 -2 15 6 0 14 -5 17 -11z"/>
<path d="M2625 1919 c-8 -26 6 -42 28 -33 20 7 22 25 5 42 -17 17 -26 15 -33
-9z"/>
<path d="M1200 1761 c-14 -4 -20 -10 -15 -13 10 -6 55 7 55 17 0 6 -7 5 -40
-4z"/>
<path d="M1105 1730 c4 -6 11 -8 16 -5 14 9 11 15 -7 15 -8 0 -12 -5 -9 -10z"/>
<path d="M1757 1616 c-28 -42 -22 -52 42 -68 82 -20 128 -21 156 -2 22 15 26
22 21 48 -4 16 -8 31 -10 33 -2 2 -46 6 -98 9 -93 5 -95 5 -111 -20z"/>
<path d="M905 1610 c-3 -5 -1 -10 4 -10 6 0 11 5 11 10 0 6 -2 10 -4 10 -3 0
-8 -4 -11 -10z"/>
<path d="M740 1475 c0 -8 4 -15 10 -15 5 0 7 7 4 15 -4 8 -8 15 -10 15 -2 0
-4 -7 -4 -15z"/>
<path d="M810 1353 c0 -12 7 -23 15 -26 23 -9 26 9 5 28 -19 17 -20 17 -20 -2z"/>
<path d="M3797 1313 c3 -27 12 -54 21 -60 17 -14 52 -18 52 -5 -1 12 -29 58
-30 47 0 -5 -11 7 -24 28 l-24 39 5 -49z"/>
<path d="M3720 1303 c1 -16 37 -56 48 -52 17 6 -9 53 -31 57 -9 2 -17 0 -17
-5z"/>
<path d="M3902 1298 c-7 -7 -12 -16 -12 -20 0 -12 28 -10 36 3 10 17 -10 31
-24 17z"/>
<path d="M3935 1260 c3 -5 10 -10 16 -10 5 0 9 5 9 10 0 6 -7 10 -16 10 -8 0
-12 -4 -9 -10z"/>
<path d="M663 1143 c-34 -17 -47 -41 -15 -28 9 4 31 10 47 13 17 3 39 11 50
18 18 13 17 14 -15 13 -19 0 -50 -8 -67 -16z"/>
<path d="M3957 1122 c-22 -14 -27 -23 -23 -47 6 -42 7 -43 15 -15 4 15 15 26
29 28 16 2 22 10 22 28 0 28 -5 28 -43 6z"/>
<path d="M2955 1089 c-4 -6 -4 -13 -1 -16 3 -4 6 -1 6 5 0 6 8 13 18 15 15 4
15 5 0 6 -9 0 -20 -4 -23 -10z"/>
<path d="M3911 998 c1 -18 4 -44 8 -58 l7 -25 7 27 c8 30 -1 88 -14 88 -5 0
-9 -15 -8 -32z"/>
<path d="M840 980 c-11 -7 -7 -10 17 -10 17 0 35 5 38 10 8 13 -35 13 -55 0z"/>
<path d="M3381 881 c-16 -16 -49 -43 -73 -59 -24 -16 -52 -40 -63 -52 -11 -12
-30 -26 -42 -31 -25 -9 -31 -29 -10 -29 7 0 23 7 36 16 17 12 26 13 34 5 8 -8
7 -11 -6 -11 -9 0 -17 -7 -17 -16 0 -10 -6 -14 -14 -11 -10 4 -13 1 -9 -9 3
-8 -1 -14 -11 -14 -9 0 -16 -4 -16 -10 0 -5 -7 -10 -16 -10 -8 0 -12 -4 -9
-10 3 -5 -1 -10 -9 -10 -9 0 -16 -4 -16 -10 0 -5 -7 -10 -15 -10 -8 0 -15 -4
-15 -10 0 -5 -7 -10 -16 -10 -8 0 -12 -4 -9 -10 3 -5 -1 -10 -9 -10 -9 0 -16
-5 -16 -11 0 -6 -7 -9 -15 -5 -8 3 -15 1 -15 -4 0 -6 -7 -10 -15 -10 -8 0 -15
-5 -15 -11 0 -6 -7 -9 -15 -5 -8 3 -15 1 -15 -5 0 -6 -7 -9 -15 -5 -9 3 -15
-1 -15 -11 0 -13 -3 -13 -15 -3 -12 10 -15 10 -15 0 0 -7 -7 -10 -15 -6 -8 3
-15 2 -15 -3 0 -5 -11 -9 -25 -10 -58 -4 -65 -6 -65 -14 0 -5 -7 -7 -15 -3 -8
3 -15 1 -15 -5 0 -6 -6 -9 -14 -6 -7 3 -19 0 -25 -6 -6 -6 -11 -7 -11 -3 0 5
-7 3 -15 -4 -8 -7 -15 -9 -15 -5 0 4 -7 2 -15 -5 -8 -7 -15 -9 -15 -6 0 4 -13
-2 -29 -13 -15 -11 -31 -18 -35 -14 -3 3 -6 1 -6 -5 0 -7 -6 -12 -13 -12 -7 0
-19 -9 -27 -20 -8 -11 -20 -20 -27 -20 -7 0 -13 -4 -13 -10 0 -5 1 -10 3 -10
7 1 80 30 130 53 32 15 68 27 80 27 13 0 29 6 35 13 7 6 23 13 35 14 69 8 105
18 130 39 15 13 44 26 65 29 62 11 159 45 186 66 14 11 39 24 56 30 16 6 30
15 30 21 0 5 5 6 10 3 6 -3 13 1 16 9 3 9 10 13 15 10 5 -3 9 2 9 10 0 9 4 16
9 16 5 0 14 12 20 28 5 15 23 45 39 67 24 34 35 41 77 47 61 9 90 4 169 -32
34 -14 73 -30 89 -34 15 -3 27 -13 27 -22 0 -9 11 -25 25 -36 14 -11 25 -26
25 -34 0 -8 10 -14 22 -14 23 0 118 -42 160 -71 34 -24 38 -24 38 4 0 15 -15
32 -48 55 -124 85 -183 122 -207 128 -14 3 -25 9 -25 14 0 4 -19 13 -42 19
-24 7 -62 22 -85 32 -23 10 -52 21 -65 22 -15 3 -23 11 -23 23 0 23 -20 39
-62 48 -26 6 -36 2 -62 -23z m109 -33 c0 -5 -6 -8 -12 -5 -7 2 -33 -2 -57 -9
-44 -13 -61 -11 -61 6 0 11 24 16 83 17 26 0 47 -4 47 -9z m-129 -31 c-1 -12
-15 -9 -19 4 -3 6 1 10 8 8 6 -3 11 -8 11 -12z m-21 -17 c0 -5 -7 -10 -16 -10
-8 0 -12 5 -9 10 3 6 10 10 16 10 5 0 9 -4 9 -10z m-30 -30 c0 -5 -2 -10 -4
-10 -3 0 -8 5 -11 10 -3 6 -1 10 4 10 6 0 11 -4 11 -10z m-20 -20 c0 -5 -4
-10 -9 -10 -6 0 -13 5 -16 10 -3 6 1 10 9 10 9 0 16 -4 16 -10z"/>
<path d="M3596 902 c-7 -12 32 -79 51 -86 6 -3 14 1 17 9 7 18 -58 92 -68 77z"/>
<path d="M3816 881 c-11 -12 -25 -21 -33 -21 -15 0 -18 -16 -3 -25 13 -8 64
39 58 55 -2 7 -10 4 -22 -9z"/>
<path d="M963 743 c-1 -38 5 -83 13 -102 8 -19 14 -55 13 -81 -2 -47 16 -87
53 -121 10 -9 18 -21 18 -27 0 -10 72 -72 83 -72 3 0 6 61 6 136 0 75 3 139 5
142 11 10 -26 62 -66 93 -24 18 -57 47 -75 66 -18 18 -36 33 -41 33 -5 0 -9
-30 -9 -67z"/>
<path d="M1174 774 c3 -9 6 -23 7 -32 0 -13 2 -13 8 3 9 23 4 45 -11 45 -6 0
-7 -7 -4 -16z"/>
<path d="M1210 752 c0 -5 7 -15 15 -22 8 -7 15 -9 15 -6 0 4 -7 14 -15 22 -8
9 -15 11 -15 6z"/>
<path d="M1195 710 c3 -5 8 -10 11 -10 2 0 4 5 4 10 0 6 -5 10 -11 10 -5 0 -7
-4 -4 -10z"/>
<path d="M3421 708 c-43 -12 -62 -34 -112 -133 -41 -80 -75 -121 -117 -140
-16 -7 -19 -14 -12 -25 8 -13 24 -11 122 15 97 25 128 29 222 27 95 -3 115 -6
155 -28 25 -14 61 -41 78 -59 18 -18 77 -54 130 -80 54 -27 102 -50 106 -53 5
-2 7 11 5 29 -3 31 -10 37 -83 76 -79 41 -80 42 -127 127 -48 90 -99 160 -132
186 -82 63 -156 81 -235 58z"/>
<path d="M1190 587 c0 -3 13 -46 46 -151 18 -57 60 -116 83 -116 6 0 19 13 29
28 17 27 44 32 67 11 18 -18 25 -8 25 34 0 52 -11 63 -97 107 -35 17 -78 44
-97 60 -28 25 -56 38 -56 27z"/>
<path d="M1463 409 c3 -13 11 -53 17 -89 13 -72 29 -111 30 -72 0 46 33 37
135 -38 11 -8 63 -59 116 -114 113 -116 154 -128 58 -16 -36 41 -83 100 -104
130 -33 45 -35 52 -15 37 14 -10 46 -27 72 -38 31 -14 45 -26 41 -35 -6 -16
11 -18 37 -4 16 8 22 5 37 -20 9 -16 23 -30 30 -30 18 0 16 10 -4 27 -10 8 -4
7 14 -3 18 -10 30 -21 27 -26 -3 -4 2 -8 10 -8 9 0 16 -6 16 -13 0 -7 9 -19
20 -27 11 -8 20 -20 20 -26 0 -7 7 -20 16 -28 20 -20 41 -21 24 -1 -17 20 -50
88 -46 92 2 2 14 -8 25 -24 18 -22 24 -24 31 -13 5 8 6 17 2 20 -4 3 -13 16
-20 30 -12 23 -153 129 -184 139 -7 2 -58 25 -113 51 -144 68 -236 107 -269
116 -27 6 -28 5 -23 -17z"/>
<path d="M3091 389 c-31 -14 -84 -22 -187 -29 -163 -12 -192 -17 -319 -57
-106 -34 -185 -77 -247 -136 -41 -38 -45 -47 -52 -105 l-7 -62 59 0 c47 0 63
4 78 21 10 12 35 32 54 44 19 13 49 36 66 52 17 16 56 46 87 66 54 36 59 38
116 31 39 -4 61 -3 65 5 10 16 72 13 86 -4 10 -12 16 -13 26 -4 8 6 14 17 14
23 0 25 57 66 126 90 39 14 78 26 86 26 10 0 15 10 14 30 -1 35 -6 35 -65 9z"/>
<path d="M3991 384 c0 -11 3 -14 6 -6 3 7 2 16 -1 19 -3 4 -6 -2 -5 -13z"/>
<path d="M126 179 c-13 -36 -25 -108 -25 -144 1 -53 7 -36 23 66 13 78 13 111
2 78z"/>
<path d="M1530 10 c0 -5 7 -10 16 -10 8 0 12 5 9 10 -3 6 -10 10 -16 10 -5 0
-9 -4 -9 -10z"/>
</g>
</svg>
